<svg width="71" height="72" viewBox="0 0 71 72" fill="none" xmlns="http://www.w3.org/2000/svg">
<path d="M29.6583 15.987C33.5082 14.8576 35.7136 10.8209 34.5842 6.97097C33.4547 3.12101 29.4181 0.915599 25.5681 2.04506C21.7182 3.17451 19.5128 7.21113 20.6422 11.0611C21.7717 14.9111 25.8083 17.1165 29.6583 15.987Z" fill="#36B04A"/>
<path d="M6.66553 68.8577C6.66553 70.3556 7.86384 71.6288 9.43662 71.6288H61.6381C63.136 71.6288 64.4092 70.4305 64.4092 68.8577V41.4464H6.66553V68.8577Z" fill="#36B04A"/>
<path d="M56.6952 29.6879C56.6952 27.516 54.9427 25.7035 52.8007 25.5837V25.1193H53.25C53.3998 25.1193 53.5496 24.9696 53.5496 24.8198C53.5496 24.67 53.3998 24.5202 53.25 24.5202H51.9768C51.827 24.5202 51.6773 24.67 51.6773 24.8198C51.6773 24.9696 51.827 25.1193 51.9768 25.1193H52.2764V25.5837C50.1644 25.741 48.4568 27.5384 48.4568 29.6879V30.2122H56.6952V29.6879Z" fill="#36B04A"/>
<path d="M69.2025 34.4812H68.0042V32.6088C68.0042 32.1594 67.6297 31.785 67.1804 31.785H57.4441V31.5603C57.4441 31.1858 57.1445 30.8862 56.77 30.8862H48.307C47.9325 30.8862 47.6329 31.1858 47.6329 31.5603V31.785H38.4209V21.1499C38.4209 20.3261 38.0464 19.727 37.2975 19.5023L33.2532 18.3789C32.7289 18.2291 32.2046 18.4537 31.8302 18.978L27.5612 25.4938L23.2922 18.978C22.9926 18.4537 22.3935 18.2291 21.8692 18.3789L17.8249 19.5023C17.2257 19.727 16.8513 20.401 16.8513 21.1499V31.785H3.81962C3.37025 31.785 2.99578 32.1594 2.99578 32.6088V34.4812H1.79747C1.27321 34.4812 0.82384 34.7059 0.524262 35.0054C0.224684 35.305 0 35.7544 0 36.2786C0 37.2523 0.82384 38.0761 1.79747 38.0761H69.2025C69.7268 38.0761 70.1762 37.8514 70.4757 37.5518C70.7753 37.2523 71 36.8029 71 36.2786C71 35.305 70.1762 34.4812 69.2025 34.4812Z" fill="#36B04A"/>
</svg>
