<svg width="202" height="56" viewBox="0 0 202 56" fill="none" xmlns="http://www.w3.org/2000/svg">
<path fill-rule="evenodd" clip-rule="evenodd" d="M8.45747 24.8394L9.2587 24.5723C9.08065 25.7297 8.9026 26.8871 8.9026 28.0445C8.9026 29.2019 8.99163 30.3593 9.2587 31.5167L8.45747 31.1606L6.855 30.5374L4.27325 29.558L0 28.0445L4.18422 26.442L6.76598 25.4626L8.45747 24.8394ZM30.1798 6.85533L30.803 8.5469L31.0701 9.34817C29.9127 9.17011 28.8444 8.99205 27.5981 8.99205C26.4407 8.99205 25.2834 9.08108 24.126 9.34817L25.0163 6.85533L25.9956 4.27345L27.6871 0L29.2896 4.27345L30.1798 6.85533ZM55.2851 28.0445L51.1009 29.6471L48.5192 30.6264L46.9167 31.1606L46.1155 31.4277C46.2935 30.2703 46.4716 29.1129 46.4716 27.9555C46.4716 26.7981 46.3825 25.6407 46.1155 24.4833L46.9167 24.7504L48.5192 25.3736L51.1009 26.3529L55.2851 28.0445ZM27.6871 56L29.2896 51.7265L30.2688 49.1447L30.892 47.4531L31.1591 46.6518C30.0018 46.8299 28.9335 47.0079 27.6871 47.0079C26.5297 47.0079 25.3724 46.9189 24.2151 46.6518L24.4822 47.4531L25.1053 49.1447L26.0846 51.7265L27.6871 56ZM9.2587 46.5628L13.0868 44.7822L13.2649 44.6932C12.4636 43.9809 11.7514 43.2687 11.1283 42.4674L11.0392 42.7345L9.2587 46.5628ZM11.1283 13.4436L11.0392 13.2655L9.2587 9.34817L13.0868 11.1288L13.2649 11.2178C12.5527 11.93 11.8405 12.7313 11.1283 13.4436ZM42.0203 11.3068L42.1983 11.2178L46.0264 9.4372L44.2459 13.3545L44.1569 13.5326C43.5337 12.7313 42.8215 11.93 42.0203 11.3068ZM46.0264 46.5628L42.1983 44.7822L42.0203 44.6932C42.8215 43.9809 43.5337 43.2687 44.1569 42.4674L44.2459 42.6455L46.0264 46.5628ZM24.037 48.9666C15.3125 47.4531 8.36844 40.5087 6.94403 31.6057L9.43676 32.5851C11.1283 39.3513 16.3808 44.6932 23.0577 46.3847L24.037 48.9666ZM6.94403 24.3943C8.45747 15.4913 15.3125 8.5469 24.037 7.03339L23.1468 9.61526C16.4698 11.3068 11.1283 16.6486 9.52578 23.4149L6.94403 24.3943ZM31.2481 7.03339C39.9727 8.5469 46.9167 15.4913 48.3411 24.3943L45.8484 23.4149C44.1569 16.6486 38.9044 11.3068 32.2274 9.61526L31.2481 7.03339ZM48.3411 31.6057C46.8277 40.4197 39.9727 47.4531 31.2481 48.9666L32.2274 46.3847C38.9044 44.6932 44.2459 39.3513 45.8484 32.5851L48.3411 31.6057ZM20.387 42.1113C19.4967 39.9746 19.3186 37.5707 19.3186 35.256C19.3186 34.2766 19.4077 33.2083 19.4077 32.2289C19.6747 28.8458 20.2979 25.3736 21.2772 22.0795C22.1675 19.1415 23.3248 16.1145 25.1053 13.5326C25.9066 12.2862 26.9749 11.0397 28.3993 10.5056C28.7554 10.3275 29.1115 10.2385 29.4676 10.2385C30.6249 10.2385 31.6042 11.0397 32.2274 12.1081C33.4738 14.3339 33.7409 17.0938 33.7409 19.5866C33.7409 20.2099 33.7409 20.8331 33.7409 21.3672H33.6518H33.7409C33.5628 25.0175 32.9396 28.6677 31.9603 32.2289C31.0701 35.5231 29.7347 38.8172 27.7761 41.5771C26.8859 42.8235 25.6395 44.337 24.037 44.6932C23.859 44.6932 23.6809 44.7822 23.5029 44.7822C21.9894 44.8712 20.9211 43.4467 20.387 42.1113ZM29.4676 10.7727C29.1115 10.7727 28.8444 10.8617 28.4883 10.9507C27.1529 11.4849 26.0846 12.7313 25.2834 13.9777C23.5029 16.5596 22.3455 19.4976 21.4553 22.4356C20.476 25.7297 19.8528 29.1129 19.5857 32.496C19.4967 33.4754 19.4967 34.4547 19.4967 35.5231C19.4967 37.8378 19.7638 40.2417 20.565 42.3784C21.0992 43.7138 22.0784 45.0493 23.5029 45.0493C23.6809 45.0493 23.859 45.0493 23.948 44.9603C25.4614 44.6932 26.7968 43.1796 27.5981 41.9332C29.5566 39.1733 30.803 35.8792 31.7823 32.6741C32.7616 29.1129 33.3848 25.4626 33.5628 21.8124C33.5628 21.1892 33.5628 20.655 33.5628 20.0318C33.5628 17.4499 33.2957 14.69 32.0494 12.5533C31.5152 11.4849 30.6249 10.7727 29.4676 10.7727ZM20.387 42.9126C17.271 42.3784 14.7783 40.3307 13.4429 37.3927C12.5527 35.5231 12.1966 33.4754 12.1966 31.4277C12.1966 26.62 14.3332 21.7234 17.093 18.0731C20.1199 14.2448 25.1053 10.5946 30.1798 10.5946C31.6042 10.5946 32.9396 10.8617 34.364 11.4849C38.5483 13.3545 40.2398 17.8951 40.2398 22.2576C40.2398 22.7027 40.2398 23.0588 40.1507 23.504H40.0617H40.1507C39.6166 30.4483 35.3433 37.3037 29.3786 40.7758C27.1529 42.0223 24.6602 42.9126 22.1675 42.9126C21.5443 43.0906 20.9211 43.0016 20.387 42.9126ZM17.182 18.2512C14.3332 21.8124 12.2856 26.7091 12.2856 31.5167C12.2856 33.5644 12.6417 35.5231 13.532 37.3927C14.8673 40.2417 17.3601 42.2893 20.387 42.8235C21.0101 42.9126 21.6333 43.0016 22.1675 43.0016C24.6602 43.0016 27.1529 42.1113 29.3786 40.8649C35.2543 37.3927 39.5275 30.5374 40.0617 23.682C40.0617 23.2369 40.1507 22.8808 40.1507 22.4356C40.1507 18.0731 38.4592 13.6216 34.364 11.752C33.0286 11.1288 31.6042 10.8617 30.2688 10.8617C25.1053 10.7727 20.1199 14.3339 17.182 18.2512ZM11.0392 31.4277C10.5941 30.0032 10.416 28.6677 10.416 27.2432C10.416 21.2782 14.4222 15.6693 19.7638 12.9984C22.4346 11.663 25.3724 10.9507 28.3993 10.9507C33.0286 10.9507 37.569 12.6423 40.7739 16.0254C43.1776 18.6073 44.513 21.9905 44.513 25.5517C44.513 25.9968 44.513 26.531 44.424 26.9762C43.5337 34.8998 36.5897 40.5978 29.1115 41.5771C28.3103 41.6661 27.509 41.7552 26.7078 41.7552C19.9418 41.8442 13.1758 38.194 11.0392 31.4277ZM19.7638 13.0874C14.4222 15.7583 10.5051 21.2782 10.5051 27.2432C10.5051 28.5787 10.6831 30.0032 11.1283 31.3386C13.2649 38.0159 19.9418 41.6661 26.6188 41.6661C27.42 41.6661 28.2212 41.5771 29.0225 41.4881C36.4116 40.5087 43.4447 34.8108 44.2459 26.9762C44.3349 26.531 44.3349 25.9968 44.3349 25.5517C44.3349 22.0795 42.9996 18.6963 40.5959 16.1145C37.3909 12.6423 32.8506 11.0397 28.3103 11.0397C25.3724 11.1288 22.4346 11.752 19.7638 13.0874ZM30.981 42.3784C23.6809 41.8442 17.093 36.5024 14.4222 29.6471C13.621 27.6884 13.1758 25.5517 13.1758 23.4149C13.1758 22.0795 13.3539 20.655 13.799 19.3196C14.7783 16.2035 16.9149 13.5326 19.8528 12.1081C21.7223 11.2178 23.7699 10.7727 25.7285 10.7727C30.6249 10.7727 35.6104 13.2655 38.9934 16.7377C42.3764 20.2099 44.602 24.9285 44.602 29.8251C44.602 30.3593 44.602 30.8935 44.513 31.4277H44.424H44.513C44.1569 34.6327 42.6435 37.7488 40.0617 39.7075C37.747 41.4881 34.8982 42.3784 32.0494 42.3784C31.6933 42.3784 31.3372 42.3784 30.981 42.3784ZM19.8528 12.2862C17.004 13.7107 14.7783 16.2925 13.8881 19.4086C13.532 20.744 13.2649 22.0795 13.2649 23.4149C13.2649 25.5517 13.71 27.5994 14.5112 29.558C17.182 36.3243 23.7699 41.6661 30.981 42.2003C31.3372 42.2003 31.6933 42.2003 32.0494 42.2003C34.8982 42.2003 37.747 41.399 40.0617 39.5294C42.5544 37.5707 44.1569 34.4547 44.424 31.2496C44.513 30.7154 44.513 30.1812 44.513 29.7361C44.513 24.8394 42.2874 20.2099 38.9044 16.7377C35.5214 13.2655 30.5359 10.7727 25.6395 10.7727C23.6809 10.9507 21.7223 11.3959 19.8528 12.2862ZM25.0163 38.9062C22.7907 35.9682 21.1882 32.496 20.1199 28.9348C19.4077 26.3529 18.8735 23.682 18.8735 21.0111C18.8735 19.9428 18.9625 18.8744 19.1406 17.8951C19.4077 16.2925 19.9418 14.5119 20.9211 13.0874C21.9004 11.663 23.2358 10.6836 25.1944 10.5946C25.2834 10.5946 25.2834 10.5946 25.3724 10.5946C28.7554 10.5946 31.6042 13.4436 33.5628 15.9364C35.6994 18.6963 37.2129 21.9014 38.2812 25.2846C39.1714 28.0445 39.7056 30.9825 39.7056 33.9205C39.7056 34.5437 39.7056 35.0779 39.6166 35.7011C39.5275 37.3927 39.0824 39.3513 38.2812 41.0429C37.3909 42.7345 36.1446 43.9809 34.186 44.337C33.9189 44.4261 33.5628 44.4261 33.2957 44.4261C29.8237 44.248 26.8859 41.31 25.0163 38.9062ZM25.2834 10.7727C25.1944 10.7727 25.1944 10.7727 25.1053 10.7727C23.2358 10.8617 21.9004 11.841 20.9211 13.2655C19.9418 14.69 19.4077 16.4706 19.1406 18.0731C18.9625 19.1415 18.8735 20.1208 18.8735 21.1892C18.8735 23.8601 19.3186 26.531 20.1199 29.1129C21.0992 32.6741 22.7016 36.1463 25.0163 39.0843C26.8859 41.4881 29.8237 44.337 33.0286 44.337C33.2957 44.337 33.6518 44.337 33.9189 44.248C35.7885 43.9809 37.1238 42.6455 37.9251 41.0429C38.7263 39.4404 39.1714 37.3927 39.2605 35.7901C39.3495 35.1669 39.3495 34.6328 39.3495 34.0095C39.3495 31.0715 38.8153 28.2226 37.9251 25.4626C36.8568 22.1685 35.3433 18.8744 33.2067 16.1145C31.5152 13.5326 28.6664 10.7727 25.2834 10.7727ZM28.7554 45.4054C28.4883 45.1383 28.3993 44.6932 28.3103 44.4261C27.331 41.221 27.1529 37.6598 26.8859 34.3657C26.6188 30.7154 26.3517 26.9762 26.2627 23.3259C26.2627 21.9014 26.1736 20.566 26.1736 19.1415C26.1736 17.0048 26.2627 14.9571 26.4407 12.9094C26.5298 12.3752 26.5297 11.752 26.7078 11.2178C26.7078 11.1288 26.7968 10.8617 26.8859 10.6836C26.9749 10.5056 27.0639 10.3275 27.242 10.3275C27.331 10.3275 27.42 10.4165 27.509 10.5056C28.1322 11.3959 28.2212 12.8203 28.3993 13.7997C28.8444 16.4706 29.1115 19.2305 29.3786 21.9014C29.7347 26.531 30.0018 31.1606 30.0018 35.7901C30.0018 36.4134 30.0018 37.1256 30.0018 37.7488C30.0018 39.4404 29.9127 41.132 29.7347 42.8235C29.6457 43.5358 29.5566 44.248 29.3786 44.9603C29.3786 45.0493 29.2896 45.2273 29.2005 45.3164C29.1115 45.4054 29.0225 45.5835 28.9335 45.5835C28.8444 45.4944 28.7554 45.4054 28.7554 45.4054ZM26.9749 10.3275C26.8859 10.5056 26.8859 10.6836 26.7968 10.7727C26.6188 11.3068 26.6188 11.93 26.5297 12.4642C26.2627 14.5119 26.2627 16.6486 26.2627 18.6963C26.2627 20.1208 26.2627 21.4563 26.3517 22.8808C26.4407 26.531 26.6188 30.2703 26.9749 33.9205C27.242 37.2146 27.42 40.7758 28.3993 43.9809C28.4883 44.337 28.5773 44.6932 28.8444 44.9603C28.9335 44.9603 28.9335 45.0493 28.9335 45.0493C29.0225 45.0493 29.1115 44.9603 29.1115 44.8712C29.2005 44.7822 29.2005 44.6041 29.2005 44.5151C29.3786 43.8029 29.4676 43.0906 29.5566 42.3784C29.7347 40.6868 29.8237 38.9952 29.8237 37.3037H29.9127H29.8237C29.8237 36.6804 29.8237 35.9682 29.8237 35.345C29.8237 30.7154 29.6457 26.0858 29.2005 21.4563C28.9335 18.7854 28.6664 16.0254 28.2212 13.3545C28.0432 12.2862 27.9542 10.9507 27.331 10.0604C27.242 9.97138 27.1529 9.88235 27.1529 9.88235C27.1529 10.0604 27.0639 10.1494 26.9749 10.3275ZM21.3662 43.8029C20.8321 43.1796 20.476 42.3784 20.2089 41.6661C19.6747 40.0636 19.4077 38.372 19.3186 36.6804C19.3186 35.9682 19.2296 35.345 19.2296 34.6328C19.2296 28.8458 20.565 22.7917 22.8797 17.539C23.5029 16.0254 24.3041 14.5119 25.2834 13.2655C26.1736 12.1081 27.242 10.7727 28.7554 10.4165C29.0225 10.3275 29.2896 10.3275 29.4676 10.3275C30.892 10.3275 31.7823 11.4849 32.4055 12.9094C33.0286 14.3339 33.2957 16.0254 33.3848 17.0938C33.4738 18.1622 33.5628 19.3196 33.5628 20.3879C33.5628 22.7917 33.2957 25.1955 32.8506 27.5103C32.2274 30.9825 31.2481 34.4547 29.8237 37.6598C29.1115 39.2623 28.3103 40.7758 27.242 42.1113C26.2627 43.3577 25.0163 44.7822 23.3248 44.8712C23.2358 44.8712 23.2358 44.8712 23.1468 44.8712C22.6126 44.8712 21.9004 44.4261 21.3662 43.8029ZM20.387 41.6661C20.654 42.3784 21.0101 43.1796 21.5443 43.7138C22.0784 44.337 22.7016 44.7822 23.5029 44.7822C23.5919 44.7822 23.5919 44.7822 23.6809 44.7822C25.2834 44.6932 26.5297 43.2687 27.509 42.1113C28.5773 40.7758 29.3786 39.1733 30.0908 37.6598C31.5152 34.4547 32.4945 30.9825 33.1177 27.5103C33.5628 25.1955 33.8299 22.7917 33.8299 20.3879C33.8299 19.3196 33.7409 18.1622 33.6518 17.0938C33.5628 16.0254 33.2957 14.3339 32.6725 12.9984C32.0494 11.5739 31.1591 10.5056 29.8237 10.5056C29.6457 10.5056 29.3786 10.5056 29.1115 10.5946C27.6871 10.9507 26.5297 12.2862 25.7285 13.3545C24.7492 14.69 23.948 16.1145 23.3248 17.628C21.0101 22.8808 19.6747 28.8458 19.6747 34.7218C19.6747 35.434 19.6747 36.0572 19.7638 36.7695H19.6747H19.7638C19.5857 38.372 19.7638 40.0636 20.387 41.6661ZM17.4491 41.9332C18.8735 42.7345 20.476 43.0906 22.0784 43.0906C23.948 43.0906 25.8175 42.6455 27.509 41.8442C33.8299 38.9952 38.5483 32.496 39.7946 25.6407C39.9727 24.4833 40.1507 23.3259 40.1507 22.2576C40.1507 19.8537 39.6166 17.4499 38.4592 15.4022C36.6787 12.3752 33.5628 10.7727 30.1798 10.7727C30.0018 10.7727 29.8237 10.7727 29.6457 10.7727C22.6126 11.1288 16.7369 17.1828 13.9771 23.3259C12.8197 25.9078 12.1075 28.7568 12.1075 31.5167C12.1075 32.0509 12.1075 32.6741 12.1966 33.2083H12.2856C12.1966 32.6741 12.1966 32.1399 12.1966 31.5167C12.1966 28.6677 12.9088 25.9078 13.9771 23.3259C16.6479 17.1828 22.5236 11.2178 29.5566 10.8617C29.7347 10.8617 29.9127 10.8617 30.0908 10.8617C33.4738 10.8617 36.5897 12.4642 38.2812 15.4913C39.5275 17.5389 39.9727 19.9428 39.9727 22.2576C39.9727 23.4149 39.8837 24.5723 39.6166 25.6407C38.3702 32.407 33.6518 38.9952 27.42 41.7552C25.7285 42.4674 23.859 43.0016 21.9894 43.0016C20.387 43.0016 18.7845 42.6455 17.3601 41.8442C14.2442 40.1526 12.5527 36.6804 12.1966 33.2083H12.1075C12.6417 36.6804 14.3332 40.1526 17.4491 41.9332ZM25.9066 41.8442C18.6064 41.5771 11.3063 36.5914 10.416 28.7568C10.327 28.3116 10.327 27.7774 10.327 27.3323C10.327 23.593 11.8405 20.0318 14.2442 17.1828C17.8052 13.1765 23.0577 11.0397 28.2212 11.0397C30.5359 11.0397 32.8506 11.4849 34.9872 12.3752C38.4592 13.7997 41.4861 16.4706 43.0886 19.9428C43.8898 21.7234 44.3349 23.7711 44.3349 25.7297C44.3349 27.2432 44.0679 28.8458 43.6227 30.2703C41.219 37.3927 33.8299 41.8442 26.4407 41.8442C26.2627 41.8442 26.0846 41.8442 25.9066 41.8442ZM25.9066 41.6661C26.0846 41.6661 26.2627 41.6661 26.4407 41.6661C33.7409 41.6661 41.13 37.2146 43.5337 30.0922C44.0679 28.6677 44.2459 27.0652 44.2459 25.5517C44.2459 23.593 43.8008 21.6343 42.9996 19.8537C41.3971 16.3816 38.4592 13.7997 34.9872 12.3752C32.8506 11.4849 30.5359 11.1288 28.3103 11.1288C23.1468 11.1288 17.8942 13.2655 14.4222 17.2719C11.9295 20.0318 10.5051 23.593 10.5051 27.3323C10.5051 27.7774 10.5051 28.3116 10.5941 28.7568H10.5051H10.5941C11.3953 36.5024 18.6064 41.4881 25.9066 41.6661ZM26.1736 41.31C19.4077 38.8172 13.8881 32.2289 13.1758 24.8394C13.1758 24.3943 13.0868 23.9491 13.0868 23.504C13.0868 19.0525 15.1344 14.779 19.1406 12.5533C21.1882 11.3959 23.4138 10.8617 25.6395 10.8617C30.2688 10.8617 35.0762 13.0874 38.3702 16.2925C42.0203 19.6757 44.602 24.8394 44.602 29.9141C44.602 31.8728 44.2459 33.8315 43.3557 35.7011C41.9312 38.6391 39.3495 40.8649 36.3226 41.8442C34.9872 42.2893 33.5628 42.4674 32.1384 42.4674C30.0908 42.3784 28.1322 42.0223 26.1736 41.31ZM26.2627 41.221C28.1322 41.9332 30.0908 42.2893 32.1384 42.2893C33.5628 42.2893 34.9872 42.1113 36.3226 41.6661C39.3495 40.6868 41.9312 38.461 43.3557 35.6121C44.2459 33.7424 44.602 31.8728 44.602 29.9141C44.602 24.8394 42.0203 19.8537 38.3702 16.3816C34.9872 13.1765 30.3579 11.0397 25.6395 11.0397C23.4138 11.0397 21.2772 11.5739 19.2296 12.6423C15.3125 14.868 13.2649 19.1415 13.2649 23.504C13.2649 23.9491 13.2649 24.3943 13.3539 24.8394C13.9771 32.1399 19.4967 38.6391 26.2627 41.221ZM13.2649 24.8394H13.3539H13.2649ZM33.2067 44.248C33.1177 44.248 32.9396 44.248 32.8506 44.248C31.0701 44.159 29.3786 43.1796 28.0432 42.0223C25.1944 39.7075 23.1468 36.4134 21.6333 33.0302C20.1199 29.6471 19.2296 25.9078 18.9625 22.1685H19.0516H18.9625C18.9625 21.7234 18.9625 21.1892 18.9625 20.744C18.9625 17.806 19.4967 14.601 21.3662 12.3752C22.5236 11.0397 23.859 10.5056 25.2834 10.5056C27.1529 10.5056 29.0225 11.3959 30.5359 12.6423C33.2067 14.868 35.1653 17.8951 36.6787 21.0111C38.1031 24.2162 39.1714 27.5994 39.5275 31.0715C39.6166 31.9618 39.7056 32.9412 39.7056 33.9205C39.7056 36.6804 39.2605 39.4404 37.658 41.6661C36.5897 43.2687 34.9872 44.248 33.2067 44.248ZM21.7223 32.9412C23.1468 36.3243 25.1944 39.5294 28.0432 41.9332C29.3786 43.0906 31.0701 43.9809 32.8506 44.07C32.9396 44.07 33.1177 44.07 33.2067 44.07C34.9872 44.07 36.5007 43.0906 37.4799 41.6661C38.9934 39.5294 39.4385 36.6804 39.4385 34.0095C39.4385 33.0302 39.3495 32.0509 39.2605 31.1606C38.9044 27.6884 37.9251 24.3052 36.5007 21.1002C35.0762 17.9841 33.1177 14.9571 30.4469 12.7313C28.9335 11.5739 27.0639 10.6836 25.2834 10.6836C23.859 10.6836 22.5236 11.2178 21.4553 12.4642C19.5857 14.69 19.0516 17.806 19.0516 20.744C19.0516 21.2782 19.0516 21.7234 19.0516 22.1685C19.2296 25.9078 20.2089 29.558 21.7223 32.9412ZM28.9335 45.0493C28.7554 45.0493 28.6664 44.8712 28.5773 44.6932C28.4883 44.5151 28.3993 44.337 28.3993 44.248C28.1322 43.5358 28.0432 42.8235 27.8651 42.1113C27.242 38.6391 26.8859 35.1669 26.7078 31.6948C26.4407 28.0445 26.2627 24.4833 26.2627 20.8331C26.2627 20.2989 26.2627 19.6757 26.2627 19.1415C26.2627 17.1828 26.3517 15.1351 26.5297 13.1765C26.5297 12.9984 26.6188 12.3752 26.6188 11.752C26.7078 11.1288 26.7968 10.5056 27.0639 10.2385C27.1529 10.1494 27.242 10.1494 27.331 10.1494C27.509 10.1494 27.6871 10.3275 27.7761 10.5946C27.8651 10.8617 27.9542 11.1288 28.0432 11.4849C28.2212 12.1081 28.3103 12.8203 28.3103 13.0874C29.2896 18.0731 29.5566 23.3259 29.8237 28.4006C29.9127 30.8045 30.0018 33.2083 30.0018 35.5231C30.0018 36.6804 30.0018 37.8378 29.9127 38.9952C29.8237 40.6868 29.8237 42.3784 29.4676 44.07C29.4676 44.248 29.3786 44.6932 29.2005 44.9603C29.1115 44.9603 29.0225 45.0493 28.9335 45.0493ZM26.7078 32.0509C26.9749 35.5231 27.242 39.0843 27.9542 42.5564C28.1322 43.2687 28.2212 43.9809 28.4883 44.6932C28.4883 44.7822 28.5773 44.9603 28.6664 45.1383C28.7554 45.3164 28.8444 45.4054 28.9335 45.4054C29.0225 45.4054 29.0225 45.4054 29.1115 45.3164C29.2005 45.2273 29.2005 45.1383 29.2896 45.0493C29.3786 44.7822 29.3786 44.6041 29.4676 44.4261C29.8237 42.8235 29.8237 41.0429 29.9127 39.3514C29.9127 38.194 30.0018 37.0366 30.0018 35.7901C30.0018 33.3863 29.9127 30.9825 29.8237 28.5787C29.5566 23.4149 29.2896 18.2512 28.3103 13.1765C28.2212 12.8203 28.0432 11.3959 27.6871 10.6836C27.5981 10.4165 27.42 10.3275 27.331 10.3275C27.242 10.3275 27.242 10.3275 27.1529 10.4165C27.0639 10.5056 27.0639 10.5946 26.9749 10.6836C26.8859 10.9507 26.7968 11.3068 26.7078 11.663C26.6188 12.3752 26.5297 13.1765 26.5297 13.3545C26.3517 15.3132 26.2627 17.3609 26.2627 19.3196C26.2627 19.8537 26.2627 20.4769 26.2627 20.4769L26.1736 21.1892H26.2627C26.3517 24.7504 26.4407 28.4006 26.7078 32.0509ZM20.565 37.0366C22.8797 37.5707 25.2834 37.8378 27.6871 37.8378C28.8444 37.8378 30.0908 37.7488 31.2481 37.6598C34.7201 37.3037 38.2812 36.5024 41.3081 34.6328C42.8215 33.7425 44.3349 32.407 44.8691 30.6264C44.9581 30.2703 45.0472 29.8251 45.0472 29.469C45.0472 28.0445 44.2459 26.7091 43.2666 25.7297C40.7739 23.2369 37.0348 22.1685 33.6518 21.6343V21.7234C36.9458 22.3466 40.6849 23.4149 43.1776 25.8188C44.1569 26.7981 44.9581 28.1335 44.9581 29.469C44.9581 29.8251 44.8691 30.1812 44.7801 30.6264C44.2459 32.318 42.7325 33.6534 41.3081 34.5437C38.3702 36.4134 34.7201 37.2146 31.3372 37.5707C30.1798 37.6598 28.9335 37.7488 27.7761 37.7488C25.3724 37.7488 22.9687 37.4817 20.654 37.0366C17.5381 36.3243 14.0661 35.1669 11.9295 32.6741C11.1283 31.7838 10.5941 30.6264 10.5941 29.469C10.5941 29.0238 10.6831 28.5787 10.8612 28.1335C11.3953 26.531 12.7307 25.3736 14.1551 24.4833C17.004 22.7027 20.387 21.9014 23.6809 21.4563C25.1053 21.2782 26.4407 21.1892 27.8651 21.1892C29.8237 21.1892 31.7823 21.3672 33.7409 21.7234V21.6343C31.7823 21.2782 29.8237 21.1002 27.8651 21.1002C26.4407 21.1002 25.1053 21.1892 23.6809 21.3672C20.387 21.7234 17.004 22.6137 14.1551 24.3943C12.7307 25.2846 11.3953 26.442 10.8612 28.0445C10.6831 28.4897 10.5941 28.9348 10.5941 29.38C10.5941 30.6264 11.1283 31.7838 11.9295 32.6741C13.9771 35.1669 17.4491 36.3243 20.565 37.0366ZM24.7492 45.1383C21.7223 44.6932 18.1613 43.5358 16.3808 40.7758C15.8466 39.9746 15.5796 39.1733 15.5796 38.372C15.5796 35.9682 17.7162 33.9205 19.9418 32.8521C22.2565 31.6948 24.9273 31.1606 27.5981 31.1606C29.1115 31.1606 30.6249 31.3386 32.0494 31.6948C34.8092 32.318 38.2812 33.7425 39.5275 36.6804C39.7946 37.2146 39.8836 37.7488 39.8836 38.283C39.8836 40.7758 37.658 42.7345 35.5214 43.7138C33.2067 44.8712 30.5359 45.4054 27.8651 45.4054C26.7968 45.3164 25.7285 45.3164 24.7492 45.1383ZM20.0309 32.9412C17.8052 34.0095 15.7576 36.0572 15.7576 38.372C15.7576 39.1733 15.9357 39.8855 16.4698 40.6868C18.1613 43.3577 21.8114 44.6041 24.7492 45.0493C25.7285 45.2273 26.7968 45.2273 27.7761 45.2273C30.3579 45.2273 33.0286 44.6932 35.3433 43.6248C37.4799 42.6455 39.6166 40.6868 39.6166 38.283C39.6166 37.7488 39.5275 37.2146 39.2605 36.6804C38.2812 33.8315 34.8092 32.407 32.0494 31.7838C30.6249 31.4277 29.1115 31.2496 27.5981 31.2496C25.0163 31.2496 22.3455 31.7838 20.0309 32.9412ZM21.0992 41.8442C18.1613 41.132 15.0454 39.7965 13.0868 37.3037C12.3746 36.3243 11.9295 35.256 11.9295 34.0986C11.9295 33.6534 12.0185 33.2973 12.1075 32.8521C12.5527 31.2496 13.799 30.0032 15.0454 29.0238C17.5381 27.2432 20.7431 26.3529 23.6809 25.9078C25.0163 25.7297 26.3517 25.6407 27.6871 25.6407C29.5566 25.6407 31.3372 25.8188 33.1177 26.1749C36.2336 26.7981 39.7056 27.9555 41.8422 30.4483C42.7325 31.5167 43.3557 32.7631 43.3557 34.0986C43.3557 34.4547 43.3557 34.8108 43.2666 35.1669C42.9105 36.7695 41.6642 38.1049 40.4178 39.0843C37.747 41.0429 34.275 42.0223 30.981 42.3784C29.8237 42.4674 28.7554 42.5564 27.5981 42.5564C25.4614 42.6455 23.2358 42.3784 21.0992 41.8442ZM23.7699 26.0858C20.7431 26.531 17.6271 27.4213 15.1344 29.2019C13.8881 30.0922 12.6417 31.3386 12.1966 32.9412C12.1075 33.3863 12.0185 33.7425 12.0185 34.1876C12.0185 35.345 12.4636 36.4134 13.1758 37.3037C15.0454 39.7965 18.1613 41.0429 21.0992 41.7552C23.2358 42.2893 25.4614 42.5564 27.6871 42.5564C28.8444 42.5564 30.0018 42.4674 31.0701 42.3784C34.364 42.0223 37.747 41.0429 40.4178 39.0843C41.7532 38.1049 42.9105 36.8585 43.2666 35.256C43.3557 34.8998 43.3557 34.5437 43.3557 34.2766C43.3557 32.9412 42.7325 31.6948 41.8422 30.6264C39.7056 28.2226 36.2336 26.9762 33.1177 26.3529C31.3372 25.9968 29.4676 25.8188 27.6871 25.8188C26.4407 25.8188 25.1053 25.9078 23.7699 26.0858ZM20.7431 30.4483C17.8052 29.9142 14.4222 28.9348 12.1966 26.7091C11.3953 25.9078 10.8612 24.9285 10.8612 23.7711C10.8612 23.3259 10.9502 22.7917 11.2173 22.3466C11.9295 20.9221 13.3539 19.9428 14.7783 19.2305C17.6271 17.806 20.9211 17.0938 24.037 16.8267C25.2834 16.7377 26.6188 16.6486 27.8651 16.6486C29.8237 16.6486 31.6933 16.8267 33.6518 17.0938C36.8568 17.628 40.4178 18.4293 42.9996 20.655C43.9788 21.5453 44.7801 22.7027 44.7801 23.9491C44.7801 24.3943 44.6911 24.7504 44.513 25.1955C43.8008 26.7091 42.2874 27.7774 40.8629 28.4897C37.8361 30.0922 34.364 30.7154 30.981 30.9825C29.9127 31.0715 28.8444 31.0715 27.7761 31.0715C25.3724 31.1606 22.9687 30.8935 20.7431 30.4483ZM23.948 17.0048C20.8321 17.2719 17.5381 17.9841 14.6893 19.4086C13.3539 20.1208 11.9295 21.1002 11.2173 22.4356C10.9502 22.8808 10.8612 23.4149 10.8612 23.8601C10.8612 24.9285 11.3953 25.9078 12.1966 26.7091C14.4222 28.8458 17.7162 29.8251 20.654 30.4483C22.9687 30.8935 25.2834 31.0715 27.5981 31.0715C28.6664 31.0715 29.7347 30.9825 30.803 30.9825C34.186 30.7154 37.658 30.0922 40.5959 28.4897C42.0203 27.7774 43.5337 26.7091 44.1569 25.2846C44.3349 24.8394 44.424 24.4833 44.424 24.0382C44.424 22.7917 43.6227 21.6343 42.6435 20.8331C40.1507 18.6963 36.5897 17.806 33.3848 17.3609C31.5152 17.0938 29.5566 16.9157 27.5981 16.9157C26.4407 16.8267 25.1944 16.8267 23.948 17.0048ZM33.4738 17.2719V17.1828V17.2719ZM25.1944 22.7027C21.9894 22.5246 18.4284 21.9905 15.6686 20.2099C14.6893 19.5866 13.9771 18.6963 13.9771 17.628C13.9771 17.0938 14.1551 16.5596 14.6893 16.0254C16.0247 14.601 18.0723 13.9777 19.8528 13.5326C22.3455 12.9094 24.9273 12.6423 27.5981 12.6423C29.2896 12.6423 30.981 12.7313 32.5835 12.9984V13.0874C30.981 12.8203 29.2896 12.7313 27.5981 12.7313C25.0163 12.7313 22.4346 12.9984 19.9418 13.6216C18.1613 14.0668 16.1137 14.69 14.7783 16.1145C14.3332 16.6486 14.0661 17.1828 14.0661 17.628C14.0661 18.6073 14.7783 19.4976 15.7576 20.0318C18.5174 21.7234 22.0784 22.2576 25.1944 22.5246C26.0846 22.6137 26.9749 22.6137 27.8651 22.6137C30.4469 22.6137 33.0286 22.3466 35.5214 21.7234C36.3226 21.5453 37.8361 21.1002 39.0824 20.3879C40.3288 19.6757 41.3971 18.7854 41.3971 17.717C41.3971 17.3609 41.3081 16.9157 40.952 16.4706C40.1507 15.2242 38.5483 14.601 37.2129 14.0668C35.6994 13.5326 34.097 13.1765 32.4945 12.9984V12.9094C34.097 13.1765 35.6994 13.4436 37.2129 13.9777C38.5483 14.4229 40.1507 15.1351 41.041 16.3816C41.3081 16.8267 41.4861 17.2719 41.4861 17.628C41.4861 18.7854 40.3288 19.6757 39.0824 20.3879C37.747 21.1002 36.3226 21.5453 35.5214 21.7234C33.0286 22.3466 30.4469 22.6137 27.8651 22.6137C26.9749 22.7917 26.0846 22.7917 25.1944 22.7027ZM31.3372 11.841C31.5152 11.841 31.6042 11.93 31.6933 11.93C31.7823 11.93 31.9603 11.93 32.0494 12.0191C31.9603 12.1971 31.7823 11.93 31.6933 12.0191C31.6933 12.1081 31.8713 12.0191 31.8713 12.1971C31.9603 12.1971 32.0494 12.1081 32.2274 12.1081C32.2274 12.1971 32.3164 12.1971 32.3164 12.2862C32.3164 12.4642 32.1384 12.4642 32.0494 12.6423C32.0494 12.8203 32.2274 12.8203 32.1384 13.0874C32.0494 13.1765 31.8713 13.1765 31.7823 13.2655C31.8713 13.4436 31.9603 13.5326 32.0494 13.6216C32.0494 14.0668 32.3164 14.0668 32.4055 14.4229C32.2274 14.5119 32.0494 14.3339 31.8713 14.3339C31.6933 14.3339 31.7823 14.4229 31.6042 14.4229C31.4262 14.3339 31.2481 14.2448 31.1591 14.2448L31.0701 14.1558C31.0701 14.1558 30.9811 14.0668 30.892 14.0668C30.803 14.0668 30.714 13.8887 30.6249 13.8887C30.5359 13.7997 30.3579 13.8887 30.3579 13.7107C30.1798 13.6216 30.0018 13.6216 30.0018 13.4436C30.0018 13.3545 29.8237 13.4436 29.8237 13.3545C29.8237 13.2655 29.8237 13.2655 29.8237 13.1765C29.8237 13.0874 29.9127 13.0874 30.0018 13.0874C30.0018 12.9984 29.9127 12.9094 29.8237 12.8203C29.6457 12.8203 29.8237 12.9094 29.7347 12.9094C29.5566 12.9094 29.3786 12.9094 29.4676 12.7313C29.6457 12.7313 29.6457 12.8203 29.8237 12.7313C29.6457 12.4642 29.3786 12.4642 29.2005 12.5533C29.2005 12.5533 29.1115 12.4642 29.1115 12.3752H29.0225V12.2862H28.9335C28.9335 12.2862 28.8444 12.1081 28.7554 12.1081C28.6664 12.1081 28.6664 12.1081 28.5773 12.1081L28.4883 12.0191C28.2212 11.93 28.0432 11.93 27.6871 12.0191C27.5981 11.93 27.509 11.93 27.509 11.752C27.42 11.752 27.42 11.752 27.331 11.752C27.42 11.663 27.5981 11.5739 27.7761 11.5739C27.8651 11.3959 27.5981 11.5739 27.6871 11.3959C27.8651 11.3068 27.8651 11.2178 28.1322 11.2178C28.1322 11.1288 28.2212 11.2178 28.3103 11.1288V11.0397C28.3993 11.0397 28.4883 11.0397 28.4883 10.9507C28.7554 10.9507 29.0225 10.9507 29.2005 10.9507C29.2896 10.9507 29.2896 10.9507 29.3786 10.9507C29.4676 10.9507 29.4676 10.8617 29.5566 10.8617C29.7347 10.9507 29.9127 11.0397 30.0908 11.1288H30.1798C30.2688 11.1288 30.2688 11.1288 30.3579 11.1288C30.3579 11.1288 30.3579 11.1288 30.4469 11.2178C30.5359 11.2178 30.892 11.2178 30.714 11.3068C30.892 11.3068 31.0701 11.3959 31.1591 11.3959C31.1591 11.3959 31.1591 11.3959 31.2481 11.4849H31.3372L31.4262 11.5739C31.4262 11.5739 31.5152 11.663 31.6042 11.5739C31.3372 11.841 31.3372 11.841 31.3372 11.841ZM25.2834 11.663C25.3724 11.663 25.4614 11.752 25.5505 11.5739C25.4614 11.5739 25.4614 11.4849 25.3724 11.4849C25.3724 11.5739 25.3724 11.663 25.2834 11.663ZM24.3931 11.752C24.2151 11.752 24.126 11.841 23.948 11.841C23.948 11.93 23.859 11.841 23.7699 11.93C24.126 11.841 24.2151 11.93 24.3931 11.752ZM24.8383 11.663H24.7492C24.4822 11.663 24.8383 11.841 24.8383 11.663ZM25.6395 11.752C25.7285 11.752 25.7285 11.752 25.8175 11.663C25.7285 11.663 25.6395 11.663 25.6395 11.752ZM23.948 11.93C23.859 12.1081 24.126 11.93 24.126 12.1081C24.126 12.1081 24.037 12.1081 24.037 12.1971C24.3041 12.1971 24.6602 12.2862 24.7492 12.0191C24.6602 12.0191 24.6602 12.0191 24.6602 11.93C24.4822 11.93 24.5712 12.1081 24.3041 12.1081C24.3041 12.0191 24.3041 11.93 24.126 11.93C24.126 11.93 24.037 11.93 23.948 11.93ZM26.1736 12.1081C26.1736 12.0191 26.0846 12.1081 25.9956 12.1081C25.9956 12.0191 25.9066 12.0191 25.9066 11.93C25.7285 12.0191 25.5505 11.752 25.4614 11.93C25.4614 12.0191 25.6395 11.93 25.7285 12.0191C25.6395 12.1081 25.6395 12.1081 25.7285 12.1971C25.9066 12.1971 26.0846 12.2862 26.2627 12.1971C26.4407 12.1971 26.3517 12.1971 26.4407 12.1971C26.5298 12.1971 26.6188 12.1971 26.7078 12.1081C26.7078 11.93 26.2627 12.0191 26.1736 12.1081ZM25.1053 12.1081C25.2834 12.1081 25.3724 12.0191 25.3724 11.841C25.1944 11.841 25.1053 11.93 24.9273 11.841C24.9273 12.1081 25.1053 12.0191 25.1053 12.1081ZM25.3724 12.1971C25.4614 12.2862 25.6395 12.1971 25.6395 12.1081C25.4614 12.1081 25.3724 12.1081 25.3724 12.1971ZM24.8383 12.3752H24.7492V12.4642C24.6602 12.4642 24.5712 12.4642 24.5712 12.5533C24.6602 12.5533 24.6602 12.6423 24.7492 12.7313C24.9273 12.7313 25.0163 12.6423 25.1053 12.6423C25.0163 12.4642 25.1053 12.5533 25.1053 12.3752C24.9273 12.2862 24.8383 12.2862 24.8383 12.3752ZM33.4738 12.8203C33.3848 12.8203 33.2957 12.7313 33.2067 12.7313C33.1177 12.9094 33.2957 12.9094 33.4738 12.8203C33.5628 12.9984 33.6518 12.9984 33.8299 12.9984C33.8299 12.9984 33.8299 13.0874 33.9189 13.0874C34.0079 13.0874 34.186 13.0874 34.275 13.0874C34.4531 12.7313 34.0079 12.4642 33.7409 12.4642C33.5628 12.7313 33.4738 12.7313 33.4738 12.8203ZM26.8859 13.3545C26.8859 13.4436 26.8859 13.4436 26.8859 13.5326C27.0639 13.5326 27.1529 13.5326 27.0639 13.3545C27.0639 13.2655 26.9749 13.2655 26.8859 13.3545ZM25.4614 14.2448C25.6395 14.1558 25.6395 14.3339 25.7285 14.3339C25.8175 14.2448 25.8175 14.1558 25.9956 14.1558C26.1736 14.1558 26.1736 14.3339 26.3517 14.2448C26.3517 14.1558 26.2627 14.1558 26.1736 14.1558C26.1736 14.0668 26.0846 13.9777 25.9956 13.9777C25.9066 13.9777 25.9956 13.9777 25.9066 13.8887C25.9066 13.8887 25.8175 13.8887 25.7285 13.8887C25.6395 13.8887 25.6395 13.7107 25.5505 13.7997C25.6395 13.8887 25.5505 14.0668 25.4614 14.2448ZM17.3601 14.1558C17.4491 14.1558 17.5381 14.0668 17.6271 13.9777C17.4491 14.0668 17.271 13.9777 17.3601 14.1558ZM25.8175 14.5119C25.9066 14.5119 26.0846 14.5119 26.0846 14.3339C25.9066 14.4229 25.8175 14.4229 25.8175 14.5119ZM26.4407 14.69H26.5297V14.601H26.4407C26.4407 14.601 26.4407 14.601 26.4407 14.69ZM17.6271 16.0254C17.7162 16.0254 17.7162 15.9364 17.7162 15.8474C17.7162 15.7583 17.8052 15.7583 17.8052 15.6693C17.6271 15.6693 17.7162 15.9364 17.6271 16.0254ZM26.0846 16.9157C26.0846 16.9157 25.9066 16.8267 25.9066 16.9157C25.9956 16.8267 26.0846 17.0048 26.0846 16.9157ZM31.1591 17.4499C31.1591 17.539 31.1591 17.717 31.1591 17.8951C31.1591 17.9841 31.0701 17.9841 31.0701 18.0731C31.2481 18.0731 31.5152 18.0731 31.6933 18.0731C31.7823 18.0731 31.9603 17.9841 32.0494 18.0731C32.0494 18.1622 31.9603 18.1622 31.9603 18.2512C32.0494 18.2512 32.1384 18.1622 32.0494 18.0731C32.1384 18.0731 32.2274 17.9841 32.2274 17.806C32.2274 17.717 32.2274 17.717 32.2274 17.628C32.0494 17.628 32.0494 17.5389 32.0494 17.3609H31.9603C31.7823 17.3609 31.8713 17.4499 31.6933 17.4499C31.6042 17.3609 31.5152 17.4499 31.5152 17.3609C31.4262 17.3609 31.2481 17.4499 31.2481 17.3609C31.3372 17.2719 31.3372 17.1828 31.3372 17.0048C31.2481 17.0048 31.2481 17.0048 31.1591 17.0048C31.2481 17.0938 31.2481 17.1828 31.1591 17.4499ZM30.3579 17.717C30.2688 17.717 30.0018 17.5389 29.8237 17.628C30.0018 17.628 30.1798 17.806 30.3579 17.717ZM32.3164 17.9841C32.3164 18.0731 32.4945 18.1622 32.5835 18.0731C32.5835 17.8951 32.4945 17.806 32.3164 17.806C32.4055 17.9841 32.3164 17.9841 32.3164 17.9841ZM27.5981 27.5103C27.5981 27.3323 27.42 27.4213 27.242 27.3323C27.242 27.3323 27.242 27.3323 27.1529 27.3323H27.0639L26.9749 27.2432C26.9749 27.2432 26.9749 27.2432 26.8859 27.2432C26.7968 27.2432 26.8859 27.2432 26.7968 27.1542C26.7968 27.1542 26.7078 27.1542 26.6188 27.1542V27.0652C26.5297 26.9762 26.4407 27.0652 26.4407 26.9762C26.2627 26.9762 26.2627 26.8871 26.0846 26.9762C26.0846 26.8871 25.9066 26.8871 25.9066 26.7981C25.7285 26.7981 25.5505 26.7981 25.3724 26.7091C25.1944 26.7091 25.1944 26.62 25.1053 26.7091H24.8383C24.8383 26.7091 24.8383 26.7091 24.8383 26.7981C24.7492 26.7981 24.7492 26.8871 24.5712 26.8871C24.5712 26.9762 24.3931 27.0652 24.4822 27.1542C24.5712 27.0652 24.6602 27.1542 24.8383 27.0652L24.9273 26.9762C25.0163 26.8871 25.1944 26.8871 25.3724 26.8871C25.4614 26.9762 25.3724 26.9762 25.3724 27.0652C25.6395 27.0652 25.9066 27.1542 26.0846 27.3323C26.1736 27.3323 26.2627 27.3323 26.3517 27.3323C26.3517 27.5103 26.5297 27.5103 26.5297 27.6884C26.7078 27.7774 26.7968 27.5994 26.8859 27.7774C26.8859 27.8665 26.7078 27.8665 26.7078 27.9555C26.8859 27.9555 27.0639 27.8665 27.242 27.8665C27.331 27.8665 27.509 27.9555 27.509 27.8665C27.5981 27.7774 27.7761 27.8665 27.8651 27.6884C27.9542 27.5103 27.8651 27.4213 27.5981 27.5103ZM25.1944 27.1542C25.1944 27.1542 25.1053 27.0652 25.0163 27.1542C25.0163 27.2432 25.2834 27.2432 25.1944 27.1542ZM28.5773 27.8665C28.5773 27.8665 28.5773 27.9555 28.5773 28.0445C28.5773 28.1335 28.6664 28.1335 28.7554 28.2226C28.5773 28.4006 28.1322 28.1335 28.0432 28.3116C28.2212 28.4897 28.5773 28.3116 28.9335 28.3116C29.0225 28.3116 29.0225 28.4897 29.2005 28.4897C29.2005 28.4006 29.2896 28.3116 29.3786 28.2226C29.5566 28.2226 29.5566 28.3116 29.5566 28.2226L29.7347 28.1335C29.9127 28.1335 30.0908 28.1335 30.1798 28.1335C30.1798 27.9555 30.0018 27.9555 29.8237 27.9555C29.6457 27.7774 29.5566 27.6884 29.2896 27.6884C29.1115 27.6884 29.0225 27.7774 28.8444 27.7774C28.6664 27.7774 28.5773 27.6884 28.3993 27.7774C28.3993 27.8665 28.5773 27.7774 28.5773 27.8665ZM30.6249 28.3116C30.803 28.3116 31.0701 28.4006 31.0701 28.1335C30.892 28.1335 30.803 28.0445 30.6249 28.1335C30.6249 28.1335 30.6249 28.2226 30.6249 28.3116ZM27.242 28.4897C27.331 28.4897 27.42 28.4897 27.42 28.4006C27.242 28.3116 27.0639 28.2226 26.7968 28.3116C26.7968 28.6677 27.0639 28.5787 27.242 28.4897ZM32.8506 31.3386C32.8506 31.2496 33.0286 31.3386 32.9396 31.1606C32.8506 31.1606 32.8506 31.0715 32.8506 30.9825C32.7616 30.9825 32.7616 30.9825 32.6725 30.9825C32.7616 31.2496 32.6725 31.3386 32.8506 31.3386ZM34.8982 12.1971H34.9872C34.9872 12.1971 34.9872 12.1971 34.9872 12.2862H35.0762C35.1653 12.2862 35.1653 12.4642 35.2543 12.4642H35.3433C35.4324 12.5533 35.4324 12.6423 35.5214 12.7313C35.5214 12.7313 35.6104 12.7313 35.6994 12.7313C35.7885 12.8203 35.8775 12.8203 35.9665 12.8203H36.0555C36.1446 12.8203 36.2336 12.9094 36.2336 12.9094C36.2336 12.9094 36.2336 12.9094 36.3226 12.9984C36.4116 13.0874 36.5897 13.1765 36.6787 13.1765C36.6787 12.9984 36.4116 12.9984 36.5007 12.9094C36.5007 12.9984 36.7677 13.0874 36.7677 12.9984C36.5897 12.9094 36.4116 12.8203 36.3226 12.7313C36.1446 12.6423 35.9665 12.5533 35.8775 12.4642H35.7885L35.6994 12.3752C35.6104 12.3752 35.6104 12.3752 35.5214 12.3752C35.4324 12.3752 35.3433 12.2862 35.2543 12.2862C35.1653 12.2862 35.1653 12.2862 35.0762 12.2862L34.9872 12.1971C34.8982 12.1971 34.7201 12.1081 34.7201 12.1971C34.8092 12.1081 34.8982 12.1971 34.8982 12.1971ZM37.3909 13.5326C37.3019 13.5326 37.2129 13.4436 37.1238 13.4436C37.0348 13.4436 36.9458 13.2655 36.9458 13.3545C37.1238 13.3545 37.3909 13.6216 37.3909 13.5326ZM23.7699 13.3545C23.6809 13.2655 23.5919 13.2655 23.5919 13.0874C23.5029 13.0874 23.5029 13.0874 23.4138 13.0874C23.4138 13.1765 23.3248 13.1765 23.2358 13.1765C23.1468 13.1765 23.2358 13.2655 23.2358 13.2655L23.1468 13.3545C23.0577 13.3545 23.0577 13.2655 22.9687 13.2655C22.7907 13.2655 22.6126 13.2655 22.6126 13.1765C22.6126 13.0874 22.8797 13.1765 22.7907 12.9984C22.5236 12.9984 22.5236 12.9094 22.4346 12.8203C22.2565 12.8203 22.2565 12.8203 22.0784 12.8203C22.0784 12.7313 22.1675 12.7313 22.1675 12.6423C21.8114 12.6423 21.6333 12.6423 21.2772 12.7313C21.3662 12.4642 21.0992 12.0191 21.1882 11.752C20.654 11.752 20.2979 12.0191 19.9418 12.2862C19.8528 12.2862 19.8528 12.1971 19.6747 12.2862C19.6747 12.3752 19.4967 12.3752 19.4077 12.4642C19.3186 12.5533 19.3186 12.5533 19.3186 12.6423C19.3186 12.6423 19.2296 12.7313 19.1406 12.7313C18.9625 12.8203 18.8735 12.8203 18.7845 12.8203L18.6955 12.9094C18.6064 12.9094 18.6064 12.9984 18.5174 12.9984C18.4284 13.0874 18.3394 13.0874 18.2503 13.1765C18.1613 13.1765 18.1613 13.2655 18.0723 13.2655C18.0723 13.4436 17.8942 13.5326 17.7162 13.6216C17.7162 13.7107 17.6271 13.7997 17.6271 13.8887C17.4491 13.8887 17.3601 14.0668 17.271 14.0668C17.093 14.1558 17.004 14.1558 16.8259 14.2448C17.004 14.2448 17.004 14.1558 17.182 14.1558C17.4491 14.0668 17.6271 13.9777 17.8052 13.8887L17.8942 13.7997C17.9833 13.7997 17.9833 13.7107 18.0723 13.7107C18.0723 13.7997 17.9833 13.7997 18.1613 13.7997C18.4284 13.8887 18.5174 13.8887 18.6955 13.8887C18.6064 14.0668 18.6064 14.1558 18.6955 14.2448C18.6955 14.2448 18.6955 14.3339 18.6955 14.4229C18.6955 14.5119 18.6064 14.69 18.6064 14.868C18.4284 14.868 18.5174 15.0461 18.3394 15.1351C18.3394 15.3132 18.3394 15.2242 18.3394 15.4022C18.2503 15.4913 18.0723 15.5803 18.1613 15.7583C18.1613 15.6693 18.2503 15.6693 18.2503 15.7583C18.2503 15.9364 18.1613 16.0254 17.9833 16.1145V16.2035C17.9833 16.2925 18.0723 16.2035 18.0723 16.2035C18.0723 16.2925 18.0723 16.2035 18.0723 16.2925C18.0723 16.3816 18.0723 16.4706 18.0723 16.5596L17.9833 16.6486C17.9833 16.7377 17.9833 16.7377 17.9833 16.8267C17.9833 16.8267 17.9833 16.8267 17.9833 16.9157C17.8942 17.0048 17.9833 17.0048 17.9833 17.0938C17.9833 17.0048 17.8942 17.0048 17.8052 17.0938C17.8052 17.2719 17.7162 17.3609 17.8052 17.539C17.8052 17.717 17.8052 17.9841 17.9833 17.8951C18.1613 17.806 17.8942 17.539 18.0723 17.4499C18.1613 17.628 18.1613 17.8951 17.9833 17.9841C17.8052 17.9841 17.8052 17.8951 17.7162 17.9841C17.6271 18.1622 17.6271 18.3402 17.5381 18.5183C17.5381 18.6073 17.4491 18.6073 17.4491 18.6073C17.4491 18.6073 17.4491 18.6963 17.4491 18.7854C17.3601 18.8744 17.271 18.8744 17.271 18.9634V19.0525C17.271 19.1415 17.182 19.1415 17.093 19.2305C17.004 19.4086 16.9149 19.4976 16.9149 19.5866L16.8259 19.6757C16.8259 19.7647 16.8259 19.7647 16.8259 19.8537C16.8259 19.9428 16.7369 19.9428 16.8259 20.0318C16.6479 20.1208 16.7369 20.2989 16.5588 20.2989C16.5588 20.566 16.4698 20.655 16.4698 20.8331C16.4698 20.9221 16.4698 20.8331 16.5588 20.9221C16.5588 20.9221 16.4698 21.0111 16.5588 21.0111C16.5588 21.1002 16.6479 21.1002 16.6479 21.1892C16.6479 21.2782 16.5588 21.2782 16.5588 21.2782C16.4698 21.3672 16.6479 21.3673 16.5588 21.4563V21.5453C16.5588 21.5453 16.5588 21.5453 16.4698 21.5453V21.6343C16.4698 21.8124 16.5588 21.9905 16.4698 22.2576C16.6479 22.3466 16.7369 22.5246 16.8259 22.7027C16.8259 22.7027 16.8259 22.7027 16.9149 22.7027V22.7917C16.9149 22.7917 16.9149 22.7917 17.004 22.7917C17.093 22.7917 17.004 23.0588 17.004 23.1479C17.004 23.504 17.004 23.8601 17.004 24.2162C17.093 24.3943 17.182 24.5723 17.182 24.8394C17.093 24.9285 17.093 25.0175 16.9149 24.9285C16.9149 25.1065 16.9149 25.0175 17.004 25.1955C17.004 25.2846 17.004 25.1955 17.093 25.1955C17.093 25.1955 17.093 25.2846 17.182 25.3736H17.271C17.271 25.3736 17.3601 25.4626 17.3601 25.5517C17.3601 25.6407 17.3601 25.5517 17.4491 25.6407C17.5381 25.7297 17.5381 25.9078 17.5381 25.9078C17.5381 25.9968 17.4491 26.0858 17.4491 26.1749C17.4491 26.1749 17.4491 26.2639 17.4491 26.3529C17.4491 26.442 17.5381 26.531 17.6271 26.531V26.62C17.6271 26.62 17.6271 26.62 17.7162 26.62V26.7091C17.7162 26.7091 17.7162 26.7091 17.8052 26.7091V26.7981C17.8052 26.7981 17.8052 26.7981 17.8942 26.7981V26.8871C17.8942 26.8871 17.8942 26.8871 17.9833 26.8871C18.0723 26.9762 17.8942 27.1542 18.0723 27.0652C18.1613 26.9762 18.0723 26.7981 18.0723 26.7091C18.0723 26.62 17.8942 26.7091 17.8942 26.531C17.8942 26.442 17.8942 26.2639 17.8942 26.1749C17.8942 25.9968 17.8942 25.9968 17.8942 25.9078C17.8942 25.7297 17.8052 25.6407 17.8052 25.5517C17.8052 25.4626 17.8052 25.3736 17.7162 25.1955C17.7162 25.0175 17.7162 24.7504 17.6271 24.5723C17.6271 24.5723 17.6271 24.5723 17.5381 24.5723C17.5381 24.5723 17.5381 24.5723 17.5381 24.4833C17.5381 24.3943 17.5381 24.4833 17.4491 24.3943C17.3601 24.2162 17.4491 24.1272 17.4491 23.9491C17.4491 23.8601 17.4491 23.682 17.5381 23.682C17.7162 23.682 17.8052 23.8601 17.8052 24.0382C17.8052 24.1272 17.8052 24.0382 17.8052 24.1272C17.7162 24.3052 17.8052 24.5723 17.8052 24.6614C17.8052 24.7504 17.8052 24.7504 17.8052 24.8394L17.8942 24.9285C17.9833 25.1065 17.9833 25.2846 18.0723 25.3736C18.0723 25.5517 18.1613 25.6407 18.1613 25.6407V25.7297C18.1613 25.8188 18.2503 25.8188 18.2503 25.9078C18.2503 26.0859 18.1613 25.9968 18.1613 26.1749C18.2503 26.2639 18.4284 26.3529 18.4284 26.62C18.5174 26.7091 18.6064 26.8871 18.6955 26.9762C18.6955 27.0652 18.7845 27.2432 18.7845 27.2432C18.7845 27.3323 18.7845 27.2432 18.8735 27.3323C18.9625 27.5103 18.9625 27.7774 18.9625 27.9555C18.8735 28.0445 18.9625 28.1335 18.9625 28.2226C18.9625 28.2226 18.7845 28.2226 18.8735 28.3116C18.9625 28.7568 19.3186 28.7568 19.4077 29.1129C19.5857 29.2019 19.6747 29.2909 19.8528 29.2909C19.8528 29.38 20.0309 29.469 20.0309 29.558C20.1199 29.558 20.2089 29.6471 20.2979 29.6471C20.387 29.6471 20.2979 29.6471 20.387 29.6471C20.476 29.7361 20.565 29.7361 20.654 29.7361C20.7431 29.8251 20.8321 29.8251 20.9211 29.9141C21.0101 30.0032 21.0101 30.0032 21.0992 30.0032C21.1882 30.0922 21.3662 30.1812 21.5443 30.1812C21.7223 30.1812 21.9004 30.0032 22.0784 30.0922C22.2565 30.0922 22.3455 30.2703 22.4346 30.3593C22.5236 30.4483 22.6126 30.5374 22.7016 30.6264C22.7016 30.7154 22.9687 30.9825 22.9687 30.9825C23.0577 30.9825 23.2358 31.1606 23.4138 31.0715C23.5029 31.2496 23.859 31.2496 23.948 31.3386C24.126 31.3386 24.2151 31.3386 24.3931 31.3386C24.3931 31.4277 24.3041 31.4277 24.3931 31.5167C24.4822 31.6057 24.5712 31.6948 24.7492 31.6948C24.7492 31.8728 24.9273 31.9618 25.0163 32.0509C25.1053 32.2289 25.1053 32.318 25.0163 32.496C25.1053 32.5851 25.2834 32.6741 25.3724 32.5851C25.4614 32.7631 25.7285 32.7631 25.8175 32.9412C25.8175 33.0302 25.8175 33.0302 25.8175 33.1192C25.9956 33.0302 25.9956 33.2083 26.0846 33.2083V33.1192V33.2083H26.1736C26.2627 33.2083 26.3517 33.2973 26.4407 33.2083C26.5298 33.2973 26.5297 33.3863 26.6188 33.3863C26.7078 33.3863 26.7968 33.4754 26.7968 33.4754C26.7968 33.4754 26.7968 33.5644 26.8859 33.5644C26.9749 33.5644 26.9749 33.4754 27.0639 33.4754C27.242 33.2973 26.9749 33.2973 26.9749 33.1192C27.1529 33.1192 27.242 32.8521 27.42 32.8521C27.509 32.8521 27.5981 32.9412 27.6871 33.0302C27.6871 33.1192 27.6871 33.1192 27.6871 33.2083C27.7761 33.2973 27.7761 33.3863 27.8651 33.4754C27.9542 33.5644 28.0432 33.5644 28.0432 33.7425C28.0432 33.7425 28.0432 33.8315 28.0432 33.9205C28.0432 34.0095 28.1322 34.0095 28.1322 34.0986C28.1322 34.1876 28.1322 34.1876 28.1322 34.2766C28.1322 34.3657 28.2212 34.3657 28.2212 34.4547C28.2212 34.5437 28.2212 34.6328 28.2212 34.7218C28.2212 34.8108 28.3103 34.8108 28.3103 34.8998C28.1322 34.9889 28.1322 35.1669 28.0432 35.256C27.9542 35.256 27.8651 35.256 27.8651 35.345C27.8651 35.434 27.8651 35.5231 27.8651 35.5231C27.8651 35.5231 27.7761 35.5231 27.6871 35.6121C27.6871 35.7011 27.7761 35.7901 27.6871 35.7901C27.5981 35.8792 27.42 35.8792 27.331 35.9682C27.42 36.2353 27.1529 36.4134 27.1529 36.5914C27.1529 36.6804 27.242 36.8585 27.1529 36.9475C27.242 36.9475 27.242 37.0366 27.331 37.0366C27.42 37.0366 27.42 37.0366 27.509 37.1256C27.42 37.3037 27.0639 37.3037 27.0639 37.5707C27.0639 37.7488 27.1529 37.8378 27.242 37.9269C27.242 38.0159 27.1529 38.0159 27.242 38.1049C27.331 38.1049 27.42 38.194 27.5981 38.194C27.5981 38.283 27.6871 38.283 27.7761 38.372C27.7761 38.461 27.7761 38.461 27.8651 38.5501C27.9542 38.6391 28.0432 38.6391 28.0432 38.7281C28.0432 38.8172 28.1322 38.8172 28.1322 38.9062C28.1322 38.9952 28.1322 38.9062 28.2212 38.9062C28.2212 38.9952 28.2212 38.9952 28.3103 39.0843C28.3103 39.0843 28.3993 39.0843 28.3993 39.1733C28.3993 39.1733 28.4883 39.2623 28.4883 39.3514C28.4883 39.4404 28.5773 39.4404 28.5773 39.4404V39.5294C28.5773 39.5294 28.5773 39.5294 28.6664 39.5294V39.6184C28.6664 39.6184 28.7554 39.7075 28.8444 39.7075C28.8444 39.7075 28.9335 39.7965 29.0225 39.7965C29.1115 39.8855 29.1115 39.9746 29.1115 39.9746C29.2005 40.0636 29.2005 40.0636 29.2896 40.0636C29.2896 40.1526 29.2005 40.1526 29.2896 40.2417C29.3786 40.3307 29.4676 40.4197 29.5566 40.4197C29.6457 40.4197 29.6457 40.5087 29.6457 40.5087C29.7347 40.5978 29.9127 40.5978 30.0908 40.6868C30.1798 40.6868 30.2688 40.7758 30.3579 40.7758C30.4469 40.7758 30.3579 40.7758 30.4469 40.7758C30.6249 40.8649 30.714 40.7758 30.892 40.8649C30.892 40.8649 30.892 40.8649 30.892 40.9539H31.0701C31.2481 40.9539 31.1591 41.0429 31.2481 41.132C31.3372 41.132 31.3372 41.132 31.4262 41.132C31.4262 41.132 31.4262 41.132 31.4262 41.221C31.4262 41.221 31.6042 41.221 31.6042 41.31C31.6042 41.4881 31.6933 41.5771 31.6933 41.6661C31.6933 41.7552 31.6042 41.7552 31.6933 41.8442C31.6933 41.9332 31.7823 41.9332 31.6933 42.0223V42.1113C31.6933 42.2003 31.6042 42.3784 31.6042 42.3784C31.6933 42.5564 31.5152 42.6455 31.6042 42.8235C31.5152 42.8235 31.5152 43.0016 31.5152 43.0906C31.5152 43.0906 31.5152 43.0906 31.4262 43.0906V43.1796L31.3372 43.2687C31.3372 43.3577 31.3372 43.4467 31.2481 43.4467C31.2481 43.6248 31.3372 43.6248 31.2481 43.7138C31.2481 43.8029 31.1591 43.7138 31.1591 43.8919C31.1591 44.07 31.2481 43.9809 31.2481 44.159C31.1591 44.159 31.1591 44.337 31.1591 44.337C31.0701 44.4261 30.9811 44.5151 30.892 44.6041C30.803 44.6932 30.803 44.8712 30.6249 44.8712C30.6249 44.9603 30.714 44.9603 30.714 45.1383C30.6249 45.3164 30.5359 45.3164 30.5359 45.4944C30.803 45.5835 30.6249 45.3164 30.892 45.3164C30.803 45.4944 30.714 45.5835 30.4469 45.4944C30.4469 45.6725 30.2688 45.7615 30.2688 45.8506C30.714 45.9396 31.1591 45.9396 31.6933 45.8506C31.6933 45.7615 31.7823 45.8506 31.8713 45.7615C31.7823 45.7615 31.6042 45.8506 31.6042 45.7615C31.7823 45.7615 31.7823 45.7615 31.8713 45.6725C31.8713 45.6725 31.8713 45.6725 31.9603 45.6725C31.9603 45.6725 31.9603 45.6725 31.9603 45.5835C32.0494 45.5835 32.2274 45.5835 32.3164 45.4944C32.2274 45.4944 32.0494 45.5835 32.0494 45.4054C32.2274 45.4054 32.4055 45.3164 32.5835 45.3164C32.5835 45.2273 32.6725 45.2273 32.7616 45.2273C32.8506 45.1383 32.8506 44.9603 32.9396 44.9603C33.1177 44.9603 33.2067 44.9603 33.3848 44.9603C33.3848 44.8712 33.4738 44.8712 33.5628 44.8712C33.6518 44.7822 33.7409 44.6932 33.8299 44.6041C34.186 44.5151 34.5421 44.4261 34.8092 44.337C34.8982 44.248 34.9872 44.159 35.0762 44.159C35.1653 44.07 34.9872 44.07 35.0762 43.8919C35.1653 43.8919 35.1653 43.8029 35.2543 43.8029C35.4324 43.8029 35.7885 43.6248 35.8775 43.5358C35.9665 43.4467 36.1446 43.3577 36.1446 43.3577C36.2336 43.2687 36.2336 43.2687 36.3226 43.1796H36.4116C36.5007 43.0906 36.5007 43.0016 36.5897 42.9126C36.6787 42.8235 36.7677 42.7345 36.8568 42.6455C36.9458 42.6455 36.9458 42.5564 37.0348 42.5564C37.2129 42.2893 37.3909 42.1113 37.658 41.9332C37.658 41.7552 37.747 41.5771 37.8361 41.5771V41.4881C37.8361 41.399 38.0141 41.399 38.0141 41.31L38.1031 41.221C38.1031 41.221 38.1922 41.221 38.1922 41.132C38.2812 41.132 38.2812 40.9539 38.3702 40.9539C38.3702 40.9539 38.4592 40.9539 38.4592 40.8649C38.5483 40.8649 38.5483 40.7758 38.6373 40.7758C38.8153 40.5087 39.0824 40.4197 39.3495 40.3307C39.4385 40.2417 39.5275 40.0636 39.6166 40.0636C39.6166 39.9746 39.6166 39.8855 39.7056 39.7965C39.8836 39.7075 39.8836 39.4404 40.0617 39.3514C40.0617 39.0843 40.1507 38.9062 40.3288 38.8172C40.3288 38.6391 40.4178 38.461 40.5068 38.372C40.5959 38.283 40.5068 38.1049 40.5959 38.0159C40.5959 37.9269 40.6849 37.8378 40.6849 37.6598C40.7739 37.6598 40.7739 37.5707 40.7739 37.4817C40.8629 37.4817 40.8629 37.3927 40.952 37.3037C41.219 36.5024 41.9312 36.2353 41.7532 34.9889C41.5751 34.9889 41.5751 35.0779 41.3971 35.0779C41.219 34.9889 41.041 34.7218 40.7739 34.7218C40.5959 34.8998 40.3288 34.8998 39.9727 34.8998C39.8837 34.9889 39.7946 34.9889 39.7056 35.0779C39.7056 34.8998 39.6166 34.8998 39.6166 34.8108C39.3495 34.8108 39.1714 34.7218 38.9044 34.7218C38.8153 34.8108 38.7263 34.8998 38.6373 34.9889C38.6373 34.8998 38.7263 34.8108 38.6373 34.6328C38.4592 34.6328 38.3702 34.7218 38.2812 34.7218C38.1922 34.7218 38.1031 34.7218 38.1031 34.8108C38.1031 34.8108 37.9251 34.8108 38.0141 34.8108C38.0141 34.7218 38.1031 34.6327 38.1922 34.5437C38.2812 34.4547 38.3702 34.3657 38.2812 34.1876C38.2812 34.0986 38.1031 34.0986 38.1031 34.0095C38.0141 33.9205 38.0141 33.5644 37.9251 33.3863C37.8361 33.3863 37.8361 33.3863 37.747 33.3863C37.658 33.2083 37.4799 33.1192 37.3019 33.1192C37.2129 33.1192 36.9458 33.0302 36.8568 33.0302C36.7677 33.0302 36.6787 33.0302 36.5897 33.1192C36.5007 33.1192 36.5007 33.2083 36.4116 33.2083C36.3226 33.2083 36.3226 33.2083 36.3226 33.2083C36.1446 33.2083 36.2336 33.2973 36.1446 33.2083H36.0555C36.0555 33.2083 36.0555 33.2083 36.0555 33.1192C36.0555 33.1192 35.8775 33.1192 35.9665 33.0302C35.8775 33.0302 35.8775 33.0302 35.8775 33.0302C35.7885 33.0302 35.7885 33.1192 35.7885 33.0302C35.7885 32.9412 35.7885 32.9412 35.7885 32.8521C35.6104 32.6741 35.4324 32.407 34.9872 32.407C34.9872 32.2289 34.8982 32.1399 34.8982 32.0509C34.7201 31.9618 34.364 32.0509 34.275 31.8728C34.275 31.7838 34.4531 31.8728 34.364 31.6948C34.097 31.6948 34.0079 31.7838 33.7409 31.7838C33.7409 31.9618 33.5628 31.9618 33.3848 32.0509C33.2067 32.0509 33.1177 31.8728 32.9396 31.8728C32.6725 31.8728 32.5835 31.9618 32.4055 31.9618C32.2274 31.9618 32.2274 31.6948 32.1384 31.6057C31.9603 31.6057 31.8713 31.5167 31.6933 31.6057C31.6933 31.4277 31.6042 31.4277 31.5152 31.3386C31.3372 31.4277 31.6042 31.5167 31.5152 31.6057C31.4262 31.6057 31.3372 31.6948 31.2481 31.6948C31.1591 31.6948 31.1591 31.8728 30.981 31.8728C30.981 31.7838 30.892 31.7838 30.892 31.6057C30.892 31.4277 31.1591 31.5167 31.1591 31.3386C30.981 31.1606 30.803 31.4277 30.6249 31.5167C30.6249 31.5167 30.5359 31.5167 30.4469 31.6057C30.4469 31.6057 30.4469 31.6948 30.3579 31.6948C30.2688 31.7838 30.1798 31.7838 30.0018 31.7838C29.9127 31.7838 30.0018 31.8728 29.9127 31.8728C29.7347 31.8728 29.6457 31.9618 29.4676 32.0509C29.4676 32.2289 29.3786 32.318 29.4676 32.496C29.2896 32.496 29.2896 32.5851 29.2005 32.6741C29.1115 32.7631 29.0225 32.8521 29.0225 32.9412C28.9335 32.8521 28.7554 32.7631 28.6664 32.6741C26.7968 32.0509 26.6188 32.0509 26.3517 32.0509C26.2627 32.0509 26.2627 32.1399 26.2627 32.1399C26.1736 32.1399 26.2627 32.1399 26.2627 32.2289C26.1736 32.318 26.0846 32.318 25.9956 32.318C25.9956 32.318 25.9956 32.318 25.9066 32.318C25.8175 32.318 25.9066 32.318 25.9066 32.407C25.7285 32.496 25.7285 32.407 25.6395 32.407C25.5505 32.407 25.5505 32.407 25.4614 32.407C25.4614 32.407 25.3724 32.407 25.2834 32.407C25.2834 32.318 25.1944 32.318 25.1944 32.1399C24.9273 32.0509 24.8383 31.7838 24.6602 31.5167C24.6602 31.4277 24.7492 31.4277 24.7492 31.3386C24.7492 31.3386 24.6602 31.3386 24.6602 31.2496H24.7492V31.1606C24.7492 30.9825 24.7492 30.8045 24.7492 30.6264C24.8383 30.5374 24.8383 30.4483 24.8383 30.4483C24.9273 30.3593 24.8383 30.3593 24.8383 30.2703C24.8383 30.1812 24.8383 30.1812 24.8383 30.0922C24.7492 30.0922 24.7492 30.0922 24.6602 30.0922C24.4822 30.0922 24.4822 30.0032 24.4822 29.8251C24.3041 29.8251 24.126 29.7361 23.859 29.7361C23.6809 29.7361 23.6809 29.7361 23.5919 29.7361C23.3248 29.6471 22.9687 29.9141 22.8797 29.6471C22.9687 29.558 23.0577 29.469 23.0577 29.38C23.0577 29.2019 22.9687 28.9348 23.1468 28.9348C23.1468 28.7568 22.9687 28.8458 23.0577 28.6677C23.1468 28.6677 23.1468 28.7568 23.2358 28.6677C23.2358 28.5787 23.3248 28.4006 23.2358 28.2226C23.3248 28.2226 23.3248 28.1335 23.3248 28.0445C23.3248 28.0445 23.4138 28.0445 23.4138 27.9555C23.5029 27.8665 23.5919 27.7774 23.5029 27.5994C23.4138 27.5994 23.4138 27.5994 23.3248 27.5994L23.2358 27.5103C23.0577 27.5103 22.5236 27.5994 22.4346 27.5994C22.4346 27.5994 22.3455 27.5994 22.3455 27.6884C22.3455 27.7774 22.2565 27.9555 22.2565 28.1335C22.0784 28.0445 22.1675 28.3116 22.1675 28.3116C22.0784 28.4006 22.0784 28.3116 21.9894 28.4006C21.9004 28.4006 21.9894 28.5787 21.9004 28.5787C21.7223 28.6677 21.7223 28.4897 21.5443 28.4897C21.4553 28.5787 21.0992 28.5787 20.9211 28.6677C20.8321 28.6677 20.8321 28.5787 20.7431 28.4897C20.565 28.4897 20.476 28.4006 20.387 28.3116C20.2979 28.2226 20.2979 28.1335 20.2979 27.9555C20.2089 27.9555 20.2089 27.8665 20.2089 27.7774C20.2089 27.6884 20.1199 27.6884 20.1199 27.5994C20.0309 27.5103 20.0309 27.2432 20.0309 27.2432L19.9418 27.1542C19.9418 27.0652 19.9418 27.1542 19.9418 27.0652H19.8528C19.8528 26.8871 19.8528 26.7981 19.8528 26.7981C19.8528 26.7981 19.8528 26.7981 19.8528 26.7091C19.8528 26.62 19.8528 26.442 19.8528 26.3529C19.8528 26.1749 19.8528 26.0859 19.8528 25.9078C19.9418 25.8188 20.1199 25.8188 20.0309 25.6407C19.9418 25.1955 20.1199 24.6614 20.654 24.6614C20.654 24.5723 20.7431 24.5723 20.7431 24.4833C20.8321 24.4833 20.8321 24.3052 20.8321 24.3052C21.0101 24.3943 21.3662 24.1272 21.4553 24.3943C21.6333 24.3943 21.5443 24.3052 21.7223 24.3052C21.7223 24.3943 21.8114 24.3943 21.9004 24.3943C21.9004 24.3943 21.9004 24.5723 22.0784 24.4833C22.1675 24.4833 22.2565 24.4833 22.3455 24.3943C22.5236 24.3943 22.4346 24.2162 22.4346 24.2162C22.3455 24.2162 22.1675 24.2162 22.1675 24.1272C22.3455 24.1272 22.4346 24.2162 22.4346 24.1272C22.4346 24.0382 22.8797 24.1272 22.8797 24.1272C23.0577 24.1272 22.9687 24.1272 23.0577 24.1272C23.2358 24.0382 23.3248 24.2162 23.5029 24.1272C23.5029 24.1272 23.5029 24.2162 23.5919 24.1272C23.6809 24.2162 23.6809 24.3052 23.7699 24.3943C23.7699 24.3052 23.859 24.3943 23.948 24.3052C23.948 24.3052 23.948 24.2162 24.126 24.2162C24.2151 24.3052 24.3041 24.3052 24.3041 24.4833C24.3931 24.5723 24.4822 24.5723 24.4822 24.7504C24.4822 24.9285 24.4822 25.0175 24.4822 25.1065C24.6602 25.1065 24.4822 25.1955 24.5712 25.2846L24.6602 25.3736V25.4626C24.6602 25.5517 24.7492 25.6407 24.7492 25.6407L24.8383 25.7297C24.8383 25.8188 24.8383 25.8188 24.9273 25.9078L25.0163 25.9968C25.1053 26.0859 25.1053 26.1749 25.2834 26.0858C25.5505 25.8188 25.4614 25.4626 25.3724 25.2846C25.2834 25.1065 25.2834 25.0175 25.2834 24.7504C25.1944 24.6614 25.1053 24.3943 25.1053 24.2162C25.1053 23.9491 25.1944 23.8601 25.1944 23.7711C25.1944 23.682 25.1944 23.682 25.2834 23.593C25.3724 23.504 25.4614 23.4149 25.4614 23.4149C25.6395 23.3259 25.6395 23.2369 25.7285 23.2369C25.7285 23.1479 25.8175 23.0588 25.9066 22.9698C25.9956 22.9698 26.0846 22.8808 26.1736 22.8808C26.1736 22.7027 26.3517 22.6137 26.6188 22.6137C26.5297 22.4356 26.6188 22.5246 26.5297 22.3466C26.7078 22.3466 26.7968 22.2576 26.7968 22.1685C26.7078 22.1685 26.6188 22.1685 26.6188 22.1685C26.6188 22.0795 26.7968 22.1685 26.7078 21.9905C26.7968 21.8124 26.5297 21.9014 26.5297 21.7234C26.6188 21.5453 26.3517 21.3672 26.5297 21.3672C26.7078 21.3672 26.6188 21.5453 26.7968 21.5453C26.7968 21.3673 26.9749 21.4563 26.8859 21.2782C26.8859 21.1892 26.7078 21.1002 26.7968 21.0111C26.8859 21.0111 26.8859 21.1002 26.9749 21.0111C26.9749 20.9221 27.0639 20.8331 27.0639 20.744C27.1529 20.566 27.0639 20.566 27.0639 20.4769C27.242 20.4769 27.242 20.3879 27.42 20.3879C27.509 20.2989 27.509 20.2989 27.5981 20.2099C27.6871 20.2099 27.6871 20.2099 27.7761 20.1208C27.8651 20.1208 28.1322 20.2099 28.1322 20.0318C28.2212 19.8537 27.9542 20.0318 27.9542 19.9428C27.9542 19.8537 27.9542 19.8537 27.8651 19.8537C27.8651 19.6757 27.9542 19.5866 27.9542 19.4086C28.1322 19.4086 28.2212 19.3196 28.3103 19.2305C28.4883 19.2305 28.3993 19.1415 28.5773 19.1415C28.5773 19.1415 28.5773 19.0525 28.6664 19.0525C28.6664 18.9634 28.7554 18.9634 28.7554 18.8744C28.8444 18.7854 28.9335 18.8744 29.0225 18.7854C29.0225 18.7854 29.0225 18.6963 29.1115 18.6963C29.2005 18.6963 29.2005 18.6963 29.2896 18.6963C29.3786 18.7854 29.2005 18.7854 29.1115 18.8744C29.0225 18.9634 29.0225 19.0525 29.0225 19.1415C29.0225 19.2305 29.1115 19.3196 29.2896 19.3196C29.4676 19.2305 29.4676 19.0525 29.6457 18.9634C29.8237 18.8744 29.9127 18.7854 30.0018 18.7854C30.0018 18.7854 30.0908 18.7854 30.1798 18.6963C30.2688 18.6963 30.1798 18.5183 30.2688 18.5183C30.2688 18.5183 30.3579 18.5183 30.4469 18.5183C30.4469 18.5183 30.4469 18.4293 30.5359 18.4293C30.5359 18.3402 30.5359 18.2512 30.3579 18.3402C30.3579 18.2512 30.3579 18.1622 30.2688 18.1622C30.2688 18.2512 30.1798 18.2512 30.1798 18.3402C30.1798 18.4293 30.1798 18.5183 30.0908 18.6073C29.9127 18.6073 29.7347 18.6963 29.6457 18.6073C29.5566 18.6073 29.5566 18.5183 29.5566 18.5183H29.4676C29.3786 18.5183 29.3786 18.4293 29.2896 18.3402C29.2005 18.2512 29.2005 18.1622 29.2005 17.9841C29.0225 17.9841 28.9335 17.9841 28.8444 17.8951C29.0225 17.8951 29.2005 17.8951 29.2005 17.628C29.8237 17.806 29.7347 17.806 29.6457 17.806L29.5566 17.717C29.4676 17.717 29.4676 17.717 29.3786 17.806C29.2005 17.806 29.2005 17.806 29.1115 17.8951C29.0225 17.9841 28.8444 17.9841 28.7554 18.0731C28.7554 18.0731 28.6664 18.0731 28.6664 18.1622C28.6664 18.1622 28.5773 18.3402 28.4883 18.2512C28.5773 18.0731 28.6664 17.8951 28.9335 17.8951C29.0225 17.806 29.0225 17.628 29.1115 17.628C29.6457 17.628 30.0018 17.539 30.4469 17.4499C30.5359 17.2719 30.6249 17.1828 30.803 17.0938C30.981 17.0938 31.0701 17.0048 31.1591 16.9157C31.1591 16.7377 30.981 16.6486 30.981 16.4706C30.714 16.4706 30.5359 16.3816 30.4469 16.2035C30.3579 16.2035 30.3579 16.2035 30.2688 16.2035C30.2688 16.2035 30.2688 16.2035 30.1798 16.2035C30.0908 16.2035 30.0018 16.2035 29.9127 16.2035C29.9127 16.2035 29.8237 16.1145 29.7347 16.1145C29.6457 16.0254 29.6457 16.0254 29.5566 16.0254C29.5566 15.9364 29.4676 15.9364 29.4676 15.7583C29.3786 15.7583 29.3786 15.7583 29.3786 15.6693C29.2896 15.6693 29.2005 15.5803 29.1115 15.5803C29.0225 15.4022 28.7554 15.3132 28.6664 15.1351C28.5773 15.2242 28.5773 15.3132 28.5773 15.4022C28.4883 15.5803 28.2212 15.6693 28.1322 15.4913C28.1322 15.4022 27.9542 15.4913 27.9542 15.4022C27.8651 15.3132 27.8651 15.1351 27.8651 15.0461C27.7761 14.9571 27.6871 14.9571 27.5981 15.0461C27.509 14.868 27.331 14.868 27.242 14.779C27.0639 14.868 26.7968 14.868 26.5297 14.779C26.5297 14.9571 26.5297 15.1351 26.5297 15.4022C26.5297 15.5803 26.3517 15.5803 26.3517 15.7583C26.6188 15.7583 26.7078 16.0254 26.7078 16.2925C26.7078 16.4706 26.2627 16.7377 26.0846 16.7377C26.0846 17.0048 26.1736 17.1828 26.2627 17.4499C26.1736 17.539 26.0846 17.717 25.9066 17.717C25.9066 17.628 25.8175 17.628 25.8175 17.539C25.7285 17.4499 25.6395 17.4499 25.6395 17.3609C25.6395 17.2719 25.6395 17.3609 25.5505 17.3609C25.4614 17.1828 25.4614 16.9157 25.5505 16.6486C25.4614 16.6486 25.2834 16.6486 25.1053 16.6486C25.0163 16.5596 24.8383 16.4706 24.6602 16.4706C24.5712 16.3816 24.5712 16.2925 24.4822 16.2035C24.3931 16.2035 24.3041 16.2035 24.2151 16.2035C24.2151 16.2035 24.2151 16.2035 24.2151 16.1145H24.037C23.948 16.1145 23.859 16.2035 23.7699 16.2035C23.7699 16.0254 23.7699 15.9364 23.7699 15.7583C23.6809 15.7583 23.5919 15.7583 23.5919 15.7583V15.6693C23.5919 15.6693 23.5919 15.6693 23.5919 15.5803C23.5919 15.4913 23.5919 15.4913 23.5919 15.4022C23.5919 15.3132 23.859 15.1351 23.859 15.1351C23.948 15.1351 23.948 15.0461 23.948 14.9571H24.037C24.037 14.9571 24.037 14.868 24.126 14.868C24.2151 14.868 24.3041 14.779 24.3931 14.779C24.3931 14.601 24.5712 14.601 24.6602 14.5119C24.8383 14.5119 24.8383 14.4229 25.0163 14.4229C25.1053 14.3339 25.1053 14.2448 25.1053 14.1558C25.1053 14.1558 25.1944 14.1558 25.2834 14.0668V13.8887C25.4614 13.8887 25.4614 13.9777 25.5505 13.9777C25.5505 13.8887 25.6395 13.9777 25.7285 13.8887L25.8175 13.7997C25.9066 13.7997 25.9956 13.7997 25.9956 13.7107C25.9066 13.7107 25.9066 13.6216 25.9066 13.5326C26.1736 13.5326 25.8175 13.2655 25.9956 13.2655C26.0846 13.2655 26.2627 13.1765 26.2627 13.2655C26.4407 13.2655 26.3517 13.1765 26.5297 13.1765C26.7078 13.4436 27.1529 13.3545 27.242 13.7107C27.242 13.7997 27.1529 13.7997 27.0639 13.8887C26.9749 13.9777 27.1529 14.0668 26.9749 14.1558C26.7078 14.1558 26.4407 14.1558 26.4407 14.3339C26.6188 14.4229 26.8859 14.3339 26.9749 14.2448C27.0639 14.3339 27.0639 14.3339 27.1529 14.3339C27.1529 14.3339 27.242 14.5119 27.331 14.4229C27.331 14.5119 27.42 14.5119 27.42 14.601H27.509C27.7761 14.601 27.9542 14.69 28.2212 14.779C28.2212 14.69 28.1322 14.601 28.0432 14.5119C27.9542 14.5119 27.7761 14.5119 27.8651 14.4229C28.0432 14.4229 28.1322 14.601 28.3993 14.5119C28.3993 14.2448 28.2212 14.2448 28.2212 14.1558C28.1322 14.0668 28.0432 14.1558 27.9542 14.0668C27.9542 13.9777 27.7761 14.0668 27.7761 13.7997C27.9542 13.7107 28.1322 13.9777 28.3103 13.9777C28.3993 13.9777 28.3103 13.9777 28.3103 13.8887C28.3993 13.7997 28.4883 13.7107 28.3993 13.5326C28.3103 13.4436 28.2212 13.4436 28.1322 13.5326C27.9542 13.3545 27.5981 13.4436 27.509 13.2655C27.509 13.1765 27.509 13.0874 27.509 12.9984C27.331 12.9984 27.331 12.8203 27.1529 12.9094C27.1529 12.8203 26.9749 12.9094 26.9749 12.8203C26.7968 12.8203 26.7968 12.8203 26.6188 12.8203C26.6188 12.7313 26.5298 12.7313 26.4407 12.7313C26.3517 12.7313 26.3517 12.6423 26.2627 12.6423C25.9956 12.6423 25.9066 12.6423 25.6395 12.6423C25.6395 12.7313 25.5505 12.7313 25.4614 12.7313C25.4614 12.8203 25.4614 12.9094 25.3724 12.9094C25.2834 12.7313 25.6395 12.6423 25.3724 12.5533C25.2834 12.5533 25.1944 12.6423 25.1053 12.6423C24.9273 12.8203 25.0163 12.9094 24.9273 13.0874C25.0163 13.0874 25.1944 13.1765 25.2834 13.1765C25.2834 13.3545 25.1944 13.3545 25.1053 13.4436C25.0163 13.5326 24.9273 13.7107 24.8383 13.6216C24.7492 13.5326 24.9273 13.5326 24.8383 13.3545C24.7492 13.1765 24.6602 13.5326 24.5712 13.3545C24.7492 13.1765 24.3931 13.2655 24.4822 13.1765C24.5712 13.0874 24.3931 12.8203 24.3931 12.8203C24.4822 12.8203 24.4822 12.7313 24.5712 12.7313C24.7492 12.6423 24.8383 12.6423 24.9273 12.5533C24.7492 12.5533 24.6602 12.5533 24.4822 12.5533C24.3931 12.6423 24.3041 12.7313 24.3041 12.9094C24.126 12.9984 23.948 12.9984 24.037 13.2655C24.037 13.3545 24.2151 13.2655 24.2151 13.3545C24.126 13.4436 24.126 13.5326 24.037 13.5326H23.948C23.859 13.5326 23.859 13.7107 23.7699 13.6216C23.948 13.6216 23.6809 13.4436 23.7699 13.4436C23.859 13.4436 23.948 13.3545 23.859 13.2655C23.7699 13.1765 23.5919 13.2655 23.5029 13.3545C23.5919 13.4436 23.4138 13.5326 23.3248 13.6216C24.037 13.3545 23.948 13.2655 23.7699 13.3545ZM26.6188 12.4642C26.7078 12.5533 26.7968 12.4642 26.7968 12.4642C26.7968 12.5533 26.6188 12.6423 26.6188 12.4642ZM23.2358 17.8951C23.3248 17.8951 23.4138 17.9841 23.5029 17.9841C23.5029 18.2512 23.6809 18.5183 23.4138 18.6073C23.4138 18.2512 23.0577 18.1622 23.2358 17.8951ZM24.8383 18.6963C24.7492 18.7854 24.6602 18.7854 24.5712 18.7854C24.4822 18.6073 24.8383 18.5183 24.8383 18.6963ZM23.6809 18.7854C23.7699 18.7854 23.7699 18.8744 23.7699 18.9634H23.6809C23.5919 18.8744 23.6809 18.8744 23.6809 18.7854ZM25.4614 19.4086C25.7285 19.3196 25.8175 19.4086 26.0846 19.4086C26.0846 19.5866 26.2627 19.5866 26.2627 19.7647C26.1736 19.8537 26.1736 19.7647 25.9956 19.7647C25.9956 19.9428 25.9066 20.1208 25.8175 20.2099C25.7285 20.2099 25.8175 20.0318 25.7285 19.9428C25.5505 19.9428 25.6395 20.0318 25.4614 20.0318C25.4614 19.8537 25.5505 19.8537 25.4614 19.6757C25.4614 19.6757 25.3724 19.5866 25.2834 19.5866C25.1053 19.5866 25.0163 19.7647 24.9273 19.8537C24.9273 20.0318 24.9273 20.2099 25.0163 20.3879C24.9273 20.3879 24.9273 20.566 24.7492 20.566C24.7492 20.4769 24.6602 20.3879 24.6602 20.2989C24.6602 20.2099 24.6602 20.2099 24.6602 20.1208C24.6602 20.0318 24.6602 19.9428 24.6602 19.9428C24.6602 19.8537 24.6602 19.8537 24.5712 19.8537C24.5712 19.7647 24.6602 19.6757 24.6602 19.5866C24.6602 19.5866 24.8383 19.5866 24.9273 19.5866V19.4976C25.0163 19.4976 25.1053 19.4976 25.1944 19.4086C25.1053 19.2305 24.5712 19.5866 24.5712 19.2305C24.3041 19.3196 24.2151 19.4086 23.948 19.3196C23.948 19.2305 24.037 19.2305 24.126 19.1415C24.126 19.1415 24.126 19.1415 24.126 19.0525C24.126 19.0525 24.2151 18.9634 24.3041 18.9634C24.3931 18.8744 24.4822 18.7854 24.5712 18.6963C24.6602 18.7854 24.8383 18.6963 24.9273 18.6963C24.9273 18.6963 25.0163 18.7854 25.0163 18.8744C25.1053 18.8744 25.1053 18.8744 25.1944 18.8744C25.2834 19.2305 25.4614 19.3196 25.4614 19.4086ZM27.1529 19.5866C27.1529 19.8537 26.9749 19.8537 26.7968 19.8537C26.7078 19.8537 26.6188 19.9428 26.5297 19.9428C26.5297 20.0318 26.5297 20.1208 26.5297 20.2099C26.4407 20.2099 26.4407 20.2989 26.2627 20.2989C26.1736 20.3879 26.0846 20.4769 25.9956 20.4769C25.9066 20.4769 25.7285 20.4769 25.7285 20.3879C25.6395 20.2099 25.8175 20.2989 25.9066 20.2989C25.9956 20.2989 25.9956 20.2099 26.0846 20.1208C26.2627 20.1208 26.2627 20.1208 26.4407 20.0318C26.5298 19.9428 26.3517 19.9428 26.3517 19.7647C26.4407 19.7647 26.4407 19.6757 26.6188 19.6757C26.7078 19.6757 26.8859 19.5866 27.1529 19.5866ZM28.2212 20.3879C28.1322 20.4769 28.0432 20.4769 27.9542 20.4769C27.9542 20.3879 28.1322 20.3879 28.2212 20.3879ZM27.1529 21.1002C27.331 21.1002 27.1529 21.1892 27.242 21.3672C26.9749 21.3672 27.1529 21.2782 27.1529 21.1002ZM29.2005 31.5167C29.2896 31.5167 29.2896 31.5167 29.2896 31.5167C29.3786 31.6057 29.4676 31.6948 29.4676 31.8728C29.3786 31.8728 29.3786 31.9618 29.2896 31.9618C29.1115 31.9618 29.1115 31.8728 29.0225 31.6948C29.0225 31.6057 29.2005 31.6948 29.2005 31.5167ZM30.5359 18.6073C30.3579 18.6963 30.1798 18.6073 30.0908 18.6073C30.1798 18.6073 30.5359 18.7854 30.5359 18.6073ZM44.3349 29.7361C44.3349 29.6471 44.424 29.38 44.3349 29.469C44.3349 29.6471 44.1569 29.7361 44.3349 29.7361ZM43.3557 32.5851C43.3557 32.6741 43.2666 32.6741 43.3557 32.6741C43.3557 32.5851 43.5337 32.496 43.5337 32.407C43.5337 32.407 43.5337 32.318 43.5337 32.2289L43.6227 32.1399C43.6227 32.0509 43.7118 31.9618 43.7118 31.9618V31.8728L43.8008 31.7838C43.8008 31.6948 43.8008 31.6057 43.8008 31.5167C43.8008 31.4277 43.8898 31.3386 43.8898 31.2496C43.8898 31.1606 43.9788 31.0715 43.9788 30.9825C43.9788 30.8935 43.9788 30.7154 43.8898 30.6264C43.8898 31.3386 43.6227 31.8728 43.3557 32.5851ZM26.3517 11.3068C26.2627 11.4849 26.5297 11.3068 26.5297 11.4849C26.4407 11.5739 26.3517 11.3959 26.1736 11.3959C26.0846 11.3959 26.0846 11.4849 25.9066 11.4849C25.9066 11.5739 25.9956 11.5739 25.9956 11.752C26.0846 11.752 26.3517 11.663 26.3517 11.752C26.3517 11.93 26.1736 11.841 26.1736 12.0191C26.4407 12.0191 26.7078 11.93 26.8859 12.0191C26.8859 11.93 26.9749 11.93 26.9749 11.93C26.9749 11.841 26.9749 11.841 26.9749 11.752C27.1529 11.752 27.0639 11.5739 27.242 11.4849C27.42 11.4849 27.42 11.3959 27.42 11.3959C27.509 11.3068 27.6871 11.3068 27.6871 11.2178C27.242 11.1288 26.7078 11.2178 26.3517 11.3068ZM23.5919 12.9984C23.6809 13.0874 23.7699 13.0874 23.948 13.0874C24.037 13.0874 24.037 12.9094 24.037 12.9094C24.126 12.9094 24.126 12.9094 24.2151 12.9094C24.2151 12.7313 24.037 12.8203 24.037 12.6423C24.126 12.6423 24.037 12.6423 24.037 12.5533C24.037 12.5533 24.037 12.5533 24.037 12.4642C24.037 12.4642 24.037 12.3752 24.037 12.2862C24.037 12.2862 24.126 12.2862 24.2151 12.1971L24.3041 12.1081C24.126 12.1081 24.126 12.1971 23.948 12.1971C23.948 12.2862 23.7699 12.4642 23.7699 12.3752C23.948 12.1971 23.5029 12.2862 23.5029 12.1971C23.5919 12.1971 23.5029 12.1081 23.5029 12.0191C23.3248 12.0191 23.2358 11.93 23.0577 11.93C22.9687 11.93 22.9687 12.0191 22.8797 12.0191C22.7016 12.1081 22.3455 12.1971 22.3455 12.2862C22.5236 12.4642 22.7016 12.1081 22.8797 12.2862C22.7907 12.2862 22.7907 12.3752 22.7907 12.4642C22.7016 12.4642 22.6126 12.4642 22.6126 12.5533C22.7907 12.5533 22.8797 12.5533 22.9687 12.6423C22.7016 12.6423 22.5236 12.5533 22.4346 12.7313C22.6126 12.7313 22.5236 12.9094 22.6126 12.9984C23.1468 13.0874 23.5029 13.0874 23.5919 12.9984ZM41.4861 18.0731C41.4861 17.9841 41.3971 17.8951 41.3971 17.8951V17.806L41.3081 17.717C41.3081 17.628 41.3081 17.628 41.219 17.539L41.13 17.4499L41.041 17.3609C40.952 17.2719 40.952 17.1828 40.8629 17.0938C40.7739 16.9157 40.5959 16.6486 40.5068 16.4706C40.4178 16.3816 40.2398 16.2925 40.2398 16.1145C40.2398 16.0254 40.3288 16.0254 40.2398 15.9364C40.1507 15.9364 40.1507 15.7583 40.0617 15.6693C40.1507 15.6693 40.1507 15.7583 40.2398 15.7583C40.2398 15.7583 40.2398 15.7583 40.3288 15.8474C40.2398 15.7583 40.0617 15.5803 39.9727 15.4913C39.5275 15.0461 39.0824 14.601 38.5483 14.2448C38.2812 14.0668 38.0141 13.7997 37.658 13.6216C37.569 13.7107 37.747 13.7107 37.747 13.7997C37.9251 13.9777 38.0141 14.1558 38.1031 14.2448C38.1922 14.3339 38.2812 14.3339 38.2812 14.5119C38.2812 14.5119 38.4592 14.69 38.3702 14.69C38.2812 14.601 38.1031 14.5119 38.0141 14.3339C37.9251 14.3339 37.9251 14.2448 37.747 14.3339C37.569 14.1558 37.3019 14.1558 37.1238 13.9777C37.0348 13.9777 37.0348 13.9777 36.9458 13.9777C36.8568 13.7997 36.7677 13.7997 36.6787 13.6216C36.5007 13.7107 36.4116 13.5326 36.3226 13.5326C36.4116 13.7997 36.7677 13.8887 36.9458 14.0668C37.0348 14.0668 37.2129 14.0668 37.2129 14.1558C37.2129 14.2448 37.1238 14.2448 37.0348 14.2448C37.0348 14.3339 37.2129 14.4229 37.2129 14.4229V14.5119C37.3019 14.601 37.3909 14.69 37.569 14.69C37.658 14.868 37.658 15.0461 37.9251 14.9571C38.0141 14.601 37.658 14.5119 37.569 14.4229C37.4799 14.3339 37.4799 14.2448 37.4799 14.2448H37.3909C37.3909 14.1558 37.3909 14.1558 37.3909 14.0668C37.747 14.1558 37.8361 14.5119 38.1031 14.69C38.1922 14.69 38.1922 14.779 38.2812 14.69C38.2812 14.779 38.4592 15.0461 38.5483 14.868C38.4592 14.868 38.5483 14.601 38.4592 14.5119C38.6373 14.601 38.9044 14.779 38.8153 15.0461C38.9044 15.0461 38.9044 15.1351 38.9934 15.1351C38.9934 15.2242 38.9934 15.3132 38.9934 15.4022C39.1714 15.4022 39.1714 15.5803 39.3495 15.4913C39.4385 15.6693 39.7056 15.7583 39.7946 15.8474C39.8837 15.9364 39.8837 16.0254 39.9727 16.1145C40.0617 16.2035 40.1507 16.2035 40.1507 16.3816C40.0617 16.3816 40.1507 16.4706 40.1507 16.4706C40.0617 16.5596 39.8837 16.5596 39.9727 16.7377C39.9727 16.9157 40.2398 17.0048 40.2398 17.0938C40.2398 17.1828 40.2398 17.0938 40.3288 17.1828C40.5068 17.3609 40.5959 17.4499 40.6849 17.628C40.7739 17.717 40.8629 17.806 40.8629 17.9841C41.13 17.9841 41.13 18.2512 41.3081 18.3402C41.3971 18.0731 41.5751 18.5183 41.6642 18.3402C41.4861 18.4293 41.4861 18.1622 41.4861 18.0731ZM44.9581 26.531C44.9581 26.3529 44.8691 26.0858 44.8691 25.8188C44.602 23.3259 43.6227 20.2099 42.1093 18.1622C42.0203 18.0731 41.6642 17.4499 41.4861 17.3609C41.5751 17.5389 41.4861 17.717 41.5751 17.8951C41.5751 18.0731 41.7532 18.2512 41.7532 18.5183C41.7532 18.6073 41.6642 18.6073 41.7532 18.6963C41.6642 18.6963 41.5751 18.6963 41.5751 18.7854C41.6642 18.8744 41.6642 18.9634 41.7532 19.0525C41.8422 19.3196 41.8422 19.4976 41.9312 19.7647C41.9312 19.8537 42.0203 19.9428 42.0203 20.0318C42.0203 20.1208 42.1093 20.2099 42.1093 20.2989C42.1983 20.4769 42.2873 20.566 42.3764 20.744C42.4654 21.0111 42.3764 21.2782 42.3764 21.5453C42.3764 21.6343 42.3764 21.6343 42.4654 21.7234C42.4654 21.7234 42.5544 21.8124 42.5544 21.7234C42.5544 21.9014 42.4654 21.9905 42.5544 21.9905C42.5544 21.9905 42.5544 22.0795 42.5544 22.1685H42.6435C42.7325 22.4356 42.7325 22.7027 42.7325 22.9698C42.7325 23.1479 42.8215 23.504 42.8215 23.593V23.682L42.9105 23.7711C42.9105 23.8601 42.9996 23.9491 43.0886 24.0382C43.0886 24.3052 43.2666 24.3943 43.2666 24.6614C43.3557 25.1065 43.3557 25.8188 43.5337 26.0858C43.6227 26.1749 43.6227 26.3529 43.6227 26.531C43.6227 26.62 43.7118 26.62 43.8008 26.62C43.8008 26.62 43.8008 26.62 43.8898 26.62V26.7091C43.8898 26.7091 43.8898 26.7091 43.9788 26.7091V26.7981C43.9788 26.8871 44.0679 26.8871 44.1569 26.8871C44.2459 27.0652 44.3349 27.2432 44.3349 27.5103C44.424 27.5103 44.3349 27.5994 44.424 27.5994H44.513C44.6911 27.7774 44.602 27.9555 44.602 28.2226C44.602 28.4897 44.513 28.6677 44.513 28.8458C44.513 29.0238 44.3349 29.2019 44.513 29.2909C44.513 29.1129 44.602 28.9348 44.602 28.8458C44.602 28.6677 44.6911 28.5787 44.6911 28.4897C44.6911 28.4006 44.7801 28.3116 44.7801 28.2226V28.1335C44.7801 28.0445 44.7801 28.1335 44.7801 28.0445C44.7801 27.9555 44.7801 27.5994 44.8691 27.5994C44.8691 27.5994 44.8691 27.5103 44.8691 27.4213C44.8691 27.3323 44.8691 27.4213 44.8691 27.3323C44.9581 27.1542 44.8691 26.9762 44.8691 26.7091C44.8691 26.7091 44.8691 26.7091 44.8691 26.62C44.9581 26.7091 44.9581 26.62 44.9581 26.531Z" fill="white"/>
<path d="M75.4941 19.0525C75.4051 19.1415 75.316 19.1415 75.227 19.1415H73.0014C72.9123 19.1415 72.8233 19.2305 72.8233 19.3196V28.5787C72.8233 29.38 73.0014 30.0032 73.2684 30.2703C73.5355 30.6264 74.0697 30.7154 74.6038 30.7154H74.8709C74.9599 30.7154 75.049 30.7154 75.138 30.8044C75.227 30.8935 75.227 30.9825 75.227 31.0715V33.8315C75.227 33.9205 75.227 34.0095 75.138 34.0986C75.049 34.1876 74.9599 34.1876 74.8709 34.1876H73.7136C72.1111 34.1876 70.8647 33.9205 70.0635 33.2973C69.2623 32.6741 68.8171 31.6057 68.8171 30.0032V19.3196C68.8171 19.2305 68.7281 19.1415 68.6391 19.1415H67.3927C67.3037 19.1415 67.2147 19.1415 67.1256 19.0525C67.0366 18.9634 67.0366 18.8744 67.0366 18.7854V16.7377C67.0366 16.6486 67.0366 16.5596 67.1256 16.4706C67.2147 16.3816 67.3037 16.3816 67.3927 16.3816H68.6391C68.7281 16.3816 68.8171 16.2925 68.8171 16.2035V12.2862C68.8171 12.1971 68.8171 12.1081 68.9062 12.0191C68.9952 11.93 69.0842 11.93 69.1732 11.93H72.2892C72.3782 11.93 72.4672 11.93 72.5562 12.0191C72.6453 12.1081 72.6453 12.1971 72.6453 12.2862V16.0254C72.6453 16.1145 72.7343 16.2035 72.8233 16.2035H75.049C75.138 16.2035 75.227 16.2035 75.316 16.2925C75.4051 16.3816 75.4051 16.4706 75.4051 16.5596V18.6963C75.6721 18.7854 75.5831 18.9634 75.4941 19.0525Z" fill="white"/>
<path d="M86.8893 16.3816C87.0674 16.4706 87.1564 16.6486 87.0674 16.9157L86.5332 20.2099C86.5332 20.4769 86.3552 20.566 85.9991 20.4769C85.643 20.3879 85.3759 20.2989 85.1088 20.2989C84.8417 20.2989 84.5747 20.2989 84.3076 20.3879C83.6844 20.4769 83.1503 20.8331 82.7051 21.4563C82.26 22.0795 82.0819 22.8808 82.0819 23.7711V33.8315C82.0819 33.9205 82.0819 34.0095 81.9929 34.0986C81.9039 34.1876 81.8149 34.1876 81.7258 34.1876H78.5209C78.4319 34.1876 78.3428 34.1876 78.2538 34.0986C78.1648 34.0095 78.1648 33.9205 78.1648 33.8315V16.6486C78.1648 16.5596 78.1648 16.4706 78.2538 16.3816C78.3428 16.2925 78.4319 16.2925 78.5209 16.2925H81.7258C81.8149 16.2925 81.9039 16.2925 81.9929 16.3816C82.0819 16.4706 82.0819 16.5596 82.0819 16.6486V18.2512C82.0819 18.3402 82.0819 18.4293 82.171 18.4293C82.26 18.4293 82.26 18.4293 82.26 18.3402C82.8832 16.8267 83.9515 16.0254 85.3759 16.0254C85.9991 16.0254 86.5332 16.1145 86.8893 16.3816Z" fill="white"/>
<path d="M99.6202 17.539C100.778 18.6073 101.312 20.0318 101.312 21.8124V33.8315C101.312 33.9205 101.312 34.0095 101.223 34.0986C101.134 34.1876 101.045 34.1876 100.956 34.1876H97.7507C97.6616 34.1876 97.5726 34.1876 97.4836 34.0986C97.3945 34.0095 97.3945 33.9205 97.3945 33.8315V33.1192C97.3945 33.0302 97.3945 33.0302 97.3055 32.9412C97.2165 32.9412 97.2165 32.9412 97.1275 33.0302C96.3262 34.0095 95.0799 34.4547 93.5664 34.4547C92.231 34.4547 91.0737 34.0986 90.0054 33.2973C89.0261 32.496 88.4919 31.1606 88.4919 29.1129C88.4919 26.9762 89.1151 25.4626 90.3615 24.5723C91.6079 23.682 93.2993 23.2369 95.3469 23.2369H97.2165C97.3055 23.2369 97.3945 23.1479 97.3945 23.0588V22.1685C97.3945 21.2782 97.2165 20.655 96.7714 20.1208C96.3262 19.5866 95.7921 19.3196 95.1689 19.3196C94.6347 19.3196 94.2786 19.4976 93.9225 19.7647C93.5664 20.1208 93.3884 20.4769 93.2993 21.0111C93.2993 21.2782 93.1213 21.4563 92.8542 21.4563H89.4712C89.2042 21.4563 89.0261 21.2782 89.1151 21.0111C89.2041 19.4086 89.8273 18.1622 90.9847 17.1828C92.142 16.2035 93.5664 15.7583 95.2579 15.7583C96.9494 15.9364 98.4629 16.4706 99.6202 17.539ZM96.4153 30.5374C96.9494 30.0922 97.2165 29.469 97.2165 28.6677V26.62C97.2165 26.531 97.1275 26.442 97.0384 26.442H95.1689C94.3677 26.442 93.7445 26.62 93.2103 27.0652C92.6762 27.5103 92.4981 28.1335 92.4981 28.9348C92.4981 29.6471 92.6762 30.1812 93.0323 30.5374C93.3884 30.8935 93.9225 31.0715 94.4567 31.0715C95.2579 31.1606 95.8811 30.9825 96.4153 30.5374Z" fill="white"/>
<path d="M112.44 9.70429C112.529 9.61526 112.618 9.61526 112.707 9.61526H115.912C116.001 9.61526 116.09 9.61526 116.179 9.70429C116.268 9.79332 116.268 9.88235 116.268 9.97138V33.8315C116.268 33.9205 116.268 34.0095 116.179 34.0986C116.09 34.1876 116.001 34.1876 115.912 34.1876H112.707C112.618 34.1876 112.529 34.1876 112.44 34.0986C112.351 34.0095 112.351 33.9205 112.351 33.8315V33.3863C112.351 33.2973 112.351 33.2973 112.262 33.2083C112.173 33.2083 112.173 33.2083 112.084 33.2083C111.193 34.0095 110.214 34.4547 108.879 34.4547C107.276 34.4547 106.119 33.9205 105.229 32.9412C104.338 31.8728 103.893 30.5374 103.893 28.7568V21.6343C103.893 19.8537 104.338 18.4293 105.229 17.4499C106.119 16.4706 107.365 15.9364 108.879 15.9364C109.413 15.9364 109.947 16.0254 110.57 16.2035C111.104 16.3816 111.639 16.7377 112.084 17.1828C112.173 17.2719 112.173 17.2719 112.262 17.1828C112.351 17.1828 112.351 17.0938 112.351 17.0048V9.88235C112.351 9.88235 112.351 9.79332 112.44 9.70429ZM111.639 30.4483C111.995 30.0922 112.262 29.558 112.351 29.0238V21.5453C112.262 20.9221 111.995 20.4769 111.639 20.1208C111.282 19.7647 110.748 19.5866 110.214 19.5866C109.591 19.5866 109.057 19.8537 108.612 20.2989C108.167 20.744 107.989 21.3672 107.989 22.0795V28.4897C107.989 29.2019 108.167 29.8251 108.612 30.2703C108.968 30.7154 109.502 30.9825 110.214 30.9825C110.748 30.9825 111.193 30.8044 111.639 30.4483Z" fill="white"/>
<path d="M131.759 26.62C131.67 26.7091 131.581 26.7091 131.492 26.7091H123.657C123.568 26.7091 123.479 26.7981 123.479 26.8871V28.4897C123.479 29.2019 123.657 29.8251 124.102 30.2703C124.459 30.7154 124.993 30.9825 125.616 30.9825C126.15 30.9825 126.595 30.8045 127.04 30.4483C127.396 30.0922 127.663 29.6471 127.842 29.1129C127.931 28.8458 128.109 28.7568 128.287 28.7568L131.403 28.9348C131.492 28.9348 131.581 28.9348 131.67 29.0238C131.759 29.1129 131.759 29.2019 131.759 29.38C131.581 30.9825 130.957 32.318 129.978 33.2083C128.91 34.0986 127.485 34.5437 125.616 34.5437C123.657 34.5437 122.144 34.0095 121.076 33.0302C119.918 32.0509 119.384 30.6264 119.384 28.8458V21.7234C119.384 20.0318 119.918 18.6073 121.076 17.5389C122.233 16.4706 123.746 15.9364 125.616 15.9364C127.574 15.9364 129.088 16.4706 130.156 17.5389C131.314 18.6073 131.848 19.9428 131.848 21.7234V26.3529C131.848 26.442 131.848 26.531 131.759 26.62ZM124.102 20.2099C123.746 20.655 123.479 21.2782 123.479 21.9905V23.593C123.479 23.682 123.568 23.7711 123.657 23.7711H127.663C127.752 23.7711 127.842 23.682 127.842 23.593V21.9905C127.842 21.2782 127.663 20.655 127.218 20.2099C126.773 19.7647 126.328 19.4976 125.616 19.4976C124.993 19.4976 124.459 19.7647 124.102 20.2099Z" fill="white"/>
<path d="M137.634 33.9205L133.895 16.7377V16.6486C133.895 16.4706 133.984 16.2925 134.251 16.2925H135.943C136.21 16.2925 136.299 16.3816 136.299 16.6486L138.88 30.0922C138.88 30.1812 138.97 30.1812 138.97 30.1812C138.97 30.1812 139.059 30.1812 139.059 30.0922L141.64 16.6486C141.729 16.4706 141.818 16.2925 141.996 16.2925H143.599C143.866 16.2925 143.955 16.3816 143.955 16.6486L146.537 30.0922C146.537 30.1812 146.626 30.1812 146.626 30.1812C146.626 30.1812 146.715 30.1812 146.715 30.0922L149.297 16.6486C149.386 16.4706 149.475 16.2925 149.653 16.2925H151.344C151.611 16.2925 151.7 16.3816 151.7 16.6486L147.961 33.7424C147.961 33.9205 147.783 34.0986 147.605 34.0986H145.825C145.646 34.0986 145.468 34.0095 145.468 33.7424L142.887 20.8331C142.887 20.744 142.798 20.744 142.798 20.744C142.798 20.744 142.709 20.744 142.709 20.8331L140.216 33.7424C140.216 33.9205 140.038 34.0986 139.86 34.0986H138.079C137.812 34.2766 137.723 34.1876 137.634 33.9205Z" fill="white"/>
<path d="M154.816 12.6423C154.46 12.2862 154.282 11.752 154.282 11.2178C154.282 10.5946 154.46 10.1494 154.816 9.79332C155.172 9.4372 155.618 9.25914 156.241 9.25914C156.775 9.25914 157.309 9.4372 157.665 9.79332C158.021 10.1494 158.199 10.5946 158.199 11.2178C158.199 11.752 158.021 12.2862 157.665 12.6423C157.309 12.9984 156.864 13.1765 156.241 13.1765C155.707 13.1765 155.172 12.9984 154.816 12.6423ZM154.994 33.9205V16.7377C154.994 16.4706 155.083 16.3816 155.351 16.3816H157.131C157.398 16.3816 157.487 16.4706 157.487 16.7377V33.9205C157.487 34.1876 157.398 34.2766 157.131 34.2766H155.351C155.172 34.2766 154.994 34.1876 154.994 33.9205Z" fill="white"/>
<path d="M171.82 17.628C172.621 18.6073 172.978 20.0318 172.978 21.7234V33.8315C172.978 34.0986 172.889 34.1876 172.621 34.1876H170.841C170.574 34.1876 170.485 34.0986 170.485 33.8315V21.9905C170.485 20.8331 170.218 19.9428 169.684 19.3196C169.149 18.6963 168.437 18.3402 167.547 18.3402C166.568 18.3402 165.855 18.6963 165.321 19.3196C164.787 20.0318 164.52 20.9221 164.52 22.0795V33.8315C164.52 34.0986 164.431 34.1876 164.164 34.1876H162.383C162.116 34.1876 162.027 34.0986 162.027 33.8315V16.7377C162.027 16.4706 162.116 16.3816 162.383 16.3816H164.164C164.431 16.3816 164.52 16.4706 164.52 16.7377V17.8951C164.52 17.9841 164.52 17.9841 164.609 17.9841C164.698 17.9841 164.698 17.9841 164.698 17.8951C165.143 17.2719 165.677 16.8267 166.301 16.5596C166.924 16.2925 167.636 16.1145 168.348 16.1145C169.862 16.2035 171.019 16.6486 171.82 17.628Z" fill="white"/>
<path d="M185.53 9.61526H187.311C187.578 9.61526 187.667 9.70429 187.667 9.97138V33.9205C187.667 34.1876 187.578 34.2766 187.311 34.2766H185.53C185.263 34.2766 185.174 34.1876 185.174 33.9205V33.1192C185.174 33.0302 185.174 33.0302 185.085 33.0302H184.996C184.106 34.0095 182.948 34.5437 181.613 34.5437C180.1 34.5437 178.942 34.0095 178.052 33.0302C177.162 32.0509 176.717 30.7154 176.717 29.1129V21.4563C176.717 19.8537 177.162 18.5183 178.052 17.5389C178.942 16.5596 180.189 16.1145 181.613 16.1145C183.037 16.1145 184.106 16.6486 184.996 17.628C185.085 17.717 185.085 17.717 185.085 17.628L185.174 17.5389V9.88235C185.174 9.70429 185.263 9.61526 185.53 9.61526ZM184.373 31.4277C184.907 30.8044 185.174 30.0032 185.174 29.0238V21.7234C185.174 20.744 184.907 19.8537 184.373 19.2305C183.839 18.6073 183.126 18.3402 182.236 18.3402C181.346 18.3402 180.634 18.6963 180.011 19.2305C179.476 19.8537 179.12 20.655 179.12 21.7234V29.0238C179.12 30.0032 179.387 30.8044 180.011 31.4277C180.545 32.0509 181.346 32.407 182.236 32.407C183.037 32.407 183.75 32.0509 184.373 31.4277Z" fill="white"/>
<path d="M192.741 33.2083C191.762 32.407 191.317 31.2496 191.317 29.9141V29.6471C191.317 29.38 191.406 29.2909 191.673 29.2909H193.364C193.632 29.2909 193.721 29.38 193.721 29.6471V29.8251C193.721 30.5374 193.988 31.2496 194.522 31.6947C195.056 32.2289 195.768 32.496 196.658 32.496C197.549 32.496 198.172 32.2289 198.706 31.6947C199.24 31.1606 199.507 30.5374 199.507 29.7361C199.507 29.1129 199.329 28.5787 198.973 28.2226C198.617 27.7774 198.261 27.5103 197.816 27.2432C197.371 26.9761 196.747 26.7091 195.857 26.3529C194.967 25.9968 194.166 25.6407 193.543 25.2846C192.919 24.9285 192.385 24.3943 192.029 23.7711C191.584 23.0588 191.406 22.2575 191.406 21.1892C191.406 19.6757 191.851 18.5183 192.83 17.628C193.721 16.7377 195.056 16.2925 196.569 16.2925C198.172 16.2925 199.418 16.7377 200.398 17.628C201.377 18.5183 201.822 19.6757 201.822 21.1892V21.2782C201.822 21.5453 201.733 21.6343 201.466 21.6343H199.863C199.596 21.6343 199.507 21.5453 199.507 21.2782V21.1002C199.507 20.2989 199.24 19.6757 198.706 19.1415C198.172 18.6073 197.46 18.3402 196.658 18.3402C195.857 18.3402 195.145 18.6073 194.611 19.1415C194.077 19.6757 193.81 20.2989 193.81 21.1002C193.81 21.6343 193.988 22.1685 194.255 22.5246C194.522 22.8808 194.967 23.2369 195.412 23.504C195.857 23.7711 196.48 24.0382 197.282 24.3943C198.261 24.8394 199.062 25.1955 199.685 25.5517C200.309 25.9078 200.843 26.442 201.288 27.1542C201.733 27.8665 202 28.6677 202 29.7361C202 31.1606 201.555 32.318 200.576 33.2083C199.596 34.0986 198.35 34.5437 196.658 34.5437C194.967 34.4547 193.721 34.0095 192.741 33.2083Z" fill="white"/>
<path d="M106.03 42.9126C106.386 43.3577 106.564 44.07 106.564 44.8712V50.3911C106.564 50.4801 106.475 50.5692 106.386 50.5692H105.585C105.496 50.5692 105.407 50.4801 105.407 50.3911V45.0493C105.407 44.5151 105.318 44.0699 105.051 43.7138C104.784 43.3577 104.517 43.2687 104.161 43.2687C103.715 43.2687 103.448 43.4467 103.181 43.7138C102.914 43.9809 102.825 44.4261 102.825 44.9603V50.3911C102.825 50.4801 102.736 50.5692 102.647 50.5692H101.846C101.757 50.5692 101.668 50.4801 101.668 50.3911V45.0493C101.668 44.5151 101.579 44.0699 101.312 43.7138C101.045 43.3577 100.778 43.2687 100.421 43.2687C99.9763 43.2687 99.7092 43.4467 99.4421 43.7138C99.1751 44.0699 99.0861 44.4261 99.0861 44.9603V50.3911C99.0861 50.4801 98.997 50.5692 98.908 50.5692H98.1068C98.0177 50.5692 97.9287 50.4801 97.9287 50.3911V42.4674C97.9287 42.3784 98.0177 42.2893 98.1068 42.2893H98.908C98.997 42.2893 99.0861 42.3784 99.0861 42.4674V43.0016C99.0861 43.0016 99.086 43.0016 99.1751 43.0016C99.3531 42.7345 99.6202 42.5564 99.8873 42.3784C100.154 42.2893 100.51 42.2003 100.778 42.2003C101.223 42.2003 101.579 42.2893 101.846 42.4674C102.113 42.6455 102.38 42.9126 102.558 43.3577C102.558 43.3577 102.558 43.3577 102.647 43.3577C102.736 43.3577 102.647 43.3577 102.736 43.2687C102.914 42.9126 103.181 42.5564 103.537 42.3784C103.893 42.2003 104.25 42.1113 104.606 42.1113C105.14 42.2003 105.674 42.3784 106.03 42.9126Z" fill="white"/>
<path d="M112.707 42.9126C113.152 43.4467 113.419 44.07 113.419 44.8712V50.3911C113.419 50.4801 113.33 50.5692 113.241 50.5692H112.44C112.351 50.5692 112.262 50.4801 112.262 50.3911V49.8569C112.262 49.8569 112.262 49.8569 112.173 49.8569C111.728 50.3911 111.193 50.6582 110.392 50.6582C109.769 50.6582 109.235 50.4801 108.879 50.124C108.434 49.7679 108.256 49.1447 108.256 48.3434C108.256 47.4531 108.523 46.7409 109.057 46.2957C109.591 45.8506 110.303 45.6725 111.193 45.6725H112.351C112.351 45.6725 112.44 45.6725 112.44 45.5835V44.9603C112.44 44.4261 112.351 43.9809 112.084 43.6248C111.817 43.2687 111.461 43.1797 111.104 43.1797C110.748 43.1797 110.481 43.2687 110.303 43.5358C110.036 43.7138 109.947 44.07 109.858 44.337C109.858 44.4261 109.769 44.5151 109.68 44.5151H108.79C108.701 44.5151 108.701 44.5151 108.701 44.4261V44.337C108.79 43.7138 109.057 43.1797 109.502 42.8235C109.947 42.4674 110.57 42.2003 111.193 42.2003C111.639 42.2003 112.173 42.3784 112.707 42.9126ZM111.728 49.2337C112.084 48.9666 112.173 48.5215 112.173 48.0763V46.7409C112.173 46.7409 112.173 46.6518 112.084 46.6518H110.926C110.392 46.6518 110.036 46.8299 109.68 47.097C109.324 47.3641 109.235 47.8092 109.235 48.3434C109.235 48.7886 109.324 49.1447 109.591 49.4118C109.858 49.6789 110.125 49.7679 110.481 49.7679C111.015 49.6789 111.372 49.5008 111.728 49.2337Z" fill="white"/>
<path d="M118.672 42.3784C118.761 42.3784 118.761 42.4674 118.761 42.5564L118.583 43.3577C118.583 43.4467 118.494 43.4467 118.405 43.4467C118.316 43.3577 118.138 43.3577 117.96 43.3577C117.871 43.3577 117.782 43.3577 117.782 43.3577C117.425 43.3577 117.069 43.6248 116.802 43.9809C116.535 44.337 116.446 44.8712 116.446 45.4054V50.3021C116.446 50.3911 116.357 50.4801 116.268 50.4801H115.467C115.378 50.4801 115.289 50.3911 115.289 50.3021V42.3784C115.289 42.2893 115.378 42.2003 115.467 42.2003H116.268C116.357 42.2003 116.446 42.2893 116.446 42.3784V43.3577V43.4467C116.446 43.4467 116.446 43.4467 116.535 43.4467C116.891 42.6455 117.336 42.2003 118.049 42.2003C118.227 42.2003 118.405 42.2893 118.672 42.3784Z" fill="white"/>
<path d="M119.918 50.3911V39.2623C119.918 39.1733 120.007 39.0843 120.096 39.0843H120.898C120.987 39.0843 121.076 39.1733 121.076 39.2623V45.7615C121.076 45.7615 121.076 45.7615 121.076 45.8506C121.076 45.9396 121.076 45.8506 121.165 45.8506L123.568 42.3784C123.568 42.2893 123.657 42.2893 123.746 42.2893H124.548C124.637 42.2893 124.637 42.2893 124.637 42.3784C124.637 42.3784 124.637 42.4674 124.637 42.5564L123.034 44.8712V44.9603L124.993 50.3911V50.4801C124.993 50.5692 124.904 50.5692 124.815 50.5692H123.924C123.835 50.5692 123.746 50.5692 123.746 50.4801L122.322 45.9396C122.322 45.8506 122.322 45.8506 122.233 45.9396L121.076 47.6312V47.7202V50.4801C121.076 50.5692 120.987 50.6582 120.898 50.6582H120.096C119.918 50.4801 119.918 50.4801 119.918 50.3911Z" fill="white"/>
<path d="M131.046 46.8299H127.307C127.307 46.8299 127.218 46.8299 127.218 46.9189V48.0763C127.218 48.5215 127.307 48.8776 127.574 49.2337C127.841 49.5008 128.197 49.6789 128.554 49.6789C128.91 49.6789 129.177 49.5898 129.444 49.3227C129.711 49.1447 129.889 48.8776 129.889 48.5215C129.889 48.4324 129.978 48.3434 130.067 48.3434H130.868C130.868 48.3434 130.957 48.3434 130.957 48.4324V48.5215C130.868 49.1447 130.601 49.6789 130.156 50.035C129.711 50.3911 129.177 50.5692 128.465 50.5692C127.663 50.5692 127.04 50.3021 126.595 49.8569C126.15 49.4118 125.883 48.7885 125.883 48.0763V44.6041C125.883 43.8919 126.15 43.2687 126.595 42.8235C127.04 42.3784 127.663 42.1113 128.465 42.1113C129.266 42.1113 129.889 42.3784 130.334 42.8235C130.779 43.2687 131.046 43.8919 131.046 44.6041V46.6518C131.224 46.8299 131.135 46.8299 131.046 46.8299ZM127.663 43.6248C127.396 43.8919 127.307 44.248 127.307 44.7822V45.8506C127.307 45.8506 127.307 45.9396 127.396 45.9396H130.067C130.067 45.9396 130.156 45.9396 130.156 45.8506V44.7822C130.156 44.337 130.067 43.9809 129.8 43.6248C129.533 43.3577 129.177 43.1796 128.732 43.1796C128.287 43.1796 127.93 43.3577 127.663 43.6248Z" fill="white"/>
<path d="M135.587 43.1797H134.34C134.34 43.1797 134.251 43.1796 134.251 43.2687V48.2544C134.251 48.7886 134.34 49.0556 134.518 49.3227C134.696 49.5008 134.963 49.5898 135.32 49.5898H135.498C135.587 49.5898 135.676 49.6789 135.676 49.7679V50.4801C135.676 50.5692 135.587 50.6582 135.498 50.6582H135.052C134.429 50.6582 133.895 50.4801 133.628 50.213C133.272 49.9459 133.094 49.4118 133.094 48.6105V43.2687C133.094 43.2687 133.094 43.1797 133.005 43.1797H132.382C132.293 43.1797 132.204 43.0906 132.204 43.0016V42.4674C132.204 42.3784 132.293 42.2893 132.382 42.2893H133.005C133.005 42.2893 133.094 42.2893 133.094 42.2003V40.4197C133.094 40.3307 133.183 40.2417 133.272 40.2417H134.073C134.162 40.2417 134.251 40.3307 134.251 40.4197V42.2003C134.251 42.2003 134.251 42.2893 134.34 42.2893H135.587C135.676 42.2893 135.765 42.3784 135.765 42.4674V43.0016C135.765 43.0906 135.676 43.1797 135.587 43.1797Z" fill="white"/>
<path d="M145.024 42.8235C145.469 43.2687 145.647 43.8919 145.647 44.6041V48.0763C145.647 48.8776 145.469 49.4118 145.024 49.8569C144.578 50.3021 144.044 50.5692 143.421 50.5692C143.154 50.5692 142.798 50.4801 142.531 50.3911C142.264 50.3021 141.997 50.124 141.819 49.8569C141.819 49.8569 141.819 49.8569 141.73 49.8569C141.73 49.8569 141.73 49.8569 141.73 49.9459V53.5072C141.73 53.5962 141.641 53.6852 141.552 53.6852H140.75C140.661 53.6852 140.572 53.5962 140.572 53.5072V42.4674C140.572 42.3784 140.661 42.2893 140.75 42.2893H141.552C141.641 42.2893 141.73 42.3784 141.73 42.4674V42.8235C141.73 42.8235 141.73 42.8235 141.819 42.8235C141.997 42.5564 142.264 42.4674 142.531 42.2893C142.798 42.2003 143.065 42.1113 143.421 42.1113C144.044 42.2003 144.578 42.3784 145.024 42.8235ZM144.044 43.6248C143.777 43.3577 143.421 43.1796 143.065 43.1796C142.62 43.1796 142.353 43.3577 142.086 43.6248C141.819 43.8919 141.73 44.248 141.73 44.7822V48.0763C141.73 48.5215 141.819 48.8776 142.086 49.2337C142.353 49.5008 142.709 49.6789 143.065 49.6789C143.51 49.6789 143.777 49.5008 144.044 49.2337C144.311 48.9666 144.4 48.6105 144.4 48.0763V44.6932C144.489 44.248 144.311 43.8919 144.044 43.6248Z" fill="white"/>
<path d="M147.338 50.3911V39.2623C147.338 39.1733 147.427 39.0843 147.516 39.0843H148.317C148.406 39.0843 148.495 39.1733 148.495 39.2623V50.3021C148.495 50.3911 148.406 50.4801 148.317 50.4801H147.516C147.338 50.4801 147.338 50.4801 147.338 50.3911Z" fill="white"/>
<path d="M154.549 42.9126C154.994 43.4467 155.261 44.07 155.261 44.8712V50.3911C155.261 50.4801 155.172 50.5692 155.083 50.5692H154.282C154.193 50.5692 154.104 50.4801 154.104 50.3911V49.8569C154.104 49.8569 154.104 49.8569 154.015 49.8569C153.57 50.3911 153.036 50.6582 152.235 50.6582C151.611 50.6582 151.166 50.4801 150.721 50.124C150.276 49.7679 150.098 49.1447 150.098 48.3434C150.098 47.4531 150.365 46.7409 150.899 46.2957C151.433 45.8506 152.145 45.6725 153.036 45.6725H154.193C154.193 45.6725 154.282 45.6725 154.282 45.5835V44.9603C154.282 44.4261 154.193 43.9809 153.926 43.6248C153.659 43.2687 153.303 43.1797 152.947 43.1797C152.591 43.1797 152.324 43.2687 152.145 43.5358C151.967 43.8029 151.789 44.07 151.7 44.337C151.7 44.4261 151.611 44.5151 151.522 44.5151H150.632C150.543 44.5151 150.543 44.5151 150.543 44.4261C150.543 44.337 150.543 44.337 150.543 44.337C150.632 43.7138 150.899 43.1797 151.344 42.8235C151.789 42.4674 152.413 42.2003 153.036 42.2003C153.57 42.2003 154.104 42.3784 154.549 42.9126ZM153.659 49.2337C154.015 48.9666 154.104 48.5215 154.104 48.0763V46.7409C154.104 46.7409 154.104 46.6518 154.015 46.6518H152.858C152.324 46.6518 151.967 46.8299 151.611 47.097C151.255 47.3641 151.166 47.8092 151.166 48.3434C151.166 48.7886 151.255 49.1447 151.522 49.4118C151.789 49.6789 152.056 49.7679 152.413 49.7679C152.947 49.6789 153.303 49.5008 153.659 49.2337Z" fill="white"/>
<path d="M157.576 49.9459C157.131 49.5008 156.864 48.8776 156.864 48.1653V44.6932C156.864 43.9809 157.131 43.3577 157.576 42.9126C158.021 42.4674 158.645 42.2003 159.446 42.2003C159.98 42.2003 160.425 42.2894 160.781 42.4674C161.137 42.6455 161.493 42.9126 161.671 43.2687C161.849 43.6248 162.028 43.9809 162.028 44.4261V44.6041C162.028 44.6932 161.939 44.7822 161.849 44.7822H161.048C160.959 44.7822 160.87 44.6932 160.87 44.6041V44.5151C160.87 44.159 160.781 43.8029 160.514 43.6248C160.247 43.3577 159.891 43.2687 159.535 43.2687C159.179 43.2687 158.823 43.4467 158.556 43.7138C158.288 43.9809 158.199 44.337 158.199 44.8712V48.0763C158.199 48.5215 158.288 48.8776 158.556 49.2337C158.823 49.5008 159.179 49.6789 159.535 49.6789C159.891 49.6789 160.247 49.5898 160.514 49.3227C160.781 49.0556 160.87 48.7886 160.87 48.4324V48.3434C160.87 48.2544 160.959 48.1653 161.048 48.1653H161.849C161.939 48.1653 162.028 48.2544 162.028 48.3434V48.5215C162.028 49.1447 161.76 49.6789 161.315 50.124C160.87 50.5692 160.247 50.7472 159.446 50.7472C158.645 50.7472 158.021 50.3911 157.576 49.9459Z" fill="white"/>
<path d="M168.348 46.8299H164.609C164.609 46.8299 164.52 46.8299 164.52 46.9189V48.0763C164.52 48.5215 164.609 48.8776 164.876 49.2337C165.143 49.5008 165.499 49.6789 165.856 49.6789C166.212 49.6789 166.479 49.5898 166.746 49.3227C167.013 49.1447 167.191 48.8776 167.191 48.5215C167.191 48.4324 167.28 48.3434 167.369 48.3434H168.17C168.17 48.3434 168.259 48.3434 168.259 48.4324V48.5215C168.17 49.1447 167.903 49.6789 167.458 50.035C167.013 50.3911 166.479 50.5692 165.767 50.5692C164.965 50.5692 164.342 50.3021 163.897 49.8569C163.452 49.4118 163.185 48.7885 163.185 48.0763V44.6041C163.185 43.8919 163.452 43.2687 163.897 42.8235C164.342 42.3784 164.965 42.1113 165.767 42.1113C166.568 42.1113 167.191 42.3784 167.636 42.8235C168.081 43.2687 168.348 43.8919 168.348 44.6041V46.6518C168.526 46.8299 168.437 46.8299 168.348 46.8299ZM164.965 43.6248C164.698 43.8919 164.609 44.248 164.609 44.7822V45.8506C164.609 45.8506 164.609 45.9396 164.698 45.9396H167.369C167.369 45.9396 167.458 45.9396 167.458 45.8506V44.7822C167.458 44.337 167.369 43.9809 167.102 43.6248C166.835 43.3577 166.479 43.1796 166.034 43.1796C165.589 43.1796 165.232 43.3577 164.965 43.6248Z" fill="white"/>
</svg>
