<svg width="124" height="82" viewBox="0 0 124 82" fill="none" xmlns="http://www.w3.org/2000/svg">
<g clip-path="url(#clip0_428_1337)">
<path d="M80.5087 22.5629C80.5087 22.4404 80.5087 22.3178 80.5087 22.1397L80.2195 22.4069L76.5266 26.0933C76.0928 26.5276 76.0148 32.2073 75.8925 33.0091C75.516 35.3071 74.7367 37.5203 73.5902 39.5464C71.8963 42.5825 69.6298 45.2604 66.9163 47.4313C64.3955 49.4854 61.5546 51.1107 58.5072 52.2424C58.4859 52.2926 58.4503 52.3354 58.4049 52.3655C58.3594 52.3956 58.306 52.4116 58.2514 52.4116C58.1969 52.4116 58.1435 52.3956 58.098 52.3655C58.0525 52.3354 58.017 52.2926 57.9956 52.2424C54.9483 51.1107 52.1074 49.4854 49.5865 47.4313C46.8731 45.2604 44.6065 42.5825 42.9127 39.5464C41.7662 37.5203 40.9866 35.3071 40.6101 33.0091C40.5545 32.675 40.5213 29.1559 40.4545 25.1467V12.8962L42.2009 12.8293C44.7931 12.598 47.3497 12.0673 49.8201 11.2479C51.82 10.6333 53.7227 9.73721 55.4707 8.5863C56.405 7.9515 57.2614 7.19418 58.1512 6.47029C58.1424 6.44995 58.1388 6.42768 58.1406 6.40558C58.1425 6.38347 58.1499 6.36214 58.1621 6.34358C58.1742 6.32502 58.1907 6.30981 58.2101 6.29926C58.2296 6.28872 58.2515 6.28322 58.2737 6.28322C58.2959 6.28322 58.3175 6.28872 58.337 6.29926C58.3565 6.30981 58.3732 6.32502 58.3853 6.34358C58.3974 6.36214 58.4049 6.38347 58.4068 6.40558C58.4086 6.42768 58.4048 6.44995 58.3959 6.47029C59.2857 7.19418 60.1424 7.9515 61.0767 8.5863C62.8247 9.73721 64.7271 10.6333 66.7271 11.2479C69.1975 12.0673 71.7543 12.598 74.3465 12.8293C74.5621 12.8327 74.7716 12.7575 74.936 12.6178C75.7591 11.8605 76.5711 11.092 77.3831 10.3236C77.8391 9.90037 78.2952 9.45495 78.7846 8.98721C70.6759 8.98721 63.8351 6.19181 58.3736 0.144544V0.0332031L58.2737 0.133396L58.1735 0.0332031V0.233725C55.6664 3.06026 52.5803 5.3122 49.1251 6.83626C45.67 8.36031 41.9271 9.12057 38.152 9.0651H37.7071H35.8828V22.9861C35.8828 24.6677 35.8828 26.3271 35.8828 28.031C35.8828 29.735 35.883 31.4835 36.061 33.1985C36.2907 35.2098 36.8153 37.1762 37.6181 39.0342C38.3476 40.7905 39.2571 42.4662 40.332 44.0346C41.7555 46.1275 43.4289 48.0386 45.3152 49.7254C48.8621 52.9086 53.0276 55.3238 57.5505 56.8196H57.7732H58.0956H58.2292H58.5518H58.7742C63.2971 55.3238 67.4626 52.9086 71.0096 49.7254C72.8958 48.0386 74.5692 46.1275 75.9927 44.0346C77.0677 42.4662 77.9771 40.7905 78.7066 39.0342C79.5094 37.1762 80.0343 35.2098 80.264 33.1985C80.4198 31.4835 80.4197 29.7461 80.4419 28.031C80.4641 26.316 80.5198 24.3893 80.5087 22.5629Z" fill="#37B14A"/>
<path d="M59.8087 38.0766C59.4347 38.0777 59.064 38.0045 58.7184 37.8611C58.3728 37.7177 58.0593 37.507 57.7957 37.2413L49.1973 29.2339C48.9329 28.9685 48.7234 28.6535 48.5806 28.307C48.4378 27.9605 48.3647 27.5891 48.3652 27.2143C48.3658 26.8394 48.4398 26.4682 48.5836 26.1221C48.7273 25.7759 48.9379 25.4615 49.203 25.1968C49.4681 24.9321 49.7826 24.7223 50.1287 24.5793C50.4749 24.4364 50.8457 24.3629 51.2201 24.3635C51.5946 24.364 51.9653 24.4384 52.311 24.5823C52.6567 24.7263 52.9707 24.9369 53.2351 25.2024L59.8087 31.1828L83.6012 7.28337C84.1377 6.7616 84.8578 6.47214 85.6058 6.47762C86.3538 6.48309 87.0696 6.78304 87.5985 7.3126C88.1274 7.84217 88.427 8.55886 88.4325 9.30776C88.4379 10.0567 88.1487 10.7776 87.6276 11.3149L61.8221 37.2413C61.2882 37.776 60.5639 38.0764 59.8087 38.0766Z" fill="#30AAE1"/>
<path d="M5.71742 62.2435H3.5816C3.56657 62.2453 3.55138 62.2437 3.53707 62.2387C3.52276 62.2338 3.50976 62.2255 3.49905 62.2148C3.48834 62.2041 3.48038 62.1911 3.47542 62.1768C3.47047 62.1624 3.46875 62.1472 3.47054 62.1322V58.9694C3.4761 58.93 3.47251 58.8898 3.45994 58.8522C3.44738 58.8145 3.42608 58.7803 3.39803 58.7523C3.36998 58.7242 3.33599 58.703 3.29837 58.6904C3.26074 58.6778 3.2206 58.6742 3.18132 58.6798H1.76867C1.7294 58.6742 1.68926 58.6778 1.65163 58.6904C1.614 58.703 1.58002 58.7242 1.55197 58.7523C1.52392 58.7803 1.50262 58.8145 1.49005 58.8522C1.47749 58.8898 1.4739 58.93 1.47946 58.9694V62.1322C1.48125 62.1472 1.47953 62.1624 1.47457 62.1768C1.46962 62.1911 1.46166 62.2041 1.45095 62.2148C1.44024 62.2255 1.42724 62.2338 1.41293 62.2387C1.39862 62.2437 1.38316 62.2453 1.36812 62.2435H0.255816C0.217999 62.2379 0.179426 62.2412 0.143119 62.2532C0.106811 62.2652 0.074022 62.2855 0.0469866 62.3126C0.0199511 62.3396 -0.000501517 62.3727 -0.0124849 62.4091C-0.0244684 62.4454 -0.0278917 62.4841 -0.0222611 62.5219V63.4574C-0.0278917 63.4952 -0.0244684 63.534 -0.0124849 63.5703C-0.000501517 63.6067 0.0199511 63.6397 0.0469866 63.6667C0.074022 63.6938 0.106811 63.7141 0.143119 63.7261C0.179426 63.7381 0.217999 63.7414 0.255816 63.7358H1.36812C1.44598 63.7358 1.47946 63.7359 1.47946 63.8473V73.0796C1.41937 73.5684 1.46574 74.0644 1.61551 74.5335C1.76529 75.0026 2.01496 75.4337 2.34709 75.797C3.07408 76.3265 3.96407 76.5828 4.86092 76.5209H5.57268C5.76177 76.5209 5.85075 76.4207 5.85075 76.2313V75.0173C5.85638 74.9795 5.85323 74.9409 5.84125 74.9045C5.82927 74.8682 5.80881 74.8352 5.78178 74.8081C5.75474 74.7811 5.72168 74.7607 5.68537 74.7487C5.64907 74.7367 5.61049 74.7333 5.57268 74.7389H5.28347C5.03328 74.7688 4.77966 74.7424 4.54102 74.6614C4.30239 74.5805 4.08478 74.4472 3.90422 74.2713C3.54865 73.7451 3.39111 73.1098 3.4594 72.4783V63.8473C3.4594 63.7693 3.45951 63.7358 3.57074 63.7358H5.70628C5.89538 63.7358 5.99549 63.6467 5.99549 63.4574V62.5219C6.00662 62.3326 5.90651 62.2435 5.71742 62.2435Z" fill="#164477"/>
<path d="M21.4786 62.2658H20.1216C20.0483 62.2593 19.9752 62.281 19.9174 62.3265C19.8595 62.3721 19.8211 62.4379 19.8101 62.5108L17.7302 73.2912C17.7302 73.2912 17.7302 73.2912 17.6745 73.2912L15.5833 62.5108C15.5833 62.3437 15.4609 62.2658 15.2718 62.2658H14.0039C13.9306 62.2593 13.8575 62.281 13.7997 62.3265C13.7418 62.3721 13.7034 62.4379 13.6924 62.5108L11.6125 73.2912C11.6125 73.2912 11.6125 73.2912 11.5569 73.2912C11.5012 73.2912 11.5568 73.2912 11.5012 73.2912L9.46558 62.5108C9.46558 62.3437 9.34319 62.2658 9.1541 62.2658H7.77485C7.60801 62.2658 7.51904 62.3437 7.51904 62.5108V62.5776L10.5114 76.2869C10.5198 76.3618 10.5569 76.4305 10.6151 76.4783C10.6732 76.5262 10.7476 76.5493 10.8226 76.5431H12.2352C12.272 76.5477 12.3096 76.5447 12.3452 76.5341C12.3808 76.5235 12.4136 76.5056 12.4419 76.4815C12.4701 76.4574 12.4931 76.4275 12.5092 76.3941C12.5253 76.3606 12.5343 76.3241 12.5356 76.2869L14.5378 65.9631C14.5378 65.9631 14.5378 65.8741 14.5934 65.8741C14.6491 65.8741 14.5935 65.874 14.6602 65.9631L16.7401 76.2869C16.7485 76.3618 16.7857 76.4305 16.8438 76.4783C16.902 76.5262 16.9766 76.5493 17.0516 76.5431H18.4531C18.4905 76.5477 18.5285 76.5447 18.5647 76.5342C18.6009 76.5237 18.6347 76.5058 18.6638 76.4819C18.693 76.4579 18.7168 76.4284 18.7342 76.3949C18.7515 76.3614 18.7619 76.3246 18.7646 76.2869L21.7566 62.5999C21.79 62.3995 21.6788 62.2658 21.4786 62.2658Z" fill="#164477"/>
<path d="M35.5381 62.0429C34.888 62.039 34.2478 62.204 33.6804 62.5217C33.077 62.8636 32.5949 63.3852 32.3012 64.014C32.3012 64.014 32.3013 64.1032 32.2124 64.1032C32.1983 64.1093 32.1831 64.1124 32.1678 64.1124C32.1525 64.1124 32.1373 64.1093 32.1233 64.1032C31.8792 63.5006 31.4608 62.9848 30.9219 62.6219C30.3645 62.2659 29.7142 62.0838 29.0533 62.0985C28.5198 62.0964 27.9922 62.2105 27.507 62.4327C27.0063 62.6742 26.5714 63.0333 26.2391 63.4794C26.2391 63.4794 26.1723 63.4794 26.1389 63.4794C26.1317 63.4698 26.1278 63.4581 26.1278 63.446C26.1278 63.434 26.1317 63.4223 26.1389 63.4127V62.5328C26.1446 62.495 26.1414 62.4564 26.1294 62.42C26.1174 62.3837 26.097 62.3506 26.07 62.3235C26.0429 62.2964 26.0099 62.2761 25.9735 62.2641C25.9372 62.2521 25.8987 62.2488 25.8609 62.2544H24.4482C24.4104 62.2488 24.3718 62.2521 24.3355 62.2641C24.2992 62.2761 24.2664 62.2964 24.2394 62.3235C24.2123 62.3506 24.1919 62.3837 24.1799 62.42C24.1679 62.4564 24.1645 62.495 24.1701 62.5328V76.2423C24.1701 76.4316 24.2591 76.5317 24.4482 76.5317H25.8609C26.0499 76.5317 26.1389 76.4316 26.1389 76.2423V66.8539C26.0941 66.0612 26.3175 65.2765 26.773 64.6266C26.9713 64.3614 27.2306 64.1481 27.5288 64.0046C27.827 63.8611 28.1554 63.7918 28.486 63.8025C28.7946 63.8003 29.0987 63.8756 29.3708 64.0215C29.6428 64.1674 29.874 64.3793 30.0431 64.6377C30.4718 65.2992 30.6855 66.0772 30.655 66.8651V76.1977C30.655 76.387 30.7439 76.4872 30.933 76.4872H32.368C32.557 76.4872 32.646 76.387 32.646 76.1977V66.8539C32.6031 66.0631 32.8221 65.2801 33.269 64.6266C33.4625 64.3618 33.7176 64.1484 34.0122 64.0047C34.3069 63.8611 34.6322 63.7917 34.9597 63.8025C35.2736 63.7967 35.5838 63.8702 35.8618 64.0162C36.1398 64.1621 36.3765 64.3759 36.5502 64.6377C36.9837 65.297 37.1979 66.0766 37.1621 66.8651V76.1977C37.1621 76.387 37.2511 76.4872 37.4401 76.4872H38.8528C39.0419 76.4872 39.1309 76.387 39.1309 76.1977V66.698C39.199 65.478 38.8754 64.2683 38.2076 63.2456C37.8958 62.8407 37.489 62.519 37.0233 62.3092C36.5576 62.0994 36.0476 62.008 35.5381 62.0429Z" fill="#164477"/>
<path d="M50.2542 63.2122C49.8964 62.8153 49.4558 62.5019 48.9637 62.294C48.4717 62.0862 47.9402 61.9891 47.4066 62.0095C46.8983 62.0092 46.3951 62.1115 45.9272 62.3102C45.4511 62.5055 45.0282 62.8107 44.6926 63.2011C44.6757 63.2108 44.6565 63.216 44.637 63.216C44.6175 63.216 44.5982 63.2108 44.5813 63.2011C44.5745 63.1892 44.571 63.1759 44.571 63.1622C44.571 63.1485 44.5745 63.135 44.5813 63.1232V62.4772C44.5869 62.4393 44.5835 62.4007 44.5715 62.3643C44.5595 62.328 44.5394 62.295 44.5123 62.2679C44.4853 62.2409 44.4522 62.2205 44.4159 62.2085C44.3796 62.1965 44.341 62.1931 44.3032 62.1987H42.8683C42.6792 62.1987 42.5791 62.2878 42.5791 62.4772V81.6659C42.5791 81.8552 42.6792 81.9443 42.8683 81.9443H44.3032C44.341 81.95 44.3796 81.9465 44.4159 81.9345C44.4522 81.9225 44.4853 81.9022 44.5123 81.8751C44.5394 81.8481 44.5595 81.8151 44.5715 81.7787C44.5835 81.7424 44.5869 81.7038 44.5813 81.6659V75.5407C44.5754 75.5285 44.5723 75.5152 44.5723 75.5017C44.5723 75.4882 44.5754 75.4748 44.5813 75.4627C44.5813 75.4627 44.6481 75.4627 44.6815 75.4627C45.0143 75.8615 45.4375 76.1747 45.916 76.3759C46.3911 76.5768 46.9021 76.6789 47.4177 76.6765C47.9484 76.6974 48.4773 76.6038 48.9686 76.402C49.4599 76.2003 49.9021 75.8951 50.2653 75.5072C51.0306 74.6411 51.4295 73.5108 51.3776 72.3555V66.2637C51.3952 65.142 50.9946 64.0541 50.2542 63.2122ZM49.3531 72.2887C49.3839 73.0086 49.1323 73.712 48.6523 74.2488C48.433 74.4959 48.1616 74.6911 47.8577 74.8202C47.5537 74.9492 47.2249 75.009 46.895 74.995C46.5737 75.0054 46.2542 74.9437 45.9597 74.8146C45.6653 74.6855 45.4034 74.4922 45.1931 74.2488C44.7332 73.7023 44.4949 73.0027 44.5256 72.2887V66.4753C44.4904 65.7607 44.7292 65.0596 45.1931 64.5153C45.4034 64.2718 45.6653 64.0786 45.9597 63.9495C46.2542 63.8204 46.5737 63.7587 46.895 63.7691C47.2249 63.7551 47.5537 63.8148 47.8577 63.9439C48.1616 64.0729 48.433 64.2681 48.6523 64.5153C49.1354 65.0502 49.3875 65.7549 49.3531 66.4753V72.2887Z" fill="#164477"/>
<path d="M62.4003 62.2659H60.7653C60.7287 62.2612 60.6916 62.2639 60.6561 62.2738C60.6206 62.2836 60.5873 62.3003 60.5583 62.3231C60.5294 62.3459 60.5051 62.3742 60.4872 62.4065C60.4692 62.4387 60.4579 62.4742 60.4538 62.5109L58.0513 73.2133V73.2913C58.0513 73.2913 58.0512 73.2912 57.9956 73.2133L55.5709 62.5109C55.5625 62.4389 55.5262 62.3732 55.4701 62.3275C55.4141 62.2817 55.3426 62.2596 55.2705 62.2659H53.6352C53.4572 62.2659 53.3794 62.3328 53.3794 62.4553V62.5778L56.8833 76.287C56.8861 76.3236 56.896 76.3594 56.9127 76.3921C56.9293 76.4248 56.9524 76.4538 56.9803 76.4776C57.0082 76.5014 57.0404 76.5195 57.0753 76.5308C57.1102 76.542 57.1471 76.5462 57.1837 76.5432H58.8744C59.0635 76.5432 59.1748 76.4541 59.1859 76.287L62.6561 62.6C62.6757 62.5662 62.686 62.5277 62.686 62.4886C62.686 62.4495 62.6757 62.4111 62.6561 62.3772C62.6263 62.3386 62.5874 62.3081 62.5426 62.2886C62.4979 62.2691 62.4489 62.2613 62.4003 62.2659Z" fill="#37B34A"/>
<path d="M68.9296 62.0095C68.3438 61.9823 67.7587 62.0749 67.2098 62.2817C66.6609 62.4885 66.16 62.8051 65.7374 63.2122C65.3351 63.6224 65.021 64.1106 64.8144 64.6469C64.6078 65.1832 64.513 65.7562 64.536 66.3306V72.4224C64.5099 73.0004 64.6033 73.5777 64.81 74.118C65.0167 74.6584 65.3323 75.1502 65.7374 75.5629C66.1629 75.9644 66.6648 76.2759 67.2133 76.4788C67.7618 76.6816 68.3455 76.7716 68.9296 76.7434C70.0077 76.7932 71.0674 76.4488 71.9108 75.7746C72.679 75.0959 73.1668 74.1548 73.2789 73.1351C73.2898 73.097 73.2912 73.0567 73.2832 73.0178C73.2752 72.9789 73.2579 72.9426 73.2327 72.9119C73.2075 72.8812 73.1753 72.8571 73.1387 72.8416C73.1022 72.8262 73.0626 72.8199 73.0231 72.8233H71.6104C71.5366 72.8221 71.4646 72.8472 71.4076 72.8941C71.3505 72.941 71.3121 73.0067 71.2989 73.0794C71.1856 73.6312 70.8969 74.1313 70.4758 74.5049C70.0427 74.867 69.4937 75.0607 68.9296 75.0506C68.6052 75.0597 68.2829 74.9976 67.9851 74.8687C67.6873 74.7398 67.4214 74.5472 67.2057 74.3044C66.7472 73.7658 66.5087 73.0737 66.5382 72.3666V70.3064C66.5364 70.2913 66.5382 70.2761 66.5431 70.2618C66.5481 70.2474 66.556 70.2344 66.5667 70.2237C66.5774 70.213 66.5904 70.2047 66.6048 70.1998C66.6191 70.1948 66.6345 70.1932 66.6496 70.195H73.0787C73.1165 70.2007 73.1551 70.1974 73.1914 70.1854C73.2277 70.1734 73.2605 70.153 73.2876 70.126C73.3146 70.0989 73.335 70.0658 73.347 70.0294C73.359 69.9931 73.3624 69.9545 73.3568 69.9166V66.3862C73.3787 65.8129 73.2843 65.2412 73.0798 64.7053C72.8753 64.1695 72.5647 63.6806 72.1666 63.268C71.7415 62.848 71.2348 62.5196 70.6781 62.3032C70.1214 62.0867 69.5263 61.9868 68.9296 62.0095ZM71.388 68.3574C71.3896 68.373 71.3877 68.3887 71.3828 68.4035C71.378 68.4183 71.37 68.4319 71.3595 68.4435C71.349 68.455 71.3363 68.4643 71.322 68.4705C71.3077 68.4768 71.2923 68.48 71.2767 68.4799H66.6496C66.5717 68.4799 66.5382 68.4799 66.5382 68.3574V66.4754C66.503 65.7607 66.7418 65.0596 67.2057 64.5153C67.4214 64.2726 67.6873 64.08 67.9851 63.9511C68.2829 63.8222 68.6052 63.76 68.9296 63.7691C69.2631 63.7517 69.5964 63.8098 69.9045 63.939C70.2126 64.0682 70.4877 64.2651 70.7094 64.5153C71.1813 65.0556 71.4248 65.7586 71.388 66.4754V68.3574Z" fill="#37B34A"/>
<path d="M81.1429 62.0984C80.5213 62.1083 79.9204 62.3249 79.4351 62.714C78.9498 63.1031 78.6076 63.6427 78.4621 64.2479C78.4291 64.2551 78.3951 64.2551 78.3622 64.2479C78.3622 64.2479 78.3622 64.2478 78.3622 64.1587V62.466C78.3678 62.4281 78.3644 62.3894 78.3524 62.353C78.3404 62.3167 78.32 62.2837 78.2929 62.2566C78.2659 62.2296 78.2331 62.2092 78.1968 62.1972C78.1605 62.1852 78.1219 62.182 78.0841 62.1876H76.6492C76.4601 62.1876 76.36 62.2767 76.36 62.466V76.1753C76.3544 76.2146 76.358 76.2547 76.3706 76.2923C76.3831 76.33 76.4041 76.3643 76.4322 76.3924C76.4602 76.4205 76.4945 76.4417 76.5321 76.4543C76.5698 76.4668 76.6099 76.4704 76.6492 76.4649H78.0841C78.2732 76.4649 78.3622 76.3646 78.3622 76.1753V67.7114C78.338 66.8531 78.5618 66.0061 79.0071 65.2724C79.1706 64.9623 79.4088 64.6981 79.7001 64.5036C79.9915 64.3091 80.3268 64.1905 80.6756 64.1587C80.7864 64.1452 80.8985 64.1452 81.0093 64.1587C81.3002 64.1481 81.5896 64.2053 81.8547 64.3258C82.066 64.3258 82.1773 64.3257 82.1996 64.1587L82.5333 62.6887C82.5563 62.6214 82.5554 62.5482 82.5311 62.4814C82.5069 62.4145 82.4605 62.3581 82.3997 62.3212C82.0115 62.1256 81.5746 62.0481 81.1429 62.0984Z" fill="#37B34A"/>
<path d="M86.4931 62.2432H85.0471C84.8935 62.2432 84.769 62.3678 84.769 62.5216V76.2421C84.769 76.3958 84.8935 76.5205 85.0471 76.5205H86.4931C86.6467 76.5205 86.7712 76.3958 86.7712 76.2421V62.5216C86.7712 62.3678 86.6467 62.2432 86.4931 62.2432Z" fill="#37B34A"/>
<path d="M85.7589 56.4855C85.3457 56.479 84.9464 56.635 84.6466 56.9199C84.4215 57.1413 84.2674 57.4249 84.2037 57.7344C84.14 58.0438 84.1695 58.3652 84.2887 58.6577C84.408 58.9502 84.6116 59.2007 84.8734 59.3771C85.1352 59.5536 85.4434 59.648 85.7589 59.6485C85.9659 59.6546 86.1718 59.617 86.3634 59.5384C86.555 59.4597 86.7281 59.3417 86.8712 59.1918C87.1382 58.8824 87.2851 58.4871 87.2851 58.0782C87.2851 57.6693 87.1382 57.274 86.8712 56.9645C86.7292 56.8117 86.5568 56.6902 86.3653 56.6078C86.1738 56.5253 85.9674 56.4837 85.7589 56.4855Z" fill="#37B34A"/>
<path d="M95.3137 56.5636H94.9243C94.3688 56.509 93.8082 56.5808 93.2843 56.7737C92.7604 56.9665 92.2867 57.2754 91.8988 57.6773C91.2067 58.7258 90.8891 59.9778 90.9978 61.2299V62.1432C90.9996 62.1582 90.9979 62.1734 90.9929 62.1878C90.988 62.2021 90.98 62.2151 90.9693 62.2258C90.9586 62.2366 90.9456 62.2448 90.9313 62.2498C90.917 62.2547 90.9018 62.2563 90.8867 62.2545H89.7744C89.7366 62.2489 89.6978 62.2522 89.6615 62.2642C89.6252 62.2762 89.5924 62.2965 89.5653 62.3236C89.5383 62.3506 89.5178 62.3838 89.5059 62.4201C89.4939 62.4565 89.4907 62.4951 89.4964 62.5329V63.4684C89.4907 63.5063 89.4939 63.545 89.5059 63.5814C89.5178 63.6177 89.5383 63.6507 89.5653 63.6777C89.5924 63.7048 89.6252 63.7252 89.6615 63.7372C89.6978 63.7492 89.7366 63.7524 89.7744 63.7468H90.8867C90.9646 63.7468 90.9978 63.7469 90.9978 63.8583V76.2424C90.9922 76.2817 90.9958 76.3217 91.0084 76.3594C91.021 76.3971 91.0423 76.4312 91.0703 76.4593C91.0984 76.4874 91.1324 76.5086 91.17 76.5212C91.2076 76.5338 91.2477 76.5374 91.287 76.5318H92.6885C92.7278 76.5374 92.768 76.5338 92.8056 76.5212C92.8432 76.5086 92.8772 76.4874 92.9052 76.4593C92.9333 76.4312 92.9546 76.3971 92.9672 76.3594C92.9797 76.3217 92.9833 76.2817 92.9777 76.2424V63.8471C92.9777 63.7692 92.9779 63.7357 93.0891 63.7357H95.3137C95.3515 63.7413 95.3901 63.738 95.4264 63.726C95.4627 63.714 95.4955 63.6937 95.5225 63.6666C95.5496 63.6395 95.57 63.6066 95.582 63.5702C95.594 63.5339 95.5974 63.4951 95.5918 63.4572V62.5218C95.5974 62.4839 95.594 62.4453 95.582 62.409C95.57 62.3726 95.5496 62.3395 95.5225 62.3124C95.4955 62.2854 95.4627 62.265 95.4264 62.253C95.3901 62.241 95.3515 62.2377 95.3137 62.2434H93.0891C93.0741 62.2452 93.0586 62.2436 93.0443 62.2386C93.03 62.2337 93.017 62.2254 93.0063 62.2147C92.9956 62.204 92.9876 62.1909 92.9826 62.1766C92.9777 62.1623 92.976 62.1471 92.9777 62.132V61.2856C92.925 60.5167 93.0785 59.7477 93.4226 59.0583C93.5878 58.8112 93.8166 58.6135 94.0849 58.4861C94.3532 58.3586 94.651 58.3062 94.9466 58.3344H95.2803C95.4694 58.3344 95.5695 58.2453 95.5695 58.0559V56.9423C95.5918 56.6638 95.5028 56.5636 95.3137 56.5636Z" fill="#37B34A"/>
<path d="M99.3958 56.4854C99.1908 56.4797 98.9867 56.5153 98.7956 56.5899C98.6046 56.6645 98.4305 56.7766 98.2835 56.9198C98.0165 57.2292 97.8696 57.6245 97.8696 58.0334C97.8696 58.4423 98.0165 58.8376 98.2835 59.1471C98.4279 59.2953 98.6011 59.4122 98.7924 59.4908C98.9837 59.5693 99.1891 59.6078 99.3958 59.6037C99.6028 59.6098 99.8087 59.5723 100 59.4936C100.192 59.415 100.365 59.2969 100.508 59.1471C100.782 58.8408 100.933 58.4443 100.933 58.0334C100.933 57.6225 100.782 57.226 100.508 56.9198C100.362 56.7751 100.188 56.6619 99.997 56.5872C99.8057 56.5125 99.601 56.4778 99.3958 56.4854Z" fill="#37B34A"/>
<path d="M100.141 62.2432H98.6951C98.5415 62.2432 98.417 62.3678 98.417 62.5216V76.2421C98.417 76.3958 98.5415 76.5205 98.6951 76.5205H100.141C100.295 76.5205 100.419 76.3958 100.419 76.2421V62.5216C100.419 62.3678 100.295 62.2432 100.141 62.2432Z" fill="#37B34A"/>
<path d="M108.138 62.0098C107.551 61.9817 106.963 62.0739 106.413 62.2807C105.862 62.4875 105.359 62.8045 104.935 63.2125C104.535 63.6236 104.222 64.1123 104.018 64.6485C103.813 65.1848 103.72 65.7573 103.745 66.3309V72.4227C103.717 72.9999 103.809 73.5766 104.013 74.117C104.218 74.6573 104.532 75.1495 104.935 75.5632C105.362 75.9655 105.866 76.2776 106.416 76.4804C106.967 76.6832 107.552 76.7728 108.138 76.7437C109.212 76.7907 110.268 76.4465 111.108 75.7748C111.88 75.0989 112.368 74.1563 112.476 73.1354C112.489 73.095 112.49 73.0519 112.481 73.0108C112.471 72.9696 112.45 72.9319 112.421 72.9016C112.394 72.8754 112.363 72.8549 112.329 72.8415C112.294 72.8281 112.257 72.822 112.22 72.8236H110.819C110.745 72.8224 110.673 72.8475 110.616 72.8944C110.559 72.9413 110.521 73.007 110.507 73.0797C110.39 73.6326 110.098 74.1327 109.673 74.5052C109.245 74.8674 108.699 75.0613 108.138 75.0509C107.812 75.0616 107.488 75.0003 107.188 74.8713C106.888 74.7424 106.62 74.5489 106.403 74.3047C105.945 73.7661 105.706 73.074 105.736 72.3669V70.3066C105.736 70.291 105.739 70.2757 105.745 70.2614C105.751 70.2471 105.76 70.2342 105.772 70.2237C105.784 70.2132 105.797 70.2052 105.812 70.2003C105.827 70.1954 105.843 70.1937 105.858 70.1953H112.276C112.465 70.1953 112.565 70.1062 112.565 69.9169V66.3865C112.588 65.8121 112.494 65.2392 112.287 64.7029C112.08 64.1666 111.766 63.6784 111.364 63.2683C110.941 62.8491 110.436 62.5211 109.881 62.3047C109.326 62.0882 108.733 61.9879 108.138 62.0098ZM110.585 68.3577C110.585 68.4357 110.585 68.4802 110.474 68.4802H105.858C105.842 68.4819 105.825 68.48 105.809 68.4745C105.794 68.4689 105.779 68.46 105.768 68.4482C105.756 68.4365 105.747 68.4223 105.741 68.4066C105.736 68.391 105.734 68.3742 105.736 68.3577V66.4757C105.7 65.761 105.939 65.0599 106.403 64.5156C106.62 64.2714 106.888 64.0779 107.188 63.949C107.488 63.82 107.812 63.7587 108.138 63.7694C108.47 63.7537 108.801 63.8126 109.107 63.9417C109.413 64.0709 109.686 64.2669 109.907 64.5156C110.379 65.0558 110.622 65.7588 110.585 66.4757V68.3577Z" fill="#37B34A"/>
<path d="M123.722 56.7642H122.287C122.249 56.759 122.21 56.7626 122.173 56.7745C122.137 56.7865 122.103 56.8066 122.075 56.8334C122.047 56.8602 122.026 56.893 122.013 56.9292C121.999 56.9655 121.994 57.0042 121.998 57.0426V63.1678C122.004 63.1819 122.007 63.1971 122.007 63.2124C122.007 63.2278 122.004 63.243 121.998 63.257C121.998 63.257 121.931 63.257 121.898 63.257C121.566 62.8657 121.151 62.5535 120.684 62.3435C120.216 62.1334 119.707 62.0309 119.195 62.0432C118.658 62.0173 118.122 62.1096 117.624 62.3136C117.126 62.5175 116.679 62.8281 116.314 63.2236C115.552 64.0869 115.153 65.2127 115.202 66.3642V72.4226C115.159 73.5665 115.557 74.6832 116.314 75.5409C116.676 75.9417 117.122 76.2573 117.62 76.4652C118.118 76.6731 118.656 76.7682 119.195 76.7436C119.704 76.7561 120.21 76.6569 120.677 76.453C121.144 76.249 121.561 75.9453 121.898 75.5631C121.898 75.5631 121.965 75.5631 121.998 75.5631C122.004 75.5771 122.007 75.5923 122.007 75.6077C122.007 75.623 122.004 75.6382 121.998 75.6522V76.2647C121.993 76.304 121.996 76.3442 122.009 76.3819C122.021 76.4195 122.042 76.4537 122.07 76.4818C122.098 76.5099 122.133 76.5311 122.17 76.5437C122.208 76.5562 122.248 76.5598 122.287 76.5543H123.722C123.911 76.5543 124 76.454 124 76.2647V57.0761C124.012 57.0359 124.014 56.9933 124.005 56.9524C123.996 56.9114 123.976 56.8734 123.948 56.8421C123.921 56.8108 123.885 56.7872 123.846 56.7736C123.806 56.7599 123.763 56.7567 123.722 56.7642ZM121.998 72.3557C122.031 73.0613 121.796 73.7534 121.342 74.2936C121.129 74.5334 120.866 74.7242 120.572 74.853C120.279 74.9818 119.96 75.0455 119.64 75.0397C119.309 75.0507 118.979 74.9897 118.674 74.8609C118.369 74.7321 118.095 74.5386 117.871 74.2936C117.402 73.7601 117.155 73.0662 117.182 72.3557V66.52C117.149 65.8019 117.396 65.0991 117.871 64.5599C118.095 64.3149 118.369 64.1214 118.674 63.9926C118.979 63.8638 119.309 63.8028 119.64 63.8139C119.96 63.8081 120.279 63.8717 120.572 64.0005C120.866 64.1293 121.129 64.3201 121.342 64.5599C121.802 65.1059 122.036 65.8069 121.998 66.52V72.3557Z" fill="#37B34A"/>
</g>
<defs>
<clipPath id="clip0_428_1337">
<rect width="124" height="82" fill="white"/>
</clipPath>
</defs>
</svg>
