<svg width="31" height="25" viewBox="0 0 31 25" fill="none" xmlns="http://www.w3.org/2000/svg">
<path d="M30.5259 4.35124C30.439 4.15433 30.2828 3.98934 30.0822 3.88213C29.8816 3.77492 29.6477 3.73157 29.4172 3.75888H8.19229C8.08906 3.75978 7.98839 3.7312 7.90383 3.67713C7.81926 3.62306 7.75514 3.5462 7.72074 3.45731C7.43774 2.75723 7.13114 2.06793 6.82456 1.37862C6.73412 1.19456 6.58886 1.03741 6.4054 0.92506C6.22194 0.812711 6.00779 0.749685 5.78703 0.743164C4.50175 0.743164 3.21645 0.743164 1.94295 0.743164C1.69616 0.758023 1.45894 0.836435 1.25894 0.969334C1.0982 1.08496 0.984196 1.24624 0.935076 1.42766C0.885956 1.60907 0.904552 1.80025 0.987759 1.97098C1.05932 2.13726 1.18435 2.27981 1.34646 2.3798C1.50856 2.47979 1.70014 2.53252 1.89574 2.53103H4.94959C5.02075 2.52297 5.09279 2.53798 5.15312 2.5734C5.21344 2.60882 5.25827 2.66244 5.27979 2.72492C5.50383 3.25267 5.73976 3.80196 5.9756 4.2974C7.31198 7.33467 8.64037 10.3755 9.96103 13.42C10.0197 13.5881 10.0197 13.7688 9.96103 13.937C9.53653 14.8848 9.10041 15.8218 8.66412 16.7588C8.5335 16.9525 8.47963 17.1812 8.51183 17.4068C8.54404 17.6323 8.66025 17.8409 8.84088 17.9974C9.08571 18.1712 9.39248 18.2556 9.70165 18.2344H26.0686C26.2266 18.2264 26.3801 18.184 26.5165 18.1107C26.6529 18.0373 26.7682 17.9352 26.8525 17.8129C26.9368 17.6905 26.9877 17.5515 27.001 17.4075C27.0144 17.2634 26.9899 17.1186 26.9294 16.985C26.8289 16.7846 26.6589 16.6201 26.4457 16.5169C26.2325 16.4137 25.9881 16.3776 25.7502 16.4142H10.928C11.1874 15.8541 11.4352 15.3371 11.6592 14.8094C11.6887 14.7214 11.7504 14.6454 11.8343 14.5943C11.9181 14.5433 12.0187 14.5203 12.119 14.5293L14.4773 14.3678L19.194 14.0231L22.8967 13.7539C24.4296 13.6461 25.9742 13.5169 27.5189 13.42C27.7816 13.3984 28.0302 13.3029 28.2309 13.1466C28.4315 12.9903 28.5742 12.781 28.6391 12.5476C28.7806 11.966 28.934 11.3844 29.0755 10.8028C29.5708 8.84254 30.0621 6.88949 30.5495 4.94363C30.5942 4.74734 30.5861 4.54404 30.5259 4.35124ZM28.0849 6.72075C27.7076 8.22861 27.3185 9.74724 26.9057 11.2551C26.8905 11.3268 26.8499 11.3919 26.7903 11.4406C26.7307 11.4892 26.6552 11.5186 26.5755 11.5244L22.7079 11.7829L16.812 12.2244L12.9207 12.4937L11.7416 12.5907C10.6921 10.2104 9.65456 7.83009 8.60511 5.42828H28.3325C28.2617 5.84833 28.1557 6.26839 28.0849 6.72075ZM12.7558 18.7406C12.3192 18.7406 11.8871 18.8196 11.4842 18.9732C11.0813 19.1268 10.7157 19.3518 10.4087 19.6353C10.1016 19.9187 9.85914 20.255 9.69532 20.6246C9.53149 20.9942 9.44939 21.3899 9.45407 21.7886C9.46953 22.5819 9.82552 23.338 10.4452 23.8939C11.065 24.4499 11.8989 24.7614 12.7676 24.7613C13.6373 24.7528 14.4686 24.4335 15.0836 23.8718C15.6986 23.3101 16.0483 22.5506 16.0575 21.7563C16.0513 20.9582 15.7014 20.1944 15.0836 19.6301C14.4657 19.0658 13.6295 18.7462 12.7558 18.7406ZM12.7558 22.9518C12.4076 22.949 12.0748 22.8206 11.8297 22.5947C11.5845 22.3688 11.4468 22.0636 11.4468 21.7455C11.445 21.5844 11.4794 21.4246 11.5475 21.276C11.6157 21.1274 11.7163 20.993 11.8432 20.8811C11.9701 20.7692 12.1206 20.6821 12.2857 20.6252C12.4507 20.5682 12.6268 20.5427 12.803 20.55C12.9743 20.5499 13.1437 20.5814 13.3013 20.6425C13.459 20.7036 13.6016 20.7932 13.7205 20.9058C13.8394 21.0184 13.9322 21.1518 13.9934 21.2979C14.0545 21.444 14.0829 21.5999 14.0766 21.7563C14.0766 21.9142 14.0423 22.0706 13.9758 22.2163C13.9093 22.3621 13.8116 22.4943 13.6888 22.6055C13.566 22.7166 13.4203 22.8045 13.2602 22.8639C13.1 22.9234 12.9287 22.9532 12.7558 22.9518ZM22.6961 18.7406C22.2615 18.7377 21.8308 18.8133 21.4282 18.9629C21.0257 19.1125 20.6593 19.3332 20.3504 19.6124C20.0415 19.8916 19.7959 20.2237 19.6278 20.5898C19.4597 20.9558 19.3726 21.3486 19.371 21.7455C19.3796 22.53 19.7188 23.2813 20.3184 23.843C20.918 24.4047 21.7318 24.7336 22.5901 24.7613C23.445 24.7714 24.2717 24.4826 24.9009 23.9539C25.5302 23.4253 25.914 22.6968 25.9742 21.9178C25.9947 21.5127 25.9264 21.108 25.7729 20.7275C25.6195 20.3469 25.3842 19.9983 25.0809 19.7022C24.7775 19.406 24.4123 19.1684 24.0068 19.0032C23.6013 18.8381 23.1636 18.7488 22.7197 18.7406H22.6961ZM22.6961 22.9518C22.5222 22.9547 22.3495 22.9259 22.1879 22.8671C22.0264 22.8083 21.8793 22.7207 21.7553 22.6094C21.6312 22.4981 21.5329 22.3653 21.4656 22.2188C21.3984 22.0723 21.3637 21.9151 21.3637 21.7563C21.3605 21.5961 21.3928 21.4371 21.4587 21.2887C21.5247 21.1403 21.6229 21.0056 21.7475 20.8929C21.872 20.7801 22.0203 20.6916 22.1833 20.6327C22.3464 20.5737 22.5208 20.5456 22.6961 20.55C22.8694 20.5485 23.0413 20.5788 23.2016 20.639C23.3619 20.6993 23.5074 20.7883 23.6294 20.9007C23.7514 21.0132 23.8476 21.1468 23.9121 21.2938C23.9766 21.4407 24.0082 21.598 24.0051 21.7563C23.9991 22.0698 23.8609 22.3692 23.6193 22.5919C23.3776 22.8146 23.051 22.9435 22.7079 22.9518H22.6961Z" fill="#37B04A"/>
</svg>
