<svg width="24" height="23" viewBox="0 0 24 23" fill="none" xmlns="http://www.w3.org/2000/svg">
<path d="M11.8948 17.87C11.7334 17.7906 11.4913 17.7906 11.3299 17.7111C9.95794 17.314 8.90882 16.4404 8.1825 15.3285C7.05267 13.6606 6.81057 11.8339 7.37548 9.92774C7.85969 8.41871 8.66671 6.98911 9.55443 5.71835C10.2807 4.68586 11.0878 3.65337 11.9755 2.7003C12.2983 2.38261 12.7825 2.38261 13.0246 2.7003C14.6386 4.4476 16.172 6.35373 17.1404 8.57756C17.7053 9.7689 18.0281 11.0397 17.9474 12.4693C17.786 14.4548 16.8983 16.1227 15.2036 17.2346C14.7193 17.5523 14.0737 17.7906 13.5088 17.87C13.2667 17.87 13.186 17.9494 13.2667 18.1877C13.2667 18.5054 13.2667 18.9025 13.2667 19.2202C13.2667 19.4584 13.1053 19.6173 12.8632 19.6967C12.6211 19.7761 12.379 19.7761 12.2176 19.5378C12.1369 19.4584 12.0562 19.2202 12.0562 19.0613C11.8948 18.7436 11.8948 18.3465 11.8948 17.87ZM9.55443 8.18045C9.15092 8.97467 8.74741 9.76889 8.58601 10.6425C8.58601 10.722 8.66671 10.8014 8.66671 10.8808C9.71583 11.8339 10.765 12.8664 11.8141 13.8194L11.8948 13.8989C11.8948 12.7869 11.8948 11.675 11.8948 10.5631C11.8948 10.4837 11.8948 10.4043 11.8141 10.4043C11.0878 9.61005 10.3614 8.89525 9.55443 8.18045ZM15.6071 8.18045C15.5264 8.18045 15.5264 8.18045 15.6071 8.18045C14.8 8.97467 14.0737 9.61005 13.3474 10.3249C13.2667 10.4043 13.2667 10.4837 13.2667 10.5631C13.2667 11.5956 13.2667 12.6281 13.2667 13.6606C13.2667 13.74 13.2667 13.74 13.2667 13.8989C13.3474 13.8194 13.4281 13.74 13.4281 13.74C14.3965 12.7869 15.4457 11.8339 16.4141 10.8808C16.5755 10.722 16.5755 10.6425 16.5755 10.4043C16.2527 9.61005 16.0106 8.89525 15.6071 8.18045ZM13.186 16.6786C15.1229 16.4404 16.6562 14.296 16.7369 12.3104C16.7369 12.3104 16.6562 12.3104 16.6562 12.3898C15.5264 13.4223 14.3965 14.5342 13.2667 15.5667C13.2667 15.5667 13.186 15.6462 13.186 15.7256C13.186 15.9638 13.186 16.361 13.186 16.6786ZM8.50531 12.231C8.42461 12.3104 8.42461 12.3104 8.50531 12.231C8.58601 14.3754 10.2 16.361 11.9755 16.6786C11.9755 16.361 11.9755 16.0433 11.9755 15.805C11.9755 15.7256 11.8948 15.5667 11.8141 15.4873C10.765 14.4548 9.63513 13.4223 8.58601 12.3898C8.50531 12.3898 8.50531 12.3104 8.50531 12.231ZM11.8948 8.7364V4.76529C11.8948 4.76529 11.8948 4.76529 11.8141 4.76529C11.2492 5.48009 10.765 6.27431 10.2 6.98911C10.2 7.06853 10.2 7.14796 10.2 7.14796C10.5229 7.46565 10.8457 7.78334 11.2492 8.10103C11.4106 8.33929 11.6527 8.49814 11.8948 8.7364ZM14.9614 7.06853L13.2667 4.76529C13.2667 4.76529 13.2667 4.76529 13.186 4.76529V8.65698L14.9614 7.06853Z" fill="#35B34A"/>
<path d="M17.7053 19.2996C17.1404 19.2996 16.5755 19.2996 16.0913 19.2996C15.8492 19.2996 15.607 19.1408 15.5263 18.9025C15.4456 18.6643 15.5263 18.3466 15.6878 18.2672C15.8492 18.1877 16.0106 18.1083 16.172 18.1083C17.0597 18.1083 17.9474 18.1083 18.8351 18.1083C19.3193 18.1083 19.5614 18.3466 19.5614 18.8231C19.5614 19.6968 19.5614 20.491 19.5614 21.3646C19.5614 21.7617 19.4 22 19.0772 22C18.6737 22.0794 18.3509 21.7617 18.3509 21.3646C18.3509 21.0469 18.3509 20.7292 18.3509 20.3321C18.1895 20.4116 18.1088 20.4116 18.0281 20.491C16.6562 21.2058 15.1228 21.6823 13.5088 21.7617C11.572 21.9206 9.71582 21.6823 7.85968 20.8881C5.92284 20.0939 4.3895 18.9025 3.17898 17.3141C1.96845 15.8051 1.24214 14.0578 1.08073 12.1516C0.757925 9.68954 1.32284 7.38629 2.61407 5.24188C2.85617 4.92419 3.17898 4.84477 3.50178 5.00362C3.74389 5.16246 3.90529 5.55957 3.66319 5.79784C3.09828 6.75091 2.69477 7.70398 2.45266 8.73647C1.96845 10.6426 2.12986 12.5487 2.85617 14.296C4.2281 17.5524 6.72986 19.6173 10.3614 20.3321C12.8632 20.8087 15.2035 20.4116 17.4632 19.2202C17.5439 19.3791 17.6246 19.3791 17.7053 19.2996Z" fill="#35B34A"/>
<path d="M6.48776 1.66787C6.81057 1.50903 7.13338 1.35018 7.45618 1.19134C8.58601 0.714801 9.71583 0.31769 10.9264 0.238267C13.4281 -0.0794224 15.8492 0.31769 18.0281 1.50903C20.6913 2.93863 22.4667 5.00361 23.4351 7.78339C23.9193 9.29242 24.0807 10.8014 23.9193 12.3899C23.7579 13.9783 23.193 15.4079 22.3053 16.7581C22.1439 17.0758 21.8211 17.1552 21.4983 17.0758C21.0948 16.917 20.9334 16.5199 21.1755 16.2022C21.4176 15.7256 21.7404 15.2491 21.9825 14.7726C22.6281 13.1841 22.8702 11.5957 22.6281 9.9278C22.386 7.94224 21.4983 6.19495 20.1264 4.68592C18.593 3.09747 16.8176 2.06498 14.5579 1.66787C12.4597 1.03249 10.3614 1.27076 8.2632 2.1444C7.94039 2.30325 7.61759 2.46209 7.29478 2.70036C7.37548 2.70036 7.37548 2.70036 7.45618 2.70036C7.85969 2.70036 8.2632 2.70036 8.66671 2.70036C9.07022 2.70036 9.31232 2.93863 9.31232 3.33574C9.31232 3.65343 9.07022 3.8917 8.66671 3.8917C7.69829 3.8917 6.81057 3.8917 5.84215 3.8917C5.43864 3.8917 5.19653 3.65343 5.19653 3.25632C5.19653 2.38267 5.19653 1.50903 5.19653 0.635379C5.27723 0.238267 5.51934 0 5.92285 0C6.24566 0 6.56846 0.238267 6.56846 0.635379C6.48776 0.953069 6.48776 1.27076 6.48776 1.66787Z" fill="#35B34A"/>
</svg>
