<svg width="27" height="24" viewBox="0 0 27 24" fill="none" xmlns="http://www.w3.org/2000/svg">
<path d="M5.12817 21.1625C5.83459 20.3289 6.54104 19.5094 7.27572 18.6476C7.43584 18.4256 7.64894 18.2473 7.89574 18.1288C8.14253 18.0104 8.41516 17.9555 8.68856 17.9695C11.6979 17.9695 14.7215 17.9695 17.7449 17.9695C17.8806 17.9496 18.0191 17.9666 18.1459 18.0188C18.2727 18.071 18.383 18.1565 18.4653 18.2661C18.5266 18.3628 18.5618 18.4736 18.5676 18.5879C18.5734 18.7022 18.5494 18.816 18.4983 18.9184C18.4471 19.0207 18.3705 19.1083 18.2756 19.1722C18.1807 19.2362 18.0708 19.2743 17.9567 19.2833H8.73099C8.64951 19.2787 8.56815 19.2943 8.49419 19.3288C8.42024 19.3634 8.35591 19.4159 8.30707 19.4813L5.48138 22.773C5.34955 22.9377 5.17155 23.0595 4.97019 23.1224C4.76883 23.1853 4.55319 23.1865 4.35104 23.1262C4.14274 23.0565 3.96466 22.9177 3.8464 22.7326C3.72814 22.5475 3.6769 22.3273 3.70118 22.109V19.2833C3.37623 19.2833 3.0512 19.2833 2.74037 19.2833C2.21344 19.226 1.72057 18.9949 1.33943 18.6266C0.958287 18.2582 0.710548 17.7736 0.63525 17.2489C0.63525 17.0935 0.63525 16.9238 0.63525 16.7684V7.45798C0.623867 7.12809 0.679103 6.79925 0.797541 6.49114C0.915978 6.18302 1.09518 5.90201 1.3246 5.66468C1.55402 5.42735 1.82902 5.23849 2.13295 5.10968C2.43687 4.98087 2.76349 4.9146 3.09358 4.9148C3.24523 4.92522 3.38874 4.98723 3.50009 5.09071C3.61144 5.19419 3.684 5.33276 3.7055 5.48324C3.72699 5.63373 3.69615 5.787 3.61823 5.91751C3.54031 6.04803 3.41993 6.14788 3.27726 6.20036C3.17411 6.21415 3.06963 6.21415 2.96648 6.20036C2.70735 6.21733 2.46358 6.32898 2.28127 6.5139C2.09895 6.69882 1.99085 6.94408 1.97756 7.20342C1.97087 7.29749 1.97087 7.3922 1.97756 7.48627V16.6698C1.94847 16.893 1.98673 17.1196 2.08742 17.321C2.1881 17.5224 2.34667 17.6891 2.54273 17.7998C2.73015 17.8829 2.93121 17.931 3.13601 17.9412C3.51748 17.9412 3.89903 17.9412 4.2805 17.9412C4.66197 17.9412 5.05746 18.1673 5.05746 18.7042C5.05746 19.241 5.05746 20.117 5.05746 20.781V21.0776L5.12817 21.1625Z" fill="#F5F5F5"/>
<path d="M23.6085 15.4122V18.2379C23.6158 18.4316 23.5627 18.6229 23.4564 18.785C23.35 18.947 23.1958 19.072 23.0152 19.1423C22.831 19.2306 22.6226 19.2548 22.423 19.2113C22.2234 19.1678 22.044 19.0588 21.9132 18.9019C21.3763 18.3085 20.8535 17.701 20.3308 17.0934C19.808 16.4859 19.4548 16.0906 19.0309 15.5819C18.9792 15.5117 18.9108 15.4555 18.8319 15.4184C18.7529 15.3814 18.6659 15.3646 18.5789 15.3698H8.27917C7.78888 15.4022 7.30031 15.2845 6.87875 15.0321C6.45719 14.7797 6.12261 14.4044 5.91966 13.957C5.75492 13.5783 5.67313 13.1691 5.67959 12.7562C5.67959 9.69038 5.67959 6.61033 5.67959 3.53033C5.65239 2.964 5.82175 2.40559 6.15905 1.94985C6.49634 1.49411 6.98076 1.16904 7.53033 1.02957C7.76628 0.972764 8.00819 0.944224 8.25089 0.944719H24.1595C24.5014 0.926194 24.8433 0.98018 25.1629 1.10304C25.4825 1.22591 25.7726 1.41491 26.0141 1.6577C26.2555 1.90048 26.443 2.19148 26.5641 2.51175C26.6852 2.83202 26.7373 3.1744 26.7169 3.51619V12.8128C26.7327 13.1504 26.6783 13.4876 26.5572 13.8031C26.436 14.1187 26.2509 14.4055 26.0132 14.6458C25.7755 14.8861 25.4906 15.0748 25.1764 15.1994C24.8622 15.324 24.5256 15.3819 24.1878 15.3698L23.6085 15.4122ZM22.3088 17.3338V14.8755C22.3088 14.3386 22.5489 14.0984 23.0858 14.0984H24.2302C24.3864 14.109 24.5428 14.0858 24.6892 14.0304C24.8355 13.9751 24.9683 13.8889 25.0783 13.7776C25.1882 13.6663 25.2729 13.5324 25.3264 13.3854C25.38 13.2384 25.4013 13.0816 25.3887 12.9256V3.47377C25.3994 3.31766 25.3763 3.16101 25.3209 3.01466C25.2656 2.86831 25.1792 2.73555 25.0679 2.62558C24.9566 2.5156 24.8229 2.43115 24.6759 2.37757C24.5289 2.32399 24.3721 2.30258 24.2161 2.31514H8.19449C8.03542 2.31694 7.87768 2.34569 7.72814 2.39999C7.48033 2.49394 7.27235 2.66994 7.13865 2.89876C7.00496 3.12759 6.9536 3.39526 6.99344 3.65727C6.99344 6.68076 6.99344 9.71862 6.99344 12.7421C6.97583 12.919 6.99779 13.0976 7.0576 13.265C7.1174 13.4324 7.2137 13.5843 7.33941 13.71C7.46511 13.8357 7.61712 13.932 7.78454 13.9918C7.95196 14.0516 8.13055 14.0736 8.30746 14.056C11.8537 14.056 15.3717 14.056 18.9604 14.056C19.1286 14.0487 19.2959 14.0822 19.4484 14.1536C19.6009 14.2249 19.7341 14.332 19.8363 14.4657L22.3088 17.3338Z" fill="#F5F5F5"/>
<path d="M17.0946 8.43312C17.0946 8.67294 16.9995 8.90305 16.8299 9.07263C16.6603 9.2422 16.4302 9.33719 16.1904 9.33719C15.9506 9.33719 15.7206 9.2422 15.551 9.07263C15.3815 8.90305 15.2861 8.67294 15.2861 8.43312C15.2861 8.19331 15.3815 7.96319 15.551 7.79362C15.7206 7.62404 15.9506 7.52905 16.1904 7.52905C16.4302 7.52905 16.6603 7.62404 16.8299 7.79362C16.9995 7.96319 17.0946 8.19331 17.0946 8.43312Z" fill="#F5F5F5"/>
<path d="M14.0856 8.43322C14.1016 8.56049 14.0904 8.68972 14.0526 8.8123C14.0149 8.93488 13.9514 9.04794 13.8665 9.14413C13.7817 9.24032 13.6773 9.31729 13.5604 9.37006C13.4435 9.42283 13.3167 9.45008 13.1884 9.45008C13.0601 9.45008 12.9333 9.42283 12.8164 9.37006C12.6995 9.31729 12.5953 9.24032 12.5104 9.14413C12.4256 9.04794 12.3621 8.93488 12.3243 8.8123C12.2866 8.68972 12.2752 8.56049 12.2912 8.43322C12.2752 8.30596 12.2866 8.17672 12.3243 8.05414C12.3621 7.93156 12.4256 7.81851 12.5104 7.72232C12.5953 7.62613 12.6995 7.54915 12.8164 7.49638C12.9333 7.44362 13.0601 7.41602 13.1884 7.41602C13.3167 7.41602 13.4435 7.44362 13.5604 7.49638C13.6773 7.54915 13.7817 7.62613 13.8665 7.72232C13.9514 7.81851 14.0149 7.93156 14.0526 8.05414C14.0904 8.17672 14.1016 8.30596 14.0856 8.43322Z" fill="#F5F5F5"/>
<path d="M20.0907 8.43324C20.0926 8.55251 20.0706 8.67105 20.0259 8.78162C19.9811 8.89218 19.9145 8.99253 19.8301 9.07688C19.7458 9.16123 19.6454 9.22769 19.5348 9.27246C19.4243 9.31722 19.3057 9.33921 19.1865 9.3373C18.9467 9.3373 18.7167 9.24231 18.5471 9.07274C18.3776 8.90317 18.2822 8.67305 18.2822 8.43324C18.2822 8.19342 18.3776 7.9633 18.5471 7.79373C18.7167 7.62416 18.9467 7.52917 19.1865 7.52917C19.3057 7.52726 19.4243 7.54925 19.5348 7.59401C19.6454 7.63878 19.7458 7.70524 19.8301 7.78959C19.9145 7.87394 19.9811 7.97429 20.0259 8.08485C20.0706 8.19542 20.0926 8.31396 20.0907 8.43324Z" fill="#F5F5F5"/>
</svg>
