<svg width="33" height="25" viewBox="0 0 33 25" fill="none" xmlns="http://www.w3.org/2000/svg">
<path d="M1.29796 12.3227C1.29796 8.73499 1.29796 5.16583 1.29796 1.57808C1.29796 0.853095 1.69916 0.499897 2.50157 0.499897C7.42157 0.499897 12.3416 0.499897 17.2616 0.499897C18.0006 0.499897 18.3596 0.815916 18.3807 1.44795C18.4018 2.2473 18.4229 3.02805 18.4441 3.82739C18.4441 3.95752 18.4652 4.10624 18.254 4.12483C18.0217 4.14341 18.0217 3.97611 18.0217 3.82739C18.0006 3.02805 17.9795 2.2473 17.9584 1.44795C17.9584 1.13194 17.6628 0.871684 17.2827 0.871684C12.3416 0.871684 7.40045 0.871684 2.45934 0.871684C1.95255 0.871684 1.7414 1.05758 1.72028 1.52231C1.72028 1.57808 1.72028 1.63385 1.72028 1.68962C1.72028 8.77217 1.72028 15.8361 1.72028 22.9187C1.72028 23.0116 1.72028 23.086 1.72028 23.1789C1.7414 23.4578 1.99479 23.6994 2.31152 23.718C2.39599 23.718 2.50157 23.718 2.58603 23.718C7.42157 23.718 12.2571 23.718 17.0926 23.718C17.705 23.718 17.895 23.5321 17.9162 22.993C17.9373 21.9706 17.9584 20.9296 17.9795 19.9072C17.9795 19.7771 18.0006 19.6284 18.1907 19.6098C18.4229 19.6098 18.4229 19.7585 18.4018 19.9072C18.3807 20.9482 18.3807 22.0078 18.3385 23.0488C18.3385 23.2719 18.2329 23.495 18.1273 23.6994C17.9795 23.9783 17.6839 24.1084 17.3249 24.1084C12.3416 24.1084 7.35822 24.1084 2.37487 24.1084C1.67805 24.1084 1.25573 23.718 1.25573 23.1046C1.29796 19.5354 1.29796 15.9291 1.29796 12.3227ZM18.2751 23.7924C18.3596 23.6251 18.4863 23.3648 18.4863 23.1046C18.5074 22.361 18.5285 21.5802 18.5496 20.8553C18.5496 20.5578 18.5496 20.2604 18.5707 19.963C18.5707 19.8514 18.5707 19.7213 18.4863 19.6284C18.4229 19.5726 18.3596 19.554 18.254 19.554C17.9373 19.554 17.9373 19.8328 17.9373 19.9444L17.9162 21.2642C17.895 21.8591 17.895 22.4354 17.8739 23.0302C17.8528 23.5321 17.705 23.6623 17.1771 23.6623H2.67049H2.60715C2.5438 23.6623 2.45934 23.6623 2.39599 23.6623C2.12148 23.6437 1.93144 23.4578 1.88921 23.1975C1.88921 23.1232 1.88921 23.0302 1.88921 22.9559L1.84697 1.7268V1.67103C1.84697 1.63385 1.84697 1.59667 1.84697 1.55949C1.86809 1.15052 2.03702 1.00181 2.48045 1.00181C7.42157 1.00181 12.3627 1.00181 17.3038 1.00181C17.5994 1.00181 17.8528 1.20629 17.8528 1.48513C17.8739 2.28448 17.895 3.06523 17.9162 3.86457C17.9162 3.95752 17.9162 4.10624 18.0217 4.18059C18.0851 4.23636 18.1695 4.25495 18.2751 4.23636C18.5707 4.21777 18.5707 3.97611 18.5707 3.84598L18.5496 3.17677C18.5285 2.6005 18.5285 2.04281 18.5074 1.46654C18.4863 0.778737 18.064 0.425539 17.2827 0.425539H2.52268C1.63582 0.425539 1.19238 0.815916 1.19238 1.59667V15.0368V23.1418C1.19238 23.811 1.67805 24.2571 2.4171 24.2571C5.85899 24.2571 9.27976 24.2571 12.7217 24.2571H17.3883C17.7895 24.2571 18.1062 24.0898 18.2751 23.7924ZM2.4171 24.0526C1.78363 24.0526 1.40354 23.718 1.40354 23.1418V1.59667C1.40354 0.927452 1.76251 0.630022 2.50157 0.630022H17.2616C17.9373 0.630022 18.254 0.908863 18.2751 1.48513C18.2962 2.0614 18.2962 2.61909 18.3174 3.19536L18.3385 3.88316C18.3385 4.05047 18.3174 4.06906 18.254 4.06906C18.2329 4.06906 18.1907 4.06906 18.1695 4.05047C18.1273 4.03188 18.1273 3.92034 18.1273 3.86457C18.1062 3.06523 18.0851 2.26589 18.064 1.48513C18.0429 1.11335 17.705 0.815916 17.2827 0.815916C12.3416 0.815916 7.40045 0.815916 2.45934 0.815916C1.88921 0.815916 1.63582 1.05758 1.6147 1.55949C1.6147 1.59667 1.6147 1.65244 1.6147 1.68962V22.9559C1.6147 23.0488 1.6147 23.1418 1.6147 23.2161C1.65693 23.5507 1.93144 23.8296 2.31152 23.8482C2.39599 23.8482 2.48045 23.8482 2.5438 23.8482H2.60715H17.1138C17.7683 23.8482 18.0217 23.6251 18.0429 23.0302C18.064 22.4354 18.064 21.8591 18.0851 21.2642L18.1062 19.9444C18.1062 19.7585 18.1484 19.7585 18.2118 19.7585C18.2329 19.7585 18.2751 19.7585 18.2962 19.7771C18.3385 19.8143 18.3174 19.9072 18.3174 19.963C18.3174 20.2604 18.2962 20.5578 18.2962 20.8553C18.2751 21.5988 18.2751 22.361 18.2329 23.1046C18.2329 23.3277 18.1273 23.5693 18.0429 23.718C17.8739 24.0155 17.5783 24.0712 17.346 24.0712H12.6794C9.27976 24.0526 5.85899 24.0526 2.4171 24.0526ZM5.92234 9.86894C5.50002 9.86894 5.11994 9.98048 4.90878 10.3151C4.78208 10.5196 4.73985 10.7612 4.73985 11.0029C4.71873 13.215 4.73985 15.4272 4.73985 17.6393C4.73985 17.6951 4.73985 17.7694 4.73985 17.8252C4.78208 18.3457 5.26775 18.7547 5.88011 18.7547C6.47135 18.7547 7.04148 18.7547 7.63273 18.7547C8.2662 18.7547 8.51959 18.9406 8.6674 19.4797C8.87856 20.2046 9.0686 20.9296 9.25865 21.6546C9.322 21.8963 9.57539 21.9706 9.80766 21.8219C11.138 20.8924 12.4683 19.9816 13.7774 19.0335C14.052 18.829 14.3476 18.7547 14.7065 18.7547C17.9162 18.7547 21.1047 18.7547 24.3143 18.7547C25.1378 18.7547 25.5601 18.3643 25.539 17.6207C25.4545 15.4086 25.4756 13.215 25.539 11.0029C25.5601 10.2407 25.1378 9.86894 24.2932 9.86894C21.2525 9.86894 18.1907 9.86894 15.15 9.86894C12.0671 9.88753 9.00526 9.88753 5.92234 9.86894ZM9.0686 19.3867C8.89968 18.7547 8.43513 18.4572 7.69607 18.4572C7.08371 18.4572 6.49247 18.4572 5.88011 18.4572C5.41556 18.4572 5.18328 18.2528 5.18328 17.8438C5.18328 15.5573 5.18328 13.2708 5.18328 10.9843C5.18328 10.5567 5.41556 10.3523 5.90122 10.3523C12.0459 10.3523 18.1907 10.3523 24.3354 10.3523C24.821 10.3523 25.0533 10.5753 25.0533 11.0029C25.0533 13.2336 25.0533 15.4643 25.0533 17.7137C25.0533 18.2899 24.8633 18.4572 24.2087 18.4572C20.9991 18.4572 17.7895 18.4572 14.5798 18.4572C14.1786 18.4572 13.8408 18.5502 13.5241 18.7733C12.2993 19.647 11.0535 20.5021 9.80766 21.3758C9.76543 21.4129 9.70208 21.4501 9.61762 21.5059C9.46981 20.7623 9.27976 20.0745 9.0686 19.3867ZM9.89212 21.8963L10.969 21.1527C11.9192 20.4835 12.9117 19.7957 13.8619 19.1079C14.1153 18.9406 14.3687 18.8476 14.7065 18.8476C17.2193 18.8476 19.7321 18.8476 22.2449 18.8476H24.3143C24.7577 18.8476 25.0956 18.7361 25.3067 18.5316C25.539 18.3271 25.6446 18.0111 25.6446 17.6021C25.5812 15.6874 25.5812 13.5868 25.6446 11.0029C25.6657 10.5939 25.539 10.2779 25.3067 10.0734C25.0744 9.86894 24.7366 9.75741 24.2932 9.75741H12.9539C10.6101 9.75741 8.2662 9.75741 5.92234 9.75741C5.39444 9.75741 5.01436 9.92471 4.82431 10.2593C4.71873 10.4638 4.65539 10.7055 4.63427 10.9843C4.63427 12.7503 4.63427 14.5535 4.63427 16.3009V17.6207C4.63427 17.6951 4.63427 17.7508 4.63427 17.8252C4.6765 18.4015 5.22552 18.8476 5.88011 18.8476C6.19685 18.8476 6.5347 18.8476 6.85144 18.8476C7.10483 18.8476 7.35822 18.8476 7.63273 18.8476C8.20285 18.8476 8.43513 18.9963 8.56182 19.4982L9.15307 21.6732C9.1953 21.8219 9.30088 21.9334 9.42758 21.9706C9.46981 21.9892 9.51204 21.9892 9.55427 21.9892C9.68096 22.0078 9.78654 21.9706 9.89212 21.8963ZM6.87255 18.6617C6.55582 18.6617 6.21796 18.6617 5.90122 18.6617C5.35221 18.6617 4.92989 18.2899 4.88766 17.8252C4.88766 17.7694 4.88766 17.6951 4.88766 17.6393V16.3195C4.88766 14.5721 4.88766 12.7689 4.88766 11.0029C4.88766 10.7612 4.95101 10.5382 5.03547 10.3709C5.18328 10.1106 5.50002 9.98048 5.94346 9.98048C8.28732 9.98048 10.6312 9.98048 12.975 9.98048H18.2118H24.3143C24.6944 9.98048 24.99 10.0734 25.18 10.2407C25.3701 10.408 25.4545 10.6683 25.4545 11.0215C25.3912 13.6054 25.3912 15.706 25.4545 17.6393C25.4756 17.9925 25.3701 18.2528 25.18 18.4201C24.99 18.5874 24.7155 18.6617 24.3354 18.6617H22.266C19.7532 18.6617 17.2404 18.6617 14.7277 18.6617C14.3265 18.6617 14.0308 18.7547 13.7352 18.9591C12.7639 19.647 11.7926 20.3348 10.8423 21.004L9.76543 21.7476C9.68096 21.8033 9.5965 21.8219 9.53315 21.8033C9.46981 21.7847 9.42757 21.729 9.38534 21.636L8.7941 19.4611C8.62517 18.8662 8.32955 18.6617 7.65384 18.6617C7.54826 18.6617 7.42157 18.6617 7.31599 18.6617C7.14706 18.6617 6.99925 18.6617 6.87255 18.6617ZM9.80766 21.5059C9.84989 21.4687 9.89212 21.4501 9.91324 21.4315L10.8635 20.7809C11.7714 20.1489 12.7217 19.4982 13.6296 18.8476C13.9253 18.6431 14.2209 18.5502 14.601 18.5502C17.156 18.5502 19.6899 18.5502 22.2449 18.5502H24.2298C24.9477 18.5502 25.18 18.3271 25.18 17.6951V15.7804V10.9843C25.18 10.4824 24.9055 10.2221 24.3354 10.2221C18.1907 10.2221 12.0459 10.2221 5.90122 10.2221C5.35221 10.2221 5.0777 10.4824 5.0777 10.9657C5.0777 13.2522 5.0777 15.5387 5.0777 17.8252C5.0777 18.2899 5.35221 18.5502 5.90122 18.5502C6.28131 18.5502 6.6614 18.5502 7.04148 18.5502C7.27376 18.5502 7.48491 18.5502 7.71719 18.5502C8.3929 18.5502 8.81521 18.829 8.98414 19.4053C9.11084 19.8886 9.25865 20.3719 9.38534 20.8553L9.5965 21.6546L9.80766 21.5059ZM7.04148 18.3457C6.6614 18.3457 6.28131 18.3457 5.90122 18.3457C5.47891 18.3457 5.30998 18.1784 5.30998 17.8252C5.30998 15.5387 5.30998 13.2522 5.30998 10.9657C5.30998 10.5939 5.50002 10.4266 5.92234 10.4266C12.0671 10.4266 18.2118 10.4266 24.3565 10.4266C24.7788 10.4266 24.9689 10.5939 24.9689 10.9843V17.6951C24.9689 18.2156 24.821 18.3457 24.2298 18.3457H22.2449C19.6899 18.3457 17.156 18.3457 14.601 18.3457C14.1786 18.3457 13.8197 18.4572 13.4818 18.6803C12.5738 19.3309 11.6236 19.9816 10.7156 20.6136L9.76543 21.2642C9.74431 21.2828 9.7232 21.2828 9.7232 21.3014L9.57539 20.7995C9.44869 20.3162 9.30088 19.8328 9.17418 19.3495C8.98414 18.6803 8.47736 18.3457 7.69607 18.3457C7.63273 18.3457 7.54826 18.3457 7.48491 18.3457C7.35822 18.3457 7.18929 18.3457 7.04148 18.3457ZM22.3505 6.05812C22.1393 6.13248 21.9282 6.20683 21.7381 6.28119C21.3158 6.42991 21.2313 6.76452 21.527 7.06195C21.9071 7.47091 22.4138 7.69398 23.0051 7.80552C23.1951 7.8427 23.2374 7.91706 23.2374 8.06577C23.2374 8.25167 23.2374 8.41897 23.2585 8.60486C23.3007 8.95806 23.6386 9.19972 24.0398 9.18114C24.4621 9.16255 24.7577 8.90229 24.7788 8.5491C24.7788 8.38179 24.7999 8.21449 24.7788 8.06577C24.7577 7.8427 24.8422 7.74975 25.0744 7.65681C26.3414 7.17348 26.7637 5.98376 26.0458 5.01712C25.7713 4.66392 25.4123 4.40367 24.9689 4.21777C24.8844 4.18059 24.7999 4.10624 24.7999 4.03188C24.7788 3.80881 24.7999 3.60432 24.7999 3.43702C25.0322 3.4742 25.2434 3.56714 25.4334 3.52997C25.7713 3.45561 26.088 3.32548 26.3836 3.19536C26.6792 3.06523 26.7637 2.7678 26.5526 2.52614C26.4681 2.43319 26.3836 2.35883 26.2992 2.26589C25.8768 1.91269 25.3489 1.76397 24.7788 1.65244C24.7788 1.42937 24.7788 1.20629 24.7788 0.983221C24.7577 0.592844 24.4832 0.332592 24.0398 0.332592C23.5963 0.314003 23.2796 0.555665 23.2374 0.927452C23.2162 1.03899 23.2162 1.15052 23.2162 1.26206C23.2585 1.57808 23.1529 1.76397 22.7728 1.93128C21.4847 2.48896 21.1891 3.79022 22.1393 4.7011C22.3927 4.94276 22.7306 5.09147 23.0262 5.29596C23.0895 5.35172 23.1951 5.40749 23.1951 5.48185C23.2162 5.68633 23.1951 5.89082 23.1951 6.13248C22.815 5.90941 22.7517 5.90941 22.3505 6.05812ZM25.3489 3.13959C25.2856 3.15818 25.2011 3.121 25.1378 3.10241C25.0744 3.08382 25.0533 3.00946 24.99 2.99087C24.821 2.93511 24.631 2.87934 24.4621 2.82357C24.4198 2.97228 24.3354 3.121 24.3143 3.26971C24.2932 3.54855 24.3143 3.84598 24.3143 4.12483C24.3143 4.32931 24.3987 4.44084 24.6099 4.53379C24.9055 4.64533 25.2011 4.79404 25.4123 4.99853C26.1936 5.66774 26.0669 6.63439 25.1589 7.15489C24.9689 7.26643 24.7577 7.34079 24.5677 7.39655C24.3776 7.45232 24.2932 7.54527 24.2932 7.71257C24.2932 7.97283 24.2932 8.21449 24.2932 8.47474C24.2932 8.67922 24.2087 8.79076 23.9764 8.79076C23.7441 8.79076 23.6386 8.67922 23.6386 8.47474C23.6386 8.25167 23.6386 8.01 23.6386 7.78693C23.6386 7.58245 23.5541 7.4895 23.3218 7.47091C22.7939 7.39656 22.3083 7.24784 21.9282 6.91323C21.8648 6.85746 21.8015 6.80169 21.717 6.70875C22.0549 6.59721 22.3294 6.46709 22.6461 6.37414C22.6883 6.35555 22.7939 6.42991 22.8573 6.4485C23.0051 6.52285 23.1529 6.63439 23.3218 6.69016C23.4907 6.76452 23.6174 6.67157 23.6386 6.52285C23.6597 6.0953 23.6597 5.66774 23.6386 5.24019C23.6386 5.16583 23.4907 5.07288 23.4063 5.01712C23.1107 4.84981 22.7728 4.71969 22.5405 4.5152C21.8437 3.92034 21.9071 3.02805 22.6672 2.47037C22.8362 2.35883 23.0262 2.2473 23.2374 2.17294C23.7019 2.04281 23.6597 2.04281 23.6597 1.61526C23.6597 1.41078 23.6597 1.20629 23.6597 1.00181C23.6597 0.815916 23.8075 0.722969 23.9975 0.722969C24.1876 0.722969 24.3143 0.815916 24.2932 1.00181C24.2932 1.22488 24.3143 1.44795 24.2932 1.67103C24.272 1.91269 24.3987 2.00564 24.6732 2.0614C24.99 2.11717 25.3278 2.21012 25.6235 2.34025C25.8557 2.43319 26.0247 2.61909 26.2992 2.80498C25.9191 2.95369 25.6446 3.04664 25.3489 3.13959ZM24.0398 9.29267C24.5254 9.27408 24.8633 8.97665 24.8844 8.56769V8.53051C24.8844 8.38179 24.9055 8.21449 24.8844 8.06577C24.8633 7.89847 24.9055 7.82411 25.1167 7.74975C25.7713 7.4895 26.2358 7.04336 26.4259 6.50427C26.5948 5.98376 26.4892 5.44467 26.1302 4.96135C25.8768 4.60815 25.4968 4.3479 25.0111 4.14341C24.9477 4.12483 24.9055 4.06906 24.8844 4.05047C24.8633 3.90175 24.8633 3.73445 24.8844 3.60432V3.58573C24.9055 3.58573 24.9477 3.60432 24.9689 3.60432C25.1167 3.6415 25.2856 3.67868 25.4545 3.6415C25.8135 3.56714 26.1302 3.43702 26.4259 3.30689C26.5948 3.23254 26.7215 3.121 26.7637 2.95369C26.8059 2.80498 26.7637 2.61909 26.6581 2.48896C26.5948 2.39601 26.5103 2.32166 26.3836 2.22871C25.9402 1.85692 25.3912 1.70821 24.9055 1.59667V1.46654C24.9055 1.31783 24.9055 1.16911 24.9055 1.00181C24.8844 0.555665 24.5465 0.258235 24.0609 0.239646C23.5752 0.221056 23.1951 0.499897 23.1529 0.927452C23.1318 1.03899 23.1318 1.16911 23.1318 1.29924C23.174 1.59667 23.0895 1.7268 22.7517 1.87551C22.0971 2.15435 21.6537 2.65626 21.527 3.21395C21.4003 3.77163 21.6114 4.3479 22.076 4.79404C22.2449 4.96135 22.4561 5.07288 22.6672 5.20301C22.7728 5.25878 22.8784 5.33313 22.984 5.3889C23.1107 5.46326 23.1107 5.50044 23.1107 5.50044C23.1318 5.63056 23.1318 5.77928 23.1107 5.92799V5.94658C22.815 5.79787 22.6883 5.81646 22.3083 5.94658L22.2449 5.96517C22.0549 6.02094 21.8859 6.0953 21.6959 6.16966C21.4636 6.2626 21.2947 6.39273 21.2525 6.57862C21.2102 6.74593 21.2736 6.93182 21.4425 7.11771C21.8226 7.50809 22.3083 7.76834 22.984 7.89847C23.1107 7.91706 23.1318 7.95424 23.1318 8.06577C23.1318 8.27026 23.1318 8.45615 23.1529 8.62345C23.1951 9.01383 23.5541 9.29267 24.0186 9.29267C23.9975 9.29267 24.0186 9.29267 24.0398 9.29267ZM23.1529 6.22542L23.3218 6.31837V6.13248C23.3218 6.05812 23.3218 6.00235 23.3218 5.92799C23.3218 5.76069 23.3218 5.61198 23.3007 5.46326C23.3007 5.3889 23.2162 5.29596 23.0895 5.20301C22.984 5.12865 22.8784 5.07288 22.7728 4.99853C22.5616 4.88699 22.3716 4.77545 22.2238 4.62674C21.8015 4.21777 21.6114 3.71586 21.717 3.21395C21.8226 2.71203 22.2238 2.26589 22.815 2.00564C23.2162 1.81974 23.3641 1.61526 23.3007 1.24347C23.2796 1.13194 23.3007 1.0204 23.3218 0.927452C23.3641 0.611433 23.6174 0.40695 23.9975 0.40695C24.3776 0.425539 24.6099 0.630022 24.631 0.964631C24.631 1.11335 24.631 1.26206 24.631 1.41078V1.70821L24.7155 1.7268C25.2011 1.81974 25.7501 1.96846 26.1725 2.32166C26.278 2.4146 26.3625 2.48896 26.4259 2.56332C26.5103 2.65626 26.5314 2.7678 26.5103 2.86075C26.4892 2.95369 26.4047 3.02805 26.2992 3.08382C26.0247 3.19536 25.6868 3.34407 25.3701 3.39984C25.2645 3.41843 25.1378 3.38125 25.0111 3.36266C24.9266 3.34407 24.8633 3.32548 24.7788 3.30689L24.6521 3.2883V3.39984C24.6521 3.43702 24.6521 3.49279 24.6521 3.52997C24.6521 3.67868 24.6521 3.8274 24.6732 3.9947C24.6944 4.10624 24.821 4.21777 24.9055 4.25495C25.3701 4.45943 25.7079 4.7011 25.9402 5.01712C26.2569 5.44467 26.3625 5.92799 26.1936 6.39273C26.0247 6.87605 25.6023 7.28502 25.0111 7.50809C24.7155 7.61963 24.6099 7.76834 24.6521 8.02859C24.6732 8.17731 24.6521 8.32602 24.6521 8.47474V8.51192C24.631 8.82794 24.3776 9.05101 24.0186 9.05101C23.9975 9.05101 23.9975 9.05101 23.9764 9.05101C23.6386 9.05101 23.3641 8.84653 23.3429 8.5491C23.3218 8.40038 23.3218 8.21449 23.3218 8.02859C23.3218 7.82411 23.2374 7.71257 23.0051 7.65681C22.3927 7.54527 21.9282 7.30361 21.5903 6.95041C21.4636 6.82028 21.4214 6.69016 21.4425 6.57862C21.4636 6.46709 21.5903 6.37414 21.7592 6.31837C21.9493 6.24401 22.1182 6.18825 22.3083 6.11389L22.3716 6.0953C22.5405 6.03953 22.625 6.00235 22.7306 6.00235C22.8573 6.05812 22.9629 6.0953 23.1529 6.22542ZM24.3143 8.79076C24.3987 8.7164 24.441 8.60486 24.4198 8.47474C24.4198 8.34461 24.4198 8.1959 24.4198 8.06577C24.4198 7.95424 24.4198 7.82411 24.4198 7.71257C24.4198 7.58245 24.4621 7.52668 24.6099 7.4895C24.8422 7.41514 25.0533 7.3222 25.2434 7.22925C25.7079 6.95041 26.0035 6.56003 26.0458 6.11389C26.088 5.68633 25.898 5.25878 25.4968 4.90558C25.2856 4.73827 25.0322 4.57097 24.6521 4.42226C24.4621 4.3479 24.3987 4.27354 24.4198 4.10624C24.4198 3.97611 24.4198 3.84598 24.4198 3.71586C24.4198 3.56714 24.4198 3.39984 24.4198 3.25112C24.4198 3.15818 24.4621 3.06523 24.5043 2.97228C24.5043 2.95369 24.5254 2.93511 24.5254 2.93511L24.5677 2.95369C24.6944 2.99087 24.821 3.02805 24.9477 3.06523C24.9477 3.06523 24.9689 3.08382 24.99 3.10241C25.0111 3.121 25.0533 3.15818 25.0956 3.17677C25.2011 3.21395 25.3067 3.25112 25.3912 3.23254C25.6023 3.15818 25.8135 3.08382 26.0458 3.00946L26.5103 2.84216L26.3625 2.73062C26.278 2.67485 26.1936 2.6005 26.1302 2.54473C25.9824 2.4146 25.8346 2.32166 25.6657 2.2473C25.3912 2.11717 25.0533 2.02423 24.6944 1.94987C24.4832 1.91269 24.4198 1.85692 24.4198 1.67103C24.441 1.5409 24.4198 1.39219 24.4198 1.26206C24.4198 1.16911 24.4198 1.09476 24.4198 1.00181C24.4198 0.778737 24.272 0.630022 24.0186 0.611433C23.8708 0.611433 23.7653 0.630022 23.6808 0.70438C23.5963 0.778737 23.5541 0.871684 23.5541 0.983221C23.5541 1.13194 23.5541 1.26206 23.5541 1.41078V1.68962C23.5541 1.96846 23.5541 1.96846 23.1951 2.07999C23.0051 2.13576 22.7939 2.2473 22.5828 2.39601C22.1816 2.67485 21.9493 3.06523 21.9282 3.4742C21.9071 3.88316 22.0971 4.27354 22.4561 4.57097C22.625 4.71969 22.8362 4.81263 23.0262 4.92417C23.1318 4.97994 23.2374 5.0357 23.3429 5.09147C23.4907 5.18442 23.533 5.2216 23.533 5.24019C23.5541 5.70492 23.5541 6.16966 23.533 6.50427C23.533 6.54144 23.5119 6.57862 23.4907 6.59721C23.4696 6.6158 23.4063 6.59721 23.3852 6.59721C23.2796 6.56003 23.1951 6.50427 23.0895 6.4485C23.0262 6.41132 22.984 6.39273 22.9206 6.35555C22.8995 6.35555 22.8995 6.33696 22.8784 6.33696C22.7939 6.29978 22.7095 6.24401 22.625 6.2626C22.3927 6.33696 22.1816 6.41132 21.9493 6.50427L21.5692 6.65298L21.7592 6.83887C21.8015 6.89464 21.8437 6.93182 21.8859 6.969C22.2449 7.28502 22.7095 7.47091 23.3429 7.56386C23.5119 7.58245 23.5752 7.63822 23.5541 7.78693C23.5541 7.93565 23.5541 8.06577 23.5541 8.21449C23.5541 8.30744 23.5541 8.38179 23.5541 8.47474C23.5541 8.60486 23.5963 8.7164 23.6808 8.79076C23.7653 8.86512 23.8708 8.90229 23.9975 8.90229C24.1453 8.90229 24.2509 8.86512 24.3143 8.79076ZM22.0549 6.69016C22.2871 6.59721 22.4983 6.52285 22.7095 6.46709C22.7306 6.46709 22.7728 6.48568 22.7939 6.50427C22.815 6.52285 22.8362 6.52285 22.8362 6.52285C22.8995 6.56003 22.9417 6.57862 23.0051 6.6158C23.1107 6.67157 23.2162 6.72734 23.3218 6.78311C23.4485 6.82028 23.5541 6.82028 23.6386 6.78311C23.723 6.72734 23.7864 6.63439 23.7864 6.52285C23.8075 6.16966 23.8075 5.70492 23.7864 5.24019C23.7864 5.12865 23.6386 5.01712 23.4907 4.94276C23.3852 4.8684 23.2796 4.81263 23.1529 4.75686C22.9629 4.66392 22.7728 4.57097 22.625 4.44084C22.3083 4.18059 22.1393 3.8274 22.1604 3.49279C22.1816 3.13959 22.3927 2.80498 22.7306 2.56332C22.9206 2.43319 23.0895 2.34025 23.2796 2.28448C23.7441 2.13576 23.7864 2.09858 23.7864 1.70821V1.42937C23.7864 1.28065 23.7864 1.15052 23.7864 1.00181C23.7864 0.946042 23.8075 0.890274 23.8497 0.871684C23.892 0.834506 23.9764 0.834505 24.0186 0.834505C24.1665 0.834505 24.2087 0.890274 24.2087 1.0204C24.2087 1.11335 24.2087 1.1877 24.2087 1.28065C24.2087 1.41078 24.2087 1.5409 24.2087 1.67103C24.1876 2.02423 24.4198 2.11717 24.6732 2.17294C25.0111 2.2473 25.3278 2.34024 25.5812 2.45178C25.729 2.50755 25.8346 2.6005 25.9824 2.73062C26.0247 2.74921 26.0458 2.78639 26.088 2.80498L25.9613 2.84216C25.729 2.93511 25.5179 3.00946 25.3278 3.06523C25.3278 3.06523 25.2856 3.06523 25.2011 3.02805C25.2011 3.02805 25.18 3.00946 25.1589 2.99087C25.1378 2.97228 25.0956 2.9351 25.0322 2.91652C24.9055 2.87934 24.7788 2.82357 24.6521 2.78639L24.3987 2.71203L24.3565 2.80498C24.3354 2.84216 24.3143 2.89793 24.3143 2.93511C24.272 3.04664 24.2298 3.15818 24.2298 3.26971C24.2087 3.43702 24.2298 3.60432 24.2298 3.75304C24.2298 3.88316 24.2298 4.01329 24.2298 4.12483C24.2087 4.36649 24.3354 4.5152 24.5888 4.62674C24.9266 4.77545 25.18 4.90558 25.3701 5.07288C25.7079 5.37031 25.8768 5.7421 25.8557 6.11389C25.8135 6.50427 25.5601 6.83887 25.1589 7.08054C24.99 7.17348 24.7999 7.24784 24.5888 7.3222C24.3565 7.39655 24.2509 7.52668 24.2509 7.74975C24.2509 7.86129 24.2509 7.97283 24.2509 8.10295C24.2509 8.23308 24.2509 8.38179 24.2509 8.51192C24.2509 8.58628 24.2298 8.64204 24.2087 8.67922C24.1876 8.7164 24.1242 8.7164 24.0398 8.7164C23.9553 8.7164 23.9131 8.69781 23.8708 8.67922C23.8286 8.64204 23.8075 8.58628 23.8075 8.51192C23.8075 8.41897 23.8075 8.34461 23.8075 8.25167C23.8075 8.10295 23.8075 7.97283 23.8075 7.82411C23.8075 7.58245 23.6808 7.43373 23.4063 7.39655C22.8362 7.3222 22.4138 7.15489 22.076 6.85746C22.0338 6.82028 22.0126 6.78311 21.9704 6.74593L22.0549 6.69016ZM31.6626 18.0111C31.557 17.9553 31.4514 17.8996 31.367 17.8252C30.9447 17.5092 30.5434 17.1746 30.1 16.8585C29.4665 16.3938 28.7697 15.9848 27.9884 15.7432C27.3761 15.5573 26.8059 15.5945 26.2569 15.8919C26.1725 15.9291 26.1725 16.0592 26.1302 16.1522C26.2358 16.1893 26.3414 16.2451 26.4259 16.2451C26.5103 16.2451 26.5948 16.1893 26.6792 16.1522C26.996 16.0034 27.3127 15.9848 27.6506 16.0778C27.9251 16.1522 28.1996 16.2451 28.453 16.3566C29.4243 16.8028 30.2267 17.4534 31.0291 18.104C31.1558 18.197 31.3036 18.3085 31.4725 18.3457C31.8315 18.4758 32.1905 18.2713 32.1905 17.9367C32.1905 17.7137 32.106 17.4906 32.0004 17.2861C31.6626 16.6355 31.2825 16.022 30.9447 15.3714C30.6279 14.7765 30.649 14.1631 31.008 13.5868C31.1558 13.3266 31.3036 13.0477 31.4303 12.7875C32.1483 11.3933 32.2116 9.99907 31.2614 8.66063C30.3956 7.43373 29.1498 6.57862 27.6506 5.98376C27.5239 5.92799 27.3761 5.89082 27.2916 6.05812C27.2071 6.22542 27.3338 6.29978 27.4816 6.35555C28.4952 6.72734 29.3398 7.30361 30.1 7.99142C31.2825 9.08819 31.8104 10.3523 31.3247 11.858C31.1558 12.3971 30.8813 12.899 30.6068 13.4009C30.1845 14.1259 30.1423 14.8509 30.5435 15.5945C30.8813 16.2265 31.2614 16.8585 31.5992 17.4906C31.6837 17.6393 31.7259 17.8066 31.7893 17.9739C31.7471 17.9739 31.7048 17.9925 31.6626 18.0111ZM32.0216 18.3829C32.1905 18.2899 32.275 18.1226 32.275 17.9367C32.275 17.7137 32.2116 17.472 32.0849 17.2489C31.916 16.9143 31.7259 16.5797 31.5359 16.2637C31.367 15.9663 31.1769 15.6502 31.0291 15.3342C30.7335 14.7579 30.7546 14.1817 31.0925 13.624C31.2192 13.4009 31.3459 13.1779 31.4514 12.9734L31.5148 12.8247C32.2961 11.3003 32.2327 9.86894 31.3459 8.60486C30.5223 7.43373 29.3187 6.54144 27.6928 5.89082C27.5872 5.85364 27.4816 5.81646 27.355 5.85364C27.2705 5.87223 27.2283 5.92799 27.186 6.00235C27.1438 6.07671 27.1438 6.15107 27.1649 6.22542C27.2071 6.33696 27.3338 6.39273 27.4394 6.42991C28.3896 6.78311 29.2343 7.30361 30.0156 8.04718C31.2614 9.18114 31.6626 10.4638 31.2192 11.8208C31.0502 12.3599 30.7546 12.899 30.5012 13.3452C30.0578 14.1259 30.0367 14.8695 30.4379 15.6316C30.6279 15.9848 30.8391 16.338 31.0291 16.6912C31.1769 16.9701 31.3459 17.2489 31.4937 17.5278C31.557 17.6207 31.5781 17.7322 31.6204 17.8438C31.6204 17.8624 31.6415 17.8996 31.6415 17.9181C31.6415 17.9181 31.6204 17.9181 31.6204 17.8996C31.557 17.8624 31.4937 17.8252 31.4303 17.788C31.2614 17.6579 31.1136 17.5464 30.9447 17.4162C30.6913 17.2117 30.4379 17.0073 30.1634 16.8214C29.5932 16.4124 28.8753 15.9477 28.0095 15.6874C27.3761 15.4829 26.7426 15.5387 26.1725 15.8361C26.088 15.8919 26.0458 15.9663 26.0247 16.0592C26.0247 16.0964 26.0035 16.115 25.9824 16.1336L25.9402 16.2265L26.0458 16.2637C26.0669 16.2637 26.1091 16.2823 26.1302 16.3009C26.2147 16.338 26.2992 16.3566 26.3836 16.3566C26.4892 16.3566 26.5737 16.3195 26.6581 16.2823L26.7004 16.2637C26.9749 16.1336 27.2705 16.115 27.5872 16.1893C27.8195 16.2451 28.1151 16.338 28.3685 16.4682C29.2976 16.8957 30.1 17.5278 30.8813 18.1412L30.9447 18.197C31.0925 18.3271 31.2614 18.4201 31.4092 18.4572C31.4937 18.4944 31.5781 18.4944 31.6626 18.4944C31.8104 18.4758 31.9371 18.4386 32.0216 18.3829ZM26.6159 16.0592L26.5737 16.0778C26.5103 16.0964 26.4681 16.1336 26.4259 16.1336C26.3836 16.1336 26.3203 16.115 26.2569 16.0964C26.278 16.0592 26.2992 16.0034 26.2992 15.9848C26.8059 15.706 27.3761 15.6688 27.9462 15.8547C28.7697 16.115 29.4665 16.5611 30.0367 16.9701C30.2901 17.156 30.5646 17.3605 30.818 17.5649C30.9869 17.6951 31.1347 17.8252 31.3036 17.9367C31.367 17.9925 31.4514 18.0297 31.5359 18.0669C31.5781 18.0854 31.5992 18.104 31.6415 18.1226L31.7048 18.1598L31.9582 18.0111L31.9371 17.9367C31.916 17.881 31.8949 17.8438 31.8949 17.788C31.8526 17.6765 31.8104 17.5464 31.7471 17.4348C31.5992 17.156 31.4303 16.8771 31.2825 16.5983C31.0925 16.2637 30.8813 15.8919 30.6913 15.5387C30.3112 14.8509 30.3323 14.1631 30.7546 13.4381C31.008 12.992 31.3036 12.4529 31.4937 11.8766C31.9582 10.4452 31.5359 9.10678 30.2478 7.91706C29.4243 7.17348 28.5586 6.6158 27.5872 6.2626C27.5028 6.22542 27.4605 6.20684 27.4394 6.16966C27.4394 6.16966 27.4183 6.15107 27.4605 6.0953C27.4816 6.07671 27.4816 6.05812 27.5028 6.03953C27.5239 6.02094 27.5872 6.03953 27.6717 6.07671C29.2765 6.70875 30.4379 7.58245 31.2403 8.7164C32.106 9.9433 32.1483 11.2631 31.3881 12.7503L31.3247 12.899C31.2192 13.1221 31.1136 13.3452 30.9658 13.5496C30.5857 14.1631 30.5646 14.7951 30.9024 15.4272C31.0713 15.7432 31.2403 16.0592 31.4092 16.3566C31.5992 16.6727 31.7893 17.0073 31.9582 17.3419C32.0638 17.5464 32.1271 17.7694 32.1271 17.9553C32.1271 18.0669 32.0638 18.1784 31.9793 18.2342C31.8738 18.3085 31.7259 18.3085 31.5781 18.2528C31.4514 18.2156 31.3036 18.1226 31.1769 18.0297L31.1136 17.9739C30.3323 17.3605 29.5299 16.7098 28.5586 16.2637C28.2841 16.1336 27.9673 16.0406 27.735 15.9848C27.5872 15.9477 27.4394 15.9291 27.3127 15.9291C27.0382 15.9105 26.8271 15.9663 26.6159 16.0592ZM20.3234 5.18442C18.7819 5.33313 17.346 5.76069 16.0368 6.46709C14.8121 7.11771 13.7986 7.91706 13.144 9.05101C13.0595 9.18114 13.0173 9.32985 13.2073 9.40421C13.3974 9.47857 13.4607 9.34844 13.5452 9.2369C13.7352 8.95806 13.9041 8.66063 14.1364 8.40038C15.0866 7.3222 16.3536 6.65298 17.7472 6.13248C18.5919 5.81646 19.4787 5.66774 20.3867 5.55621C20.4923 5.53762 20.5979 5.46326 20.6612 5.42608C20.6823 5.24019 20.5345 5.16583 20.3234 5.18442ZM13.6296 9.31126L13.6508 9.29267C13.693 9.21831 13.7563 9.14396 13.7986 9.0696C13.9253 8.86512 14.0731 8.66063 14.2209 8.47474C15.0233 7.56386 16.1635 6.83887 17.7895 6.24401C18.6974 5.9094 19.6688 5.76069 20.4078 5.66774C20.5134 5.64915 20.5979 5.61198 20.6612 5.5748C20.6823 5.55621 20.7035 5.55621 20.7246 5.53762L20.7879 5.51903V5.46326C20.7879 5.31455 20.7457 5.24019 20.6823 5.18442C20.5979 5.11006 20.4712 5.09147 20.3234 5.09147C18.7819 5.2216 17.3249 5.66774 15.9735 6.37414C14.601 7.09912 13.6296 7.97283 13.0384 9.01383C12.975 9.10678 12.8272 9.36703 13.144 9.49715C13.2073 9.51574 13.2495 9.53433 13.2918 9.53433C13.4818 9.53433 13.5663 9.40421 13.6296 9.31126ZM20.5134 5.31455C20.5345 5.33313 20.5345 5.35172 20.5556 5.3889C20.5556 5.3889 20.5345 5.3889 20.5345 5.40749C20.4712 5.44467 20.4289 5.46326 20.3656 5.48185C19.6265 5.5748 18.6341 5.72351 17.705 6.07671C16.0368 6.69016 14.8755 7.43373 14.052 8.38179C13.883 8.56769 13.7352 8.79076 13.6085 8.99524C13.5663 9.0696 13.5029 9.14396 13.4607 9.21831H13.4396C13.3551 9.34844 13.334 9.34844 13.2707 9.32985C13.2073 9.29267 13.1651 9.27408 13.2707 9.10678C13.8408 8.10295 14.7699 7.26643 16.1213 6.56003C17.4516 5.85364 18.8664 5.42608 20.3656 5.29596C20.3867 5.29596 20.4078 5.29596 20.4078 5.29596C20.4501 5.27737 20.4923 5.29596 20.5134 5.31455ZM15.4878 5.27737C15.6356 5.27737 15.8257 5.35172 15.8679 5.14724C15.8679 5.12865 15.6356 5.0357 15.5089 5.0357C11.7714 5.0357 8.01281 5.0357 4.2753 5.0357C4.14861 5.0357 3.93745 4.96135 3.91633 5.16583C3.91633 5.20301 4.14861 5.27737 4.2753 5.27737C6.1335 5.27737 8.01281 5.27737 9.87101 5.27737C11.7503 5.29596 13.6085 5.29596 15.4878 5.27737ZM15.9735 5.16583V5.11006L15.9313 5.07288C15.8679 5.01712 15.6145 4.94276 15.4878 4.94276C12.0882 4.94276 8.41401 4.94276 4.25418 4.94276C4.23307 4.94276 4.21195 4.94276 4.16972 4.94276C4.08526 4.94276 3.95856 4.92417 3.8741 4.97994C3.81075 5.01712 3.78964 5.07288 3.76852 5.14724V5.20301L3.81075 5.24019C3.8741 5.29596 4.10637 5.37031 4.25418 5.37031C5.77453 5.37031 7.27376 5.37031 8.7941 5.37031H9.87101H10.9901C12.4894 5.37031 13.9886 5.37031 15.4667 5.37031C15.4878 5.37031 15.5089 5.37031 15.5512 5.37031C15.5723 5.37031 15.6145 5.37031 15.6568 5.37031C15.7835 5.3889 15.9313 5.37031 15.9735 5.16583ZM15.4878 5.18442C13.9886 5.18442 12.5105 5.18442 11.0113 5.18442H9.89212H8.81521C7.29487 5.18442 5.79564 5.18442 4.2753 5.18442C4.21195 5.18442 4.10637 5.14724 4.04303 5.12865C4.06414 5.12865 4.12749 5.12865 4.14861 5.12865C4.19084 5.12865 4.21195 5.12865 4.25418 5.12865C8.41401 5.12865 12.0882 5.12865 15.4878 5.12865C15.5512 5.12865 15.6356 5.14724 15.699 5.18442C15.6779 5.18442 15.6356 5.18442 15.5723 5.18442C15.5512 5.18442 15.5089 5.18442 15.4878 5.18442ZM15.5089 3.58573C15.5723 3.52997 15.6568 3.54855 15.699 3.52997C15.7623 3.51138 15.8046 3.45561 15.8679 3.41843C15.8257 3.38125 15.7623 3.32548 15.7201 3.30689C15.6568 3.2883 15.5934 3.30689 15.5301 3.2883H4.23307C4.16972 3.2883 4.08526 3.26971 4.04303 3.30689C3.97968 3.32548 3.93745 3.38125 3.89522 3.41843C3.93745 3.45561 4.00079 3.51138 4.04303 3.52997C4.10637 3.54855 4.19084 3.52997 4.25418 3.58573H9.84989H15.5089ZM15.5512 3.69727L15.5723 3.67868C15.5934 3.66009 15.5934 3.66009 15.6356 3.66009C15.6568 3.66009 15.699 3.66009 15.7201 3.6415C15.7835 3.62291 15.8257 3.58573 15.8679 3.54855C15.889 3.52997 15.889 3.52997 15.9101 3.51138L16.0157 3.43702L15.9101 3.36266C15.889 3.34407 15.889 3.34407 15.8679 3.32548C15.8257 3.2883 15.7835 3.25112 15.7201 3.23254C15.6568 3.21395 15.5934 3.21395 15.5512 3.21395C15.5301 3.21395 15.5089 3.21395 15.4878 3.21395H4.19084C4.16972 3.21395 4.14861 3.21395 4.12749 3.21395C4.08526 3.21395 4.02191 3.21395 3.95856 3.23254C3.89522 3.25112 3.85298 3.30689 3.81075 3.34407C3.78964 3.36266 3.78964 3.36266 3.76852 3.38125L3.72629 3.43702L3.83187 3.51138C3.85298 3.52997 3.85298 3.52997 3.8741 3.54855C3.91633 3.58573 3.95856 3.62291 4.02191 3.6415C4.04303 3.6415 4.08526 3.66009 4.10637 3.66009C4.14861 3.66009 4.16972 3.66009 4.19084 3.67868L4.21195 3.69727H15.5512ZM4.08526 3.39984C4.10637 3.39984 4.12749 3.39984 4.16972 3.39984C4.19084 3.39984 4.23307 3.39984 4.23307 3.39984H15.5089C15.5301 3.39984 15.5723 3.39984 15.5934 3.39984C15.6145 3.39984 15.6568 3.39984 15.6779 3.39984C15.6779 3.39984 15.699 3.39984 15.699 3.41843C15.6779 3.43702 15.6568 3.43702 15.6568 3.43702C15.6568 3.43702 15.6356 3.43702 15.6145 3.43702C15.5723 3.43702 15.5301 3.45561 15.4667 3.4742H4.29642C4.23307 3.43702 4.16972 3.43702 4.12749 3.43702C4.10637 3.43702 4.08526 3.43702 4.06414 3.43702C4.06414 3.43702 4.04303 3.41843 4.02191 3.41843C4.06414 3.41843 4.08526 3.39984 4.08526 3.39984ZM9.49092 14.256V14.7022H9.82878V14.256H9.49092ZM9.93436 14.1631H9.38534V14.7951H9.93436V14.1631ZM9.5965 14.3676H9.70208V14.6092H9.5965V14.3676ZM15.1289 14.7022V14.256H14.791V14.7022H15.1289ZM15.2344 14.1631H14.6854V14.7951H15.2344V14.1631ZM14.9177 14.3676H15.0233V14.6092H14.9177V14.3676ZM20.4501 14.7022V14.256H20.1122V14.7022H20.4501ZM20.5556 14.1631H20.0066V14.7951H20.5556V14.1631ZM20.2178 14.3676H20.3234V14.6092H20.2178V14.3676ZM11.4758 14.5535V14.256H11.138V14.5535H11.4758ZM11.5814 14.1631H11.0324V14.6464H11.5814V14.1631ZM11.2647 14.3676H11.3702V14.4605H11.2647V14.3676ZM13.3129 14.256H12.975V14.7022H13.3129V14.256ZM13.4185 14.1631H12.8695V14.7951H13.4185V14.1631ZM13.0806 14.3676H13.1862V14.6092H13.0806V14.3676ZM16.4592 14.256V14.5535H16.9659V14.256H16.4592ZM17.0715 14.1631H16.3536V14.6464H17.0715V14.1631ZM16.5647 14.3676H16.8392V14.4605H16.5647V14.3676ZM18.613 14.256H18.2962V14.7022H18.6341V14.256H18.613ZM18.7397 14.1631H18.1907V14.7951H18.7397V14.1631ZM18.4018 14.3676H18.5074V14.6092H18.4018V14.3676ZM23.6597 3.43702C23.5963 3.36266 23.533 3.2883 23.4696 3.21395C23.3852 3.26971 23.2585 3.32548 23.2374 3.39984C23.2162 3.52997 23.2374 3.69727 23.2585 3.82739C23.2796 3.88316 23.4063 3.93893 23.4696 3.93893C23.533 3.93893 23.6174 3.84598 23.6597 3.79022C23.6808 3.73445 23.6808 3.66009 23.6808 3.66009C23.6597 3.52997 23.6808 3.4742 23.6597 3.43702ZM23.4907 4.01329C23.6386 3.9947 23.7441 3.84598 23.7441 3.80881C23.7653 3.77163 23.7864 3.67868 23.7653 3.62291C23.7653 3.58573 23.7653 3.54855 23.7653 3.52997C23.7653 3.4742 23.7653 3.41843 23.7441 3.36266C23.7019 3.2883 23.6386 3.23254 23.5963 3.17677C23.5752 3.15818 23.5541 3.13959 23.533 3.121L23.4696 3.04664L23.3852 3.121C23.3641 3.13959 23.3429 3.15818 23.3007 3.17677C23.2162 3.23254 23.1318 3.2883 23.1107 3.38125C23.0895 3.51138 23.0895 3.67868 23.1318 3.84598C23.1529 3.93893 23.3218 4.03188 23.4485 4.03188C23.4696 4.01329 23.4907 4.01329 23.4907 4.01329ZM23.5541 3.4742C23.5541 3.4742 23.5541 3.51138 23.5541 3.52997C23.5541 3.56714 23.5541 3.60432 23.5541 3.6415V3.71586C23.5119 3.77163 23.4696 3.80881 23.4696 3.80881C23.4485 3.80881 23.3852 3.79022 23.3852 3.77163C23.3429 3.62291 23.3429 3.49279 23.3641 3.38125C23.3641 3.36266 23.4274 3.32548 23.4696 3.30689C23.4907 3.38125 23.533 3.43702 23.5541 3.4742ZM24.3143 5.96517C24.3143 6.02094 24.2932 6.07671 24.3143 6.11389C24.3776 6.18825 24.441 6.2626 24.5254 6.33696C24.6099 6.28119 24.7366 6.22542 24.7577 6.13248C24.7999 6.00235 24.7788 5.85364 24.7366 5.72351C24.7155 5.66774 24.5888 5.59339 24.5254 5.59339C24.4621 5.59339 24.3776 5.68633 24.3354 5.76069C24.2932 5.81646 24.3143 5.89082 24.3143 5.96517ZM24.6099 6.41132C24.631 6.39273 24.6521 6.37414 24.6944 6.35555C24.7788 6.29978 24.8633 6.24401 24.8844 6.16966C24.9266 6.03953 24.9266 5.87223 24.8633 5.72351C24.8422 5.61198 24.6521 5.51903 24.5254 5.51903C24.3987 5.53762 24.2932 5.64915 24.2509 5.72351C24.2087 5.77928 24.2087 5.85364 24.2087 5.90941C24.2087 5.92799 24.2087 5.94658 24.2087 5.96517V6.03953C24.2087 6.07671 24.2087 6.13248 24.2298 6.16966C24.272 6.24401 24.3354 6.29978 24.3776 6.33696C24.3987 6.35555 24.4198 6.37414 24.441 6.39273L24.5254 6.46709L24.6099 6.41132ZM24.441 5.81646C24.4832 5.7421 24.5465 5.70492 24.5465 5.70492C24.5677 5.70492 24.631 5.7421 24.6521 5.76069C24.6944 5.89082 24.6944 6.02094 24.6732 6.11389C24.6732 6.13248 24.6099 6.16966 24.5677 6.18825C24.5254 6.13248 24.4832 6.0953 24.441 6.05812V6.02094C24.441 6.00235 24.441 5.98376 24.441 5.96517V5.87223C24.4198 5.85364 24.4198 5.81646 24.441 5.81646Z" fill="white" stroke="white" stroke-width="0.466716"/>
</svg>
