<svg id="BG_COLOR" data-name="BG COLOR" xmlns="http://www.w3.org/2000/svg" viewBox="0 0 113.01 111.01"><defs><style>.cls-1{fill:#fff;}.cls-2{fill:#1b6131;}</style></defs><path class="cls-1" d="M2.76,55.16c0-29.1,23.75-52.51,52.82-52.87,30.21-.37,54.55,24,54.54,53.06S86.21,108.4,56.43,108.42A53.48,53.48,0,0,1,2.76,55.16Zm1.38.24c-.31,28.21,23.2,51.78,52.28,51.75a52.14,52.14,0,0,0,52.35-52.1C108.66,27.56,85.73,3.33,56,3.54,27.41,3.74,3.8,26.89,4.14,55.4Z"/><path class="cls-1" d="M32.2,17.73a8.49,8.49,0,0,1,8.4-8.3,8.61,8.61,0,0,1,8.29,8.31,8.66,8.66,0,0,1-8.28,8.32A8.56,8.56,0,0,1,32.2,17.73Zm8.33,3.54a3.44,3.44,0,0,0,3.55-3.55,3.52,3.52,0,0,0-3.54-3.62,3.76,3.76,0,0,0-3.62,3.63A3.56,3.56,0,0,0,40.53,21.27Z"/><path class="cls-1" d="M23.16,87.75a8.23,8.23,0,0,1,8.09-8,8.2,8.2,0,1,1,.31,16.39A8.57,8.57,0,0,1,23.16,87.75Zm8.25-3.37a3.39,3.39,0,0,0-3.53,3.54,3.63,3.63,0,0,0,3.6,3.59A3.56,3.56,0,0,0,35,87.86,3.37,3.37,0,0,0,31.41,84.38Z"/><path class="cls-1" d="M84.44,37c-1-1.12-2-2.19-2.92-3.39a1.91,1.91,0,0,1,0-1.62,1.36,1.36,0,0,0-.47-1.94c-.81-.62-1.46-2-2.69-1.22s-2.07.21-3-.56c-.72-.62-1.53-1.15-2.85-2.13.55-.23.92-.35,1.25-.53,4.17-2.34,8.32-4.73,12.54-7a2.4,2.4,0,0,1,2.13.21c3.71,2.9,3.66,2.92,1.61,7.23-1.69,3.53-3.32,7.09-5,10.63Zm1-12.37-.36-.3a14.4,14.4,0,0,0-1.8,1.25c-.19.18-.09.69-.12,1.05.41,0,1,.18,1.19,0A11.49,11.49,0,0,0,85.43,24.66Z"/><path class="cls-1" d="M34.47,28.93c-.82,4.51-4,7.06-8.39,7-4-.08-7.25-3.1-7.93-7.39-.54-3.45,2.12-7.54,5.65-8.67a2.68,2.68,0,0,1,.8-.13c1.1,0,2.19.07,3.29.11a32.92,32.92,0,0,1-.46,3.59c-.08.33-.79.66-1.25.73-2,.35-3.06,1.31-3.24,3.19a3.49,3.49,0,0,0,6.63,2,1.72,1.72,0,0,1,2.2-1.07C32.65,28.45,33.53,28.69,34.47,28.93Z"/><path class="cls-1" d="M26.77,55.13C26.54,39.86,40.09,25,58.76,26.2,72.1,27.08,87,39.09,86,57.33,85.17,71.75,72.46,85,55.8,84.67,40,84.4,26.47,71.09,26.77,55.13ZM56.4,83.91c15.95.39,29-13.21,28.9-28.34a28.9,28.9,0,0,0-57.8-.12C27.52,70.79,40.4,84.24,56.4,83.91Z"/><path class="cls-1" d="M82.94,76.29c1.06-1.72,2.13-3.45,3.18-5.19.36-.59.69-1.21,1-1.84.93-2,1.35-2.11,3-.7a1.7,1.7,0,0,1,.28,1.57,14.09,14.09,0,0,1-1.56,2.64c-.59.86-.28,1.54.51,1.8a2.05,2.05,0,0,0,1.72-.41,7.68,7.68,0,0,0,1.21-1.88,1.8,1.8,0,0,1,3.19.12,1.29,1.29,0,0,1-.11,1,15,15,0,0,1-1.2,2.1c-.64.93-.65,1.58.46,2.21s1.56.25,2-.7a19,19,0,0,1,1.13-2c.48-.76.85-1.64,2.1-.92s1.54,1.39.81,2.58c-1.28,2.12-2.53,4.25-3.81,6.37a1.23,1.23,0,0,1-1.88.56c-3.88-2.33-7.77-4.63-11.65-7A2.52,2.52,0,0,1,82.94,76.29Z"/><path class="cls-1" d="M12.64,75.71a7.88,7.88,0,0,1,8-8.14A8.16,8.16,0,0,1,29,75.09c0,1.25-.27,1.78-1.62,1.59s-2.84-.18-3.23-2.26c-.32-1.71-2.11-2.48-4-2.23a3.29,3.29,0,0,0-2.83,2.53,3.53,3.53,0,0,0,1.88,4.21c.52.3,1.3.71,1.35,1.15a11.22,11.22,0,0,1-.22,3.36c0,.18-1,.4-1.4.28A8.31,8.31,0,0,1,12.64,75.71Z"/><path class="cls-1" d="M84.51,87.55c-1.07.77-2.05,1.51-3.07,2.2-.81.54-.64,1.06-.17,1.75s.94,1.22,1.82.63,1.8-1.19,2.66-1.83c.66-.49,1.21-.7,1.7.19s1.37,1.5.24,2.33c-2.5,1.85-5,3.63-7.74,5.56l-4.44-6.54C74.33,90.11,73.1,88.4,72,86.62c-.22-.36-.23-1.28,0-1.46,2.57-1.83,5.21-3.56,8-5.41a14,14,0,0,0,1,1.34c.81.91.43,1.53-.43,2.08s-1.45.94-2.14,1.44-1.14,1.07-.44,2,1.33.67,2.07.18l.8-.54C83.08,84.67,83.28,84.73,84.51,87.55Z"/><path class="cls-1" d="M43.37,86.41c1.11.31,2.06.61,3,.83,1.88.44,3.79.77,5.65,1.27.46.12,1.19.91,1.12,1.07-.35.75.17,2.25-1.43,2-1-.13-2-.46-3-.66s-1.58.1-1.7,1.16a1.19,1.19,0,0,0,1.2,1.53c.58.06,1.14.36,1.72.42,1.26.14,1.84.61,1.42,2S50.2,97.73,49,97.18a4.49,4.49,0,0,0-.61-.23c-1.92-.52-2.25-.34-2.83,1.54-.16.51-.25,1.05-.44,1.55-.3.76-.75,2.18-1,2.15a18,18,0,0,1-4-1.12c-.17-.07-.21-.82-.11-1.21C41.11,95.43,42.22,91,43.37,86.41Z"/><path class="cls-1" d="M61.31,7l-1.4,1.71a4.21,4.21,0,0,0-.67,5.07c.55,1,1,2.11,1.55,3.18,1.61,3.42-.33,5.76-2.75,7.3a1.71,1.71,0,0,1-1.22.17c-1.29-.31-2.56-.71-4.1-1.15A14.63,14.63,0,0,1,53.63,22c1.84-2.09,2-3.5.39-5.93A6.18,6.18,0,0,1,52.78,11c.74-3,2.2-4.26,5.29-4.16C59,6.85,59.87,6.93,61.31,7Z"/><path class="cls-1" d="M68,89.49a4.07,4.07,0,0,1-1.11.92,11.85,11.85,0,0,1-2.53.53c-.85.09-1.46.23-1.29,1.34s.43,1.65,1.62,1.39c.58-.12,1.18-.13,1.76-.23.82-.15,1.76-.69,2,.73.19,1.18.35,2.33-1.38,2.41-.38,0-.74.14-1.12.19-2.15.26-2.26.41-1.78,2.49a8.2,8.2,0,0,1,.23.95c.36,3.57,1,2.82-2.61,3.59-1.27.27-1.94-.18-2.14-1.46-.67-4.14-1.39-8.28-2-12.44,0-.36.6-1.1,1-1.2,2.56-.57,5.16-1,7.74-1.48C68.16,86.91,67.62,88.3,68,89.49Z"/><path class="cls-1" d="M78.76,12.19c-.2.51-.35.84-.46,1.19-.68,2.15-.79,2.29-2.9,1.47-1.27-.49-1.42.38-1.67,1.08-.93,2.63-1.84,5.27-2.63,8-.31,1-.75,1.35-1.73,1A11.48,11.48,0,0,1,66.8,24a1.82,1.82,0,0,1-.65-1.6c.82-2.61,1.76-5.19,2.72-7.75.45-1.19.48-2-1-2.39-2.42-.61-.64-2.14-.53-3.2.12-1.23,1-.83,1.83-.52,2.71,1,5.47,1.9,8.2,2.86A11.37,11.37,0,0,1,78.76,12.19Z"/><path class="cls-1" d="M95.15,53.17a4.2,4.2,0,0,0-.69-1.37A3.22,3.22,0,0,1,93.59,48c.22-.39.88-.87,1.21-.79.48.12,1.16.69,1.19,1.1a39.5,39.5,0,0,1,0,5.33c0,.37-.65.87-1.08,1a1.29,1.29,0,0,1-1.17-.52,5.73,5.73,0,0,1-.2-1.78l.5-.08.58,1.15Z"/><path class="cls-1" d="M16.22,47.44c.66,2.39.41,6.09-.56,7L15,51.89l-.51,2.23h-.4c0-.84-.1-1.68-.12-2.51,0-1.08,0-2.17,0-3.24a3.71,3.71,0,0,1,.55-1.18,8.35,8.35,0,0,1,.78,1c.12.22.09.52.43.85Z"/><path class="cls-1" d="M20.94,49.14c-2.59.26-1.66,1.79-1.71,2.84,0,.29.56.61,1.47,1l-1.22,1.65c-.41-.57-1.09-1.11-1.19-1.73A23.76,23.76,0,0,1,18.21,49c0-.86,0-2,1.17-1.85C19.89,47.23,20.29,48.28,20.94,49.14Z"/><path class="cls-1" d="M97.74,54.8c.35-1.8.57-3.2.89-4.57.23-1,.72-2-1.14-2.36l.27-.53a5.15,5.15,0,0,1,1.73-.12,1.32,1.32,0,0,1,.59,1.11c-.39,2-.89,4-1.37,6C98.69,54.38,98.45,54.43,97.74,54.8Z"/><path class="cls-1" d="M9,49.27l-.36-1.33L8.19,48c.13.63.2,1.28.39,1.9a17.19,17.19,0,0,1,1,2.68A3.63,3.63,0,0,1,9,54.48c-.06.11-.9.06-1-.1a12.09,12.09,0,0,1-.59-2l.43-.16L8.5,53.4c.12-.17.3-.3.28-.38-.18-.66-.4-1.3-.59-2a13.31,13.31,0,0,1-.69-2.58,1.85,1.85,0,0,1,.74-1.27c.14-.12.9.17,1,.43a5.1,5.1,0,0,1,.22,1.59Z"/><path class="cls-1" d="M23.34,46.94v7.61c-.26-.14-.91-.31-.92-.51-.07-2.14-.07-4.29,0-6.43C22.41,47.4,23,47.21,23.34,46.94Z"/><path class="cls-1" d="M102.37,54.66c-.21-2.27-.43-4.38-.57-6.49,0-.3.34-.63.57-1C103.41,48.66,103.37,53.47,102.37,54.66Z"/><path class="cls-1" d="M90.93,47.29c.9,1.41.82,6.17-.23,7.43-.17-2.36-.35-4.49-.45-6.62C90.24,47.85,90.68,47.58,90.93,47.29Z"/><path class="cls-1" d="M12,47.51v6.56h-.34V47.51Z"/><path class="cls-1" d="M92.85,30c.92-.56,1.24,2.07,2.07-1.34l.23,1.49-1,1.34Z"/><path class="cls-1" d="M40.6,69.28a22.81,22.81,0,0,1,12.87-18c4.35-2.11,7.88-1.63,11,2.29a4.79,4.79,0,0,0,1.74,1.38c3.82,1.69,4.64,4.92,4,8.47-1.63,8.48-6.75,14.16-14.86,17a12.76,12.76,0,0,1-9.49-.49C42.35,78.38,40.59,75.25,40.6,69.28Zm22.85-13L63.17,56a5.06,5.06,0,0,0-1.19.58,46.35,46.35,0,0,0-5.21,4.76c-3.83,4.63-7.44,9.43-11.14,14.17a9.23,9.23,0,0,0-.47.94A15.79,15.79,0,0,0,47,75.66,22.49,22.49,0,0,0,54,69.26q4.52-6.06,9-12.13A5.73,5.73,0,0,0,63.45,56.32Z"/><path class="cls-1" d="M55.15,49.35c-1.46-4.29-.53-10.07,4.73-11.63a4.3,4.3,0,0,0,2-1.3c2.55-3.13,5.78-2.93,9.05-1.41C77,37.82,80.21,43,82,49.12a17.64,17.64,0,0,1,0,10.35,9.48,9.48,0,0,1-9.42,6.66c-1.22-.09-1.66-.52-1.6-1.81a26.19,26.19,0,0,0-.15-5.94c-.37-2-2-3.23-3.74-4.21a6.47,6.47,0,0,1-1.92-1.4c-2.5-3.06-5.48-4.64-9.5-3.43A2,2,0,0,1,55.15,49.35Zm21,13c.27-.48.37-.57.37-.66a4.25,4.25,0,0,0-.06-.8c-.69-3.82-2.68-7-4.93-10-2.71-3.68-5.39-7.38-8.09-11.07-.22-.29-.5-.53-1-1.07,0,.65,0,.86,0,1.06C63,43.3,64.88,46.19,66.9,49q3.94,5.51,7.84,11.05C75.22,60.73,75.59,61.47,76.14,62.4Z"/><path class="cls-1" d="M45.12,55.52V38.81l-.51-.14a17.92,17.92,0,0,0-1.37,4,105,105,0,0,0-.47,10.79c0,3.19.39,6.32-1.46,9.24A11.85,11.85,0,0,0,40,66.54c-.28,1.22-.7,1.27-1.62.59a14.74,14.74,0,0,1-5.22-7.78c-1.78-5.66-2-11.36.33-16.92A16.83,16.83,0,0,1,36.58,38c2-2.26,4.69-2.33,7.48-1.8a6.61,6.61,0,0,0,3,.09c3.16-.91,5.85,1.43,7.17,3.51a2.49,2.49,0,0,1,0,1.39c-.21,2.45-.54,4.89-.65,7.34a2.08,2.08,0,0,1-1.16,2c-1.94,1.21-3.72,2.69-5.55,4.09-.46.34-.86.77-1.29,1.16Z"/><path class="cls-2" d="M56.62,0c23.87,1,41.46,11.92,51.75,33.74a48.79,48.79,0,0,1,4.3,26.65C110.13,82.92,97.93,98.3,77.3,107a51.74,51.74,0,0,1-26.63,3.58C30.51,108.19,15.55,98.1,6,80.25A50.21,50.21,0,0,1,.23,51.49C2.24,29.74,13.58,14.42,33.05,5A52.85,52.85,0,0,1,56.62,0ZM2.76,55.16a53.48,53.48,0,0,0,53.67,53.26c29.78,0,53.68-24.17,53.69-53.07S85.79,1.92,55.58,2.29C26.51,2.65,2.75,26.06,2.76,55.16Z"/><path class="cls-2" d="M4.14,55.4C3.8,26.89,27.41,3.74,56,3.54c29.77-.21,52.7,24,52.81,51.51a52.14,52.14,0,0,1-52.35,52.1C27.34,107.18,3.83,83.61,4.14,55.4ZM32.2,17.73a8.56,8.56,0,0,0,8.41,8.33,8.66,8.66,0,0,0,8.28-8.32A8.61,8.61,0,0,0,40.6,9.43,8.49,8.49,0,0,0,32.2,17.73Zm-9,70a8.57,8.57,0,0,0,8.4,8.36,8.2,8.2,0,1,0-8.4-8.36ZM84.44,37l.67-.31c1.65-3.54,3.28-7.1,5-10.63,2-4.31,2.1-4.33-1.61-7.23a2.4,2.4,0,0,0-2.13-.21c-4.22,2.26-8.37,4.65-12.54,7-.33.18-.7.3-1.25.53,1.32,1,2.13,1.51,2.85,2.13.91.77,1.67,1.35,3,.56s1.88.6,2.69,1.22A1.36,1.36,0,0,1,81.54,32a1.91,1.91,0,0,0,0,1.62C82.4,34.84,83.46,35.91,84.44,37Zm-50-8.1c-.94-.24-1.82-.48-2.7-.68a1.72,1.72,0,0,0-2.2,1.07,3.49,3.49,0,0,1-6.63-2c.18-1.88,1.2-2.84,3.24-3.19.46-.07,1.17-.4,1.25-.73a32.92,32.92,0,0,0,.46-3.59c-1.1,0-2.19-.09-3.29-.11a2.68,2.68,0,0,0-.8.13c-3.53,1.13-6.19,5.22-5.65,8.67.68,4.29,3.93,7.31,7.93,7.39C30.47,36,33.65,33.44,34.47,28.93Zm-7.7,26.2c-.3,16,13.18,29.27,29,29.54C72.46,85,85.17,71.75,86,57.33,87,39.09,72.1,27.08,58.76,26.2,40.09,25,26.54,39.86,26.77,55.13ZM82.94,76.29a2.52,2.52,0,0,0,.39.43c3.88,2.32,7.77,4.62,11.65,7a1.23,1.23,0,0,0,1.88-.56c1.28-2.12,2.53-4.25,3.81-6.37.73-1.19.36-1.9-.81-2.58s-1.62.16-2.1.92a19,19,0,0,0-1.13,2c-.45,1-.95,1.29-2,.7s-1.1-1.28-.46-2.21a15,15,0,0,0,1.2-2.1,1.29,1.29,0,0,0,.11-1,1.8,1.8,0,0,0-3.19-.12,7.68,7.68,0,0,1-1.21,1.88,2.05,2.05,0,0,1-1.72.41c-.79-.26-1.1-.94-.51-1.8a14.09,14.09,0,0,0,1.56-2.64,1.7,1.7,0,0,0-.28-1.57c-1.65-1.41-2.07-1.26-3,.7-.31.63-.64,1.25-1,1.84C85.07,72.84,84,74.57,82.94,76.29Zm-70.3-.58a8.31,8.31,0,0,0,6.27,8c.43.12,1.36-.1,1.4-.28a11.22,11.22,0,0,0,.22-3.36c-.05-.44-.83-.85-1.35-1.15a3.53,3.53,0,0,1-1.88-4.21,3.29,3.29,0,0,1,2.83-2.53c1.86-.25,3.65.52,4,2.23.39,2.08,1.73,2,3.23,2.26S29,76.34,29,75.09a8.16,8.16,0,0,0-8.34-7.52A7.88,7.88,0,0,0,12.64,75.71ZM84.51,87.55c-1.23-2.82-1.43-2.88-3.73-1.29l-.8.54c-.74.49-1.38.74-2.07-.18s-.29-1.48.44-2,1.42-1,2.14-1.44,1.24-1.17.43-2.08a14,14,0,0,1-1-1.34c-2.76,1.85-5.4,3.58-8,5.41-.24.18-.23,1.1,0,1.46,1.11,1.78,2.34,3.49,3.52,5.22L80,98.38c2.7-1.93,5.24-3.71,7.74-5.56,1.13-.83.19-1.57-.24-2.33s-1-.68-1.7-.19c-.86.64-1.77,1.23-2.66,1.83s-1.33.07-1.82-.63-.64-1.21.17-1.75C82.46,89.06,83.44,88.32,84.51,87.55ZM43.37,86.41c-1.15,4.6-2.26,9-3.33,13.45-.1.39-.06,1.14.11,1.21a18,18,0,0,0,4,1.12c.24,0,.69-1.39,1-2.15.19-.5.28-1,.44-1.55.58-1.88.91-2.06,2.83-1.54a4.49,4.49,0,0,1,.61.23c1.22.55,2,.28,2.42-1.11s-.16-1.85-1.42-2c-.58-.06-1.14-.36-1.72-.42a1.19,1.19,0,0,1-1.2-1.53c.12-1.06.75-1.36,1.7-1.16s2,.53,3,.66c1.6.2,1.08-1.3,1.43-2,.07-.16-.66-1-1.12-1.07-1.86-.5-3.77-.83-5.65-1.27C45.43,87,44.48,86.72,43.37,86.41ZM61.31,7c-1.44-.1-2.34-.18-3.24-.21C55,6.72,53.52,7.94,52.78,11A6.18,6.18,0,0,0,54,16.11c1.59,2.43,1.45,3.84-.39,5.93a14.63,14.63,0,0,0-.91,1.27c1.54.44,2.81.84,4.1,1.15A1.71,1.71,0,0,0,58,24.29c2.42-1.54,4.36-3.88,2.75-7.3-.5-1.07-1-2.13-1.55-3.18a4.21,4.21,0,0,1,.67-5.07ZM68,89.49c-.38-1.19.16-2.58-1.56-2.27-2.58.47-5.18.91-7.74,1.48-.44.1-1.09.84-1,1.2.59,4.16,1.31,8.3,2,12.44.2,1.28.87,1.73,2.14,1.46,3.58-.77,3,0,2.61-3.59a8.2,8.2,0,0,0-.23-.95c-.48-2.08-.37-2.23,1.78-2.49.38,0,.74-.17,1.12-.19,1.73-.08,1.57-1.23,1.38-2.41-.23-1.42-1.17-.88-2-.73-.58.1-1.18.11-1.76.23-1.19.26-1.47-.4-1.62-1.39s.44-1.25,1.29-1.34a11.85,11.85,0,0,0,2.53-.53A4.07,4.07,0,0,0,68,89.49Zm10.76-77.3a11.37,11.37,0,0,0-1.42-.76c-2.73-1-5.49-1.86-8.2-2.86-.84-.31-1.71-.71-1.83.52-.11,1.06-1.89,2.59.53,3.2,1.51.38,1.48,1.2,1,2.39-1,2.56-1.9,5.14-2.72,7.75A1.82,1.82,0,0,0,66.8,24a11.48,11.48,0,0,0,2.57.89c1,.31,1.42,0,1.73-1,.79-2.68,1.7-5.32,2.63-7.95.25-.7.4-1.57,1.67-1.08,2.11.82,2.22.68,2.9-1.47C78.41,13,78.56,12.7,78.76,12.19Zm16.39,41-.53.21L94,52.23l-.5.08a5.73,5.73,0,0,0,.2,1.78,1.29,1.29,0,0,0,1.17.52c.43-.12,1-.62,1.08-1a39.5,39.5,0,0,0,0-5.33c0-.41-.71-1-1.19-1.1-.33-.08-1,.4-1.21.79a3.22,3.22,0,0,0,.87,3.82A4.2,4.2,0,0,1,95.15,53.17ZM16.22,47.44l-.48,1.63c-.34-.33-.31-.63-.43-.85a8.35,8.35,0,0,0-.78-1A3.71,3.71,0,0,0,14,48.38c-.08,1.07,0,2.16,0,3.24,0,.83.08,1.67.12,2.51h.4L15,51.89l.68,2.59C16.63,53.53,16.88,49.83,16.22,47.44Zm4.72,1.7c-.65-.86-1.05-1.91-1.56-2-1.18-.14-1.16,1-1.17,1.85a23.76,23.76,0,0,0,.08,3.87c.1.62.78,1.16,1.19,1.73L20.7,53c-.91-.38-1.49-.7-1.47-1C19.28,50.93,18.35,49.4,20.94,49.14Zm76.8,5.66c.71-.37,1-.42,1-.51.48-2,1-4,1.37-6a1.32,1.32,0,0,0-.59-1.11,5.15,5.15,0,0,0-1.73.12l-.27.53c1.86.31,1.37,1.34,1.14,2.36C98.31,51.6,98.09,53,97.74,54.8ZM9,49.27l.46,0a5.1,5.1,0,0,0-.22-1.59c-.12-.26-.88-.55-1-.43a1.85,1.85,0,0,0-.74,1.27,13.31,13.31,0,0,0,.69,2.58c.19.65.41,1.29.59,2,0,.08-.16.21-.28.38l-.68-1.15-.43.16a12.09,12.09,0,0,0,.59,2c.07.16.91.21,1,.1a3.63,3.63,0,0,0,.59-1.88,17.19,17.19,0,0,0-1-2.68c-.19-.62-.26-1.27-.39-1.9l.47-.08Zm14.32-2.33c-.39.27-.93.46-.94.67,0,2.14,0,4.29,0,6.43,0,.2.66.37.92.51Zm79,7.72c1-1.19,1-6,0-7.49-.23.37-.59.7-.57,1C101.94,50.28,102.16,52.39,102.37,54.66ZM90.93,47.29c-.25.29-.69.56-.68.81.1,2.13.28,4.26.45,6.62C91.75,53.46,91.83,48.7,90.93,47.29Zm-79,.22h-.34v6.56H12ZM92.85,30l1.26,1.49,1-1.34-.23-1.49C94.09,32.08,93.77,29.45,92.85,30Z"/><path class="cls-2" d="M40.53,21.27a3.56,3.56,0,0,1-3.61-3.54,3.76,3.76,0,0,1,3.62-3.63,3.52,3.52,0,0,1,3.54,3.62A3.44,3.44,0,0,1,40.53,21.27Z"/><path class="cls-2" d="M31.41,84.38A3.37,3.37,0,0,1,35,87.86a3.56,3.56,0,0,1-3.51,3.65,3.63,3.63,0,0,1-3.6-3.59A3.39,3.39,0,0,1,31.41,84.38Z"/><path class="cls-2" d="M85.43,24.66a11.49,11.49,0,0,1-1.09,2c-.15.2-.78,0-1.19,0,0-.36-.07-.87.12-1.05a14.4,14.4,0,0,1,1.8-1.25Z"/><path class="cls-2" d="M56.4,83.91c-16,.33-28.88-13.12-28.9-28.46a28.9,28.9,0,0,1,57.8.12C85.37,70.7,72.35,84.3,56.4,83.91ZM40.6,69.28c0,6,1.75,9.1,5.17,10.62a12.76,12.76,0,0,0,9.49.49c8.11-2.82,13.23-8.5,14.86-17,.68-3.55-.14-6.78-4-8.47a4.79,4.79,0,0,1-1.74-1.38c-3.07-3.92-6.6-4.4-11-2.29A22.81,22.81,0,0,0,40.6,69.28ZM55.15,49.35a2,2,0,0,0,.59,0c4-1.21,7,.37,9.5,3.43a6.47,6.47,0,0,0,1.92,1.4c1.75,1,3.37,2.21,3.74,4.21a26.19,26.19,0,0,1,.15,5.94c-.06,1.29.38,1.72,1.6,1.81a9.48,9.48,0,0,0,9.42-6.66,17.64,17.64,0,0,0,0-10.35C80.21,43,77,37.82,70.92,35c-3.27-1.52-6.5-1.72-9.05,1.41a4.3,4.3,0,0,1-2,1.3C54.62,39.28,53.69,45.06,55.15,49.35Zm-10,6.17.46.21c.43-.39.83-.82,1.29-1.16,1.83-1.4,3.61-2.88,5.55-4.09a2.08,2.08,0,0,0,1.16-2c.11-2.45.44-4.89.65-7.34a2.49,2.49,0,0,0,0-1.39c-1.32-2.08-4-4.42-7.17-3.51a6.61,6.61,0,0,1-3-.09c-2.79-.53-5.45-.46-7.48,1.8a16.83,16.83,0,0,0-3.1,4.47c-2.35,5.56-2.11,11.26-.33,16.92a14.74,14.74,0,0,0,5.22,7.78c.92.68,1.34.63,1.62-.59a11.85,11.85,0,0,1,1.32-3.79c1.85-2.92,1.5-6,1.46-9.24a105,105,0,0,1,.47-10.79,17.92,17.92,0,0,1,1.37-4l.51.14Z"/><path class="cls-2" d="M63.45,56.32a5.73,5.73,0,0,1-.44.81q-4.51,6.07-9,12.13A22.49,22.49,0,0,1,47,75.66a15.79,15.79,0,0,1-1.86.74,9.23,9.23,0,0,1,.47-.94c3.7-4.74,7.31-9.54,11.14-14.17A46.35,46.35,0,0,1,62,56.53,5.06,5.06,0,0,1,63.17,56Z"/><path class="cls-2" d="M76.14,62.4c-.55-.93-.92-1.67-1.4-2.34Q70.84,54.51,66.9,49c-2-2.82-3.87-5.71-4.48-9.2,0-.2,0-.41,0-1.06.51.54.79.78,1,1.07,2.7,3.69,5.38,7.39,8.09,11.07,2.25,3.06,4.24,6.23,4.93,10a4.25,4.25,0,0,1,.06.8C76.51,61.83,76.41,61.92,76.14,62.4Z"/></svg>