<svg id="BG_COLOR" data-name="BG COLOR" xmlns="http://www.w3.org/2000/svg" viewBox="0 0 41.07 41.58"><defs><style>.cls-1{fill:#164477;fill-rule:evenodd;}</style></defs><path class="cls-1" d="M6.26,18.43l.61-.23a14.1,14.1,0,0,0,0,5.18l-.61-.23L5,22.69,3.13,22,0,20.79l3.13-1.18L5,18.89ZM22.41,5.11h0l.46,1.23.22.61A13.72,13.72,0,0,0,18,7l.68-1.84.71-1.94L20.54,0,21.7,3.17ZM41.07,20.79,37.94,22,36,22.69l-1.22.46-.61.23a14.1,14.1,0,0,0,0-5.18l.61.23,1.22.46,1.91.72ZM20.54,41.58l1.16-3.17.71-1.94.46-1.23.22-.61a14.31,14.31,0,0,1-5.11,0l.22.61.46,1.23.71,1.94Zm-13.64-7,2.85-1.32.13-.06a15.68,15.68,0,0,1-1.62-1.64l0,.13ZM8.26,10l0-.13L6.9,7,9.75,8.31l.13.06A15.58,15.58,0,0,0,8.26,10ZM31.19,8.37l.13-.06L34.17,7l-1.3,2.88-.06.13A15.58,15.58,0,0,0,31.19,8.37Zm3,26.22-2.85-1.32-.13-.06a15.68,15.68,0,0,0,1.62-1.64l.06.13ZM17.88,36.36A15.71,15.71,0,0,1,5.16,23.48L7,24.19A14,14,0,0,0,17.18,34.45ZM5.16,18.1A15.71,15.71,0,0,1,17.88,5.22l-.7,1.91A14,14,0,0,0,7,17.39Zm18-12.88A15.71,15.71,0,0,1,35.91,18.1L34,17.39A14,14,0,0,0,23.9,7.13ZM35.91,23.48A15.71,15.71,0,0,1,23.19,36.36l.71-1.91A14,14,0,0,0,34,24.19ZM15.16,31.29a13.87,13.87,0,0,1-.82-5.09h0c0-.75,0-1.5.09-2.24h0a33.71,33.71,0,0,1,1.39-7.51h0a22.48,22.48,0,0,1,2.86-6.31h0a6.06,6.06,0,0,1,2.43-2.28h0a2.14,2.14,0,0,1,.79-.16h0a2.42,2.42,0,0,1,2,1.4h0A11.6,11.6,0,0,1,25,14.68h0c0,.46,0,.9,0,1.34h0a34.43,34.43,0,0,1-1.31,8.06h0A22.69,22.69,0,0,1,20.61,31h0a5.05,5.05,0,0,1-2.79,2.28h0a1.64,1.64,0,0,1-.38,0h0c-1.12,0-1.88-1-2.28-2ZM21.9,8a2,2,0,0,0-.76.16h0a6.07,6.07,0,0,0-2.4,2.24h0a22.53,22.53,0,0,0-2.84,6.3h0a34.13,34.13,0,0,0-1.4,7.49h0c-.05.73-.08,1.48-.08,2.23h0a13.68,13.68,0,0,0,.82,5.06h0c.39,1,1.13,2,2.2,2h0l.37,0h0a5.08,5.08,0,0,0,2.74-2.25h0a22.77,22.77,0,0,0,3.07-6.9h0a34.27,34.27,0,0,0,1.31-8h0c0-.43,0-.87,0-1.33h0a11.5,11.5,0,0,0-1.11-5.54h0A2.36,2.36,0,0,0,21.9,8ZM15.11,31.85a7,7,0,0,1-5.17-4.07h0A10.28,10.28,0,0,1,9,23.39H9a16.72,16.72,0,0,1,3.66-9.89h0c2.24-2.88,6-5.58,9.73-5.58h0a7.47,7.47,0,0,1,3.1.67h0c3.09,1.41,4.36,4.77,4.36,8h0q0,.46,0,.93h0a16.92,16.92,0,0,1-8,12.84h0A10.73,10.73,0,0,1,16.46,32h0a7.7,7.7,0,0,1-1.35-.12ZM12.73,13.52a16.73,16.73,0,0,0-3.64,9.84h0A10.29,10.29,0,0,0,10,27.72h0a7,7,0,0,0,5.11,4h0a7.65,7.65,0,0,0,1.34.11h0a10.69,10.69,0,0,0,5.34-1.59h0a16.83,16.83,0,0,0,8-12.78h0q0-.46,0-.93h0c0-3.21-1.27-6.53-4.32-7.92h0A7.25,7.25,0,0,0,22.4,8h0c-3.74,0-7.44,2.68-9.67,5.54ZM8.18,23.34a10.15,10.15,0,0,1-.48-3.09h0A12.29,12.29,0,0,1,14.64,9.66h0A14.41,14.41,0,0,1,21,8.16h0A12.42,12.42,0,0,1,30.2,12h0A10.42,10.42,0,0,1,33,19h0a9.59,9.59,0,0,1-.06,1.07h0c-.64,5.86-5.84,10.09-11.38,10.84h0a13.34,13.34,0,0,1-1.79.12h0c-5,0-10-2.7-11.58-7.7Zm6.5-13.6a12.17,12.17,0,0,0-6.9,10.51h0a9.91,9.91,0,0,0,.48,3.06h0c1.58,5,6.57,7.65,11.5,7.65h0a13.2,13.2,0,0,0,1.78-.12h0c5.51-.75,10.68-5,11.31-10.77h0A9.42,9.42,0,0,0,32.91,19h0a10.32,10.32,0,0,0-2.77-7h0A12.32,12.32,0,0,0,21,8.24h0a14.08,14.08,0,0,0-6.34,1.5ZM23,31.44A15,15,0,0,1,10.68,22h0a12.68,12.68,0,0,1-.91-4.63h0a10.3,10.3,0,0,1,.44-3h0A8.76,8.76,0,0,1,14.7,9h0a9.79,9.79,0,0,1,4.37-1h0a14.38,14.38,0,0,1,9.87,4.43h0a14.18,14.18,0,0,1,4.2,9.69h0a11.41,11.41,0,0,1-.06,1.16h0a9.07,9.07,0,0,1-3.3,6.17h0a9.63,9.63,0,0,1-6,2h0q-.4,0-.81,0ZM14.73,9.11a8.75,8.75,0,0,0-4.45,5.28h0a10.15,10.15,0,0,0-.43,3h0a12.72,12.72,0,0,0,.9,4.6h0A14.9,14.9,0,0,0,23,31.36h0q.41,0,.81,0h0a9.51,9.51,0,0,0,5.92-1.95h0A9,9,0,0,0,33,23.32h0a11.22,11.22,0,0,0,.06-1.15h0a14,14,0,0,0-4.18-9.63h0a14.28,14.28,0,0,0-9.81-4.41h0a9.79,9.79,0,0,0-4.34,1Zm3.84,19.76a22.26,22.26,0,0,1-3.63-7.41h0a21.73,21.73,0,0,1-.9-5.9h0a15.14,15.14,0,0,1,.18-2.33h0a9,9,0,0,1,1.3-3.59h0a3.89,3.89,0,0,1,3.14-1.86h.14c2.5,0,4.65,2.1,6.07,4h0a22.19,22.19,0,0,1,3.48,6.94h0a21.58,21.58,0,0,1,1,6.39h0c0,.44,0,.88-.05,1.32h0a10.87,10.87,0,0,1-1,4h0a4.19,4.19,0,0,1-3,2.43h0a3.88,3.88,0,0,1-.67.06h0c-2.46,0-4.64-2.14-6-4ZM18.8,8h-.13A3.78,3.78,0,0,0,15.59,9.8h0a9,9,0,0,0-1.3,3.56h0a16.35,16.35,0,0,0-.17,2.32h0a21.58,21.58,0,0,0,.9,5.87h0a22.21,22.21,0,0,0,3.61,7.39h0c1.39,1.81,3.55,3.93,6,3.92h0a3.81,3.81,0,0,0,.66,0h0a4.1,4.1,0,0,0,3-2.39h0a10.65,10.65,0,0,0,1-3.93h0c0-.44,0-.88,0-1.32h0a21.81,21.81,0,0,0-1-6.36h0a22.45,22.45,0,0,0-3.47-6.91h0C23.39,10.05,21.26,8,18.8,8ZM21.33,33.7A1.8,1.8,0,0,1,21,33h0a37.08,37.08,0,0,1-1.08-7.49h0c-.23-2.73-.37-5.47-.44-8.21h0c0-1-.05-2.05-.05-3.09h0a42.45,42.45,0,0,1,.22-4.65h0a10.49,10.49,0,0,1,.2-1.25h0a2.6,2.6,0,0,1,.12-.38h0c.06-.13.14-.26.27-.27h0a.26.26,0,0,1,.2.14h0a6.42,6.42,0,0,1,.69,2.47h0c.34,2,.54,4,.71,6h0c.28,3.42.44,6.86.44,10.29h0c0,.49,0,1,0,1.46h0a36,36,0,0,1-.18,3.74h0a7.89,7.89,0,0,1-.27,1.59h0a1.3,1.3,0,0,1-.1.26h0c-.05.09-.12.19-.23.19h0a.19.19,0,0,1-.13-.06ZM20,7.67A2.14,2.14,0,0,0,19.9,8h0a10.18,10.18,0,0,0-.2,1.25h0a42,42,0,0,0-.22,4.63h0c0,1,0,2.07.05,3.09h0c.07,2.74.21,5.48.44,8.21h0a36.78,36.78,0,0,0,1.08,7.47h0a1.56,1.56,0,0,0,.33.71h0l.08,0h0c.05,0,.11-.06.16-.15h0a1.43,1.43,0,0,0,.1-.25h0A8.2,8.2,0,0,0,22,31.47h0a36,36,0,0,0,.18-3.74h0c0-.49,0-1,0-1.45h0c0-3.43-.16-6.87-.44-10.29h0c-.17-2-.37-4-.71-6h0a6.24,6.24,0,0,0-.67-2.44h0c-.06-.08-.11-.1-.14-.1h0c-.05,0-.13.09-.18.22ZM15.88,32.53A4.94,4.94,0,0,1,15,31h0a13.33,13.33,0,0,1-.66-3.7h0c0-.5,0-1,0-1.51h0a31.94,31.94,0,0,1,2.73-12.7h0a16.75,16.75,0,0,1,1.8-3.2h0a5.16,5.16,0,0,1,2.57-2.11h0A2.62,2.62,0,0,1,22,7.69h0c1.06,0,1.75.85,2.19,1.89h0a11.67,11.67,0,0,1,.73,3.09h0A22.18,22.18,0,0,1,25,15.11h0a31.2,31.2,0,0,1-.5,5.3h0A32,32,0,0,1,22.3,28h0a16.26,16.26,0,0,1-1.89,3.32h0a4.43,4.43,0,0,1-2.9,2H17.4a2,2,0,0,1-1.52-.8Zm-.77-1.59a5,5,0,0,0,.83,1.54h0a1.91,1.91,0,0,0,1.46.77h.11a4.35,4.35,0,0,0,2.83-2h0a15.49,15.49,0,0,0,1.89-3.31h0a32.22,32.22,0,0,0,2.23-7.52h0a31.18,31.18,0,0,0,.5-5.29h0a22,22,0,0,0-.14-2.43h0a11.55,11.55,0,0,0-.73-3.07h0c-.43-1-1.1-1.84-2.11-1.84h0a2.52,2.52,0,0,0-.52.06h0a5.06,5.06,0,0,0-2.52,2.08h0a16.59,16.59,0,0,0-1.8,3.18h0a31.79,31.79,0,0,0-2.72,12.67h0c0,.5,0,1,0,1.5h0a13.48,13.48,0,0,0,.65,3.68ZM13,31.12a7.2,7.2,0,0,0,3.47.84h0a10.16,10.16,0,0,0,4.05-.9h0a16.73,16.73,0,0,0,9.13-12h0a14.4,14.4,0,0,0,.24-2.55h0a9.9,9.9,0,0,0-1.28-5.08h0A7,7,0,0,0,22.42,8H22c-5.23.27-9.59,4.73-11.61,9.32h0A15.33,15.33,0,0,0,9,23.4H9c0,.41,0,.83.06,1.25h.08c0-.41-.06-.83-.06-1.24h0a15.3,15.3,0,0,1,1.35-6.07h0c2-4.58,6.36-9,11.55-9.28h.4a7,7,0,0,1,6.1,3.41h0a9.82,9.82,0,0,1,1.27,5h0A14.18,14.18,0,0,1,29.55,19h0a16.61,16.61,0,0,1-9.08,12h0a10,10,0,0,1-4,.9h0A7.12,7.12,0,0,1,13,31.05h0a8.07,8.07,0,0,1-3.84-6.41H9.1A8.14,8.14,0,0,0,13,31.12ZM19.22,31c-5.45-.17-10.86-3.91-11.47-9.7h0a9.77,9.77,0,0,1-.06-1.08h0a11.39,11.39,0,0,1,2.94-7.52h0A14,14,0,0,1,21,8.15h0a13.24,13.24,0,0,1,5,1h0a11.27,11.27,0,0,1,6,5.59h0A10.21,10.21,0,0,1,33,19h0a10.67,10.67,0,0,1-.56,3.4h0c-1.8,5.36-7.32,8.66-12.77,8.66h-.43Zm0-.08h.42c5.42,0,10.91-3.28,12.7-8.61h0A10.76,10.76,0,0,0,32.9,19h0A10.07,10.07,0,0,0,32,14.74h0a11.23,11.23,0,0,0-6-5.55h0a13.08,13.08,0,0,0-5-1h0a13.89,13.89,0,0,0-10.34,4.56h0a11.36,11.36,0,0,0-2.92,7.47h0a9.73,9.73,0,0,0,.06,1.07h0c.6,5.75,6,9.46,11.4,9.63Zm.23-.31A15,15,0,0,1,9.81,18.44h0c0-.34,0-.67,0-1h0a9.19,9.19,0,0,1,4.48-8.16h0a9.59,9.59,0,0,1,4.8-1.23h0a14.28,14.28,0,0,1,9.47,4h0a14.48,14.48,0,0,1,4.63,10.08h0a10,10,0,0,1-.94,4.28h0A8.75,8.75,0,0,1,27,31h0a10.12,10.12,0,0,1-3.13.48h0a12.54,12.54,0,0,1-4.37-.82Zm0-.07a12.6,12.6,0,0,0,4.34.81h0a10.29,10.29,0,0,0,3.11-.47h0a8.69,8.69,0,0,0,5.2-4.53h0a9.77,9.77,0,0,0,.94-4.24h0a14.39,14.39,0,0,0-4.62-10h0a14.18,14.18,0,0,0-9.41-4h0a9.54,9.54,0,0,0-4.76,1.22h0a9.13,9.13,0,0,0-4.44,8.09h0c0,.33,0,.66,0,1h0a15,15,0,0,0,9.6,12.15ZM9.81,18.44h0ZM24.63,32.82h-.26a6.57,6.57,0,0,1-3.59-1.62h0A17.6,17.6,0,0,1,16,24.52h0a23.48,23.48,0,0,1-2-8h0c0-.35,0-.71,0-1.09h0A9.53,9.53,0,0,1,15.84,9.2h0a3.69,3.69,0,0,1,2.91-1.37h0a6.49,6.49,0,0,1,3.91,1.58h0a17.5,17.5,0,0,1,4.53,6.22h0a23.89,23.89,0,0,1,2.09,7.5h0a20.84,20.84,0,0,1,.12,2.12h0A10,10,0,0,1,27.9,31h0a4,4,0,0,1-3.27,1.81Zm-8.51-8.33a17.42,17.42,0,0,0,4.71,6.64h0a6.45,6.45,0,0,0,3.55,1.6h.25A3.91,3.91,0,0,0,27.84,31h0a10,10,0,0,0,1.48-5.71h0a20.64,20.64,0,0,0-.12-2.11h0a24,24,0,0,0-2.08-7.47h0a17.17,17.17,0,0,0-4.51-6.19h0a6.36,6.36,0,0,0-3.86-1.57h0A3.62,3.62,0,0,0,15.9,9.25h0a9.46,9.46,0,0,0-1.77,6.14h0c0,.37,0,.74,0,1.09h0a23.37,23.37,0,0,0,2,8Zm-2-8Zm7.37,17c-.12,0-.21-.12-.27-.23h0c-.06-.12-.1-.26-.13-.33h0a10.72,10.72,0,0,1-.39-1.58h0a67.71,67.71,0,0,1-.9-7.77h0q-.29-4-.33-8.06h0c0-.43,0-.85,0-1.28h0c0-1.48,0-3,.17-4.44h0c0-.13,0-.58.1-1h0A2.5,2.5,0,0,1,20,7.56h0a.24.24,0,0,1,.19-.1h0c.14,0,.25.14.34.31h0a3.17,3.17,0,0,1,.23.66h0c.12.48.19,1,.22,1.18h0A80.32,80.32,0,0,1,22.12,21h0c.07,1.77.12,3.54.12,5.31h0c0,.86,0,1.73,0,2.59h0a20.73,20.73,0,0,1-.34,3.77h0a1.79,1.79,0,0,1-.22.67h0a.23.23,0,0,1-.19.11h0Zm-1.61-9.66a65.79,65.79,0,0,0,.89,7.8h0a9.49,9.49,0,0,0,.4,1.59h0a3.05,3.05,0,0,0,.13.31h0c0,.12.13.2.2.2h0a.17.17,0,0,0,.13-.08h0a.82.82,0,0,0,.11-.21h0c.05-.17.08-.36.1-.44h0a20.65,20.65,0,0,0,.34-3.77h0q0-1.3,0-2.61h0c0-1.78-.05-3.56-.12-5.34h0A81,81,0,0,0,20.94,9.79h0A8,8,0,0,0,20.49,8h0c-.09-.17-.19-.27-.28-.27h0a.19.19,0,0,0-.13.07h0A1,1,0,0,0,20,8h0a3.83,3.83,0,0,0-.16.7h0c-.09.53-.11,1.09-.13,1.25h0c-.13,1.48-.17,3-.17,4.46h0c0,.43,0,.86,0,.88h0l-.08.52h.08c0,2.59.14,5.3.34,8Zm-4.58,3.68a24.61,24.61,0,0,0,5.28.57h0a26.18,26.18,0,0,0,2.66-.14h0a17.62,17.62,0,0,0,7.45-2.23h0a5.63,5.63,0,0,0,2.63-2.95h0a3.27,3.27,0,0,0,.13-.87h0a4,4,0,0,0-1.34-2.79h0C30.2,17.23,27.45,16.41,25,16v.07h0c2.48.44,5.22,1.25,7.07,3.06h0a3.94,3.94,0,0,1,1.31,2.73h0a2.83,2.83,0,0,1-.13.85h0a5.62,5.62,0,0,1-2.59,2.91h0a17.57,17.57,0,0,1-7.42,2.21h0a26.12,26.12,0,0,1-2.65.13h0a24.57,24.57,0,0,1-5.27-.56h0C13,26.88,10.41,26,8.82,24.17h0a3.66,3.66,0,0,1-1-2.39h0a3,3,0,0,1,.17-1H8a5.62,5.62,0,0,1,2.44-2.68h0a17,17,0,0,1,7.05-2.23h0a24.69,24.69,0,0,1,3.1-.19h0a25.29,25.29,0,0,1,4.35.37V16h0a24.45,24.45,0,0,0-4.36-.38h0a24.85,24.85,0,0,0-3.11.19h0A17,17,0,0,0,10.41,18h0a5.61,5.61,0,0,0-2.47,2.73h0a3,3,0,0,0-.18,1h0a3.74,3.74,0,0,0,1,2.44h0c1.61,1.86,4.2,2.74,6.5,3.24Zm3.13,6c-2.24-.33-4.92-1.21-6.23-3.25h0a3.29,3.29,0,0,1-.56-1.79h0c0-1.78,1.58-3.3,3.22-4.09h0a13,13,0,0,1,5.68-1.23h0a15.21,15.21,0,0,1,3.32.36h0C25.9,24,28.46,25,29.34,27.2h0a3.33,3.33,0,0,1,.24,1.2h0c0,1.82-1.67,3.28-3.24,4.05h0a13,13,0,0,1-5.68,1.22h0a17,17,0,0,1-2.27-.16Zm-3.53-9.06c-1.63.79-3.18,2.3-3.18,4h0a3.17,3.17,0,0,0,.55,1.75h0c1.28,2,3.94,2.88,6.17,3.21h0a16.93,16.93,0,0,0,2.26.16h0a13.05,13.05,0,0,0,5.65-1.21h0c1.56-.76,3.19-2.21,3.19-4h0a3,3,0,0,0-.24-1.17h0c-.86-2.12-3.39-3.17-5.46-3.64h0a15,15,0,0,0-3.3-.36h0a12.93,12.93,0,0,0-5.64,1.22Zm8.94-.86v0Zm-8.16,7.47c-2.15-.53-4.52-1.49-5.92-3.34h0a4,4,0,0,1-.84-2.38h0A3.2,3.2,0,0,1,9,24.42H9A5.47,5.47,0,0,1,11.2,21.6h0a14.34,14.34,0,0,1,6.44-2.31h0a20.94,20.94,0,0,1,3-.21h0a20.35,20.35,0,0,1,4,.4h0c2.33.46,4.88,1.34,6.51,3.18h0a4.17,4.17,0,0,1,1.14,2.73h0a3.46,3.46,0,0,1-.09.78h0a5.28,5.28,0,0,1-2.15,2.89h0a14.54,14.54,0,0,1-7,2.44h0a21.47,21.47,0,0,1-2.53.15h0a20.24,20.24,0,0,1-4.91-.59Zm2-11.69a14.25,14.25,0,0,0-6.4,2.3h0a5.4,5.4,0,0,0-2.17,2.77h0a3.48,3.48,0,0,0-.12.9H9a3.88,3.88,0,0,0,.83,2.33h0c1.37,1.83,3.73,2.78,5.87,3.31h0a20.08,20.08,0,0,0,4.89.59h0a21.3,21.3,0,0,0,2.52-.15h0A14.52,14.52,0,0,0,30,29h0a5.14,5.14,0,0,0,2.11-2.84h0a3.29,3.29,0,0,0,.09-.76h0a4.09,4.09,0,0,0-1.12-2.67h0c-1.61-1.82-4.15-2.71-6.46-3.17h0a21,21,0,0,0-4-.39h0a20.69,20.69,0,0,0-3,.21Zm-2.28,3.26c-2.19-.42-4.7-1.12-6.34-2.76H9a3.1,3.1,0,0,1-1-2.15H8a2.42,2.42,0,0,1,.26-1.09h0a5.72,5.72,0,0,1,2.61-2.3h0a19.05,19.05,0,0,1,6.87-1.8h0c.94-.09,1.89-.14,2.83-.14h0a28,28,0,0,1,4.29.33h0a14.16,14.16,0,0,1,6.91,2.61h0a3.36,3.36,0,0,1,1.34,2.46h0a2.27,2.27,0,0,1-.2.94h0a5.46,5.46,0,0,1-2.68,2.45h0A19.38,19.38,0,0,1,22.94,23h0c-.8.06-1.6.1-2.4.1h0a27.11,27.11,0,0,1-5.17-.49Zm2.41-10a19.09,19.09,0,0,0-6.84,1.79h0a5.65,5.65,0,0,0-2.58,2.27h0a2.26,2.26,0,0,0-.26,1h0a3,3,0,0,0,1,2.09h0c1.63,1.62,4.12,2.32,6.31,2.75h0a27.73,27.73,0,0,0,5.15.48h0c.8,0,1.6,0,2.39-.1h0a19.45,19.45,0,0,0,7.3-1.83h0a5.48,5.48,0,0,0,2.64-2.41h0a2.32,2.32,0,0,0,.19-.91h0a3.32,3.32,0,0,0-1.31-2.4h0a14,14,0,0,0-6.87-2.59h0a27.75,27.75,0,0,0-4.28-.33h0c-.94,0-1.88,0-2.82.14Zm7.1.19v0ZM18.7,16.86A15.23,15.23,0,0,1,11.64,15h0a2.43,2.43,0,0,1-1.28-1.88h0A1.69,1.69,0,0,1,10.89,12h0a7.88,7.88,0,0,1,3.87-1.84h0a23.76,23.76,0,0,1,5.72-.69h0a28.85,28.85,0,0,1,3.73.27h0v.08a27,27,0,0,0-3.72-.26h0a23.72,23.72,0,0,0-5.71.67h0A8,8,0,0,0,11,12h0a1.63,1.63,0,0,0-.51,1.14h0A2.33,2.33,0,0,0,11.68,15h0a15.19,15.19,0,0,0,7,1.82h0c.66,0,1.32.07,2,.07h0a23.61,23.61,0,0,0,5.69-.66h0a13.19,13.19,0,0,0,2.66-1h0c.95-.49,1.75-1.16,1.74-2h0a1.57,1.57,0,0,0-.31-.9h0a5.41,5.41,0,0,0-2.79-1.76h0a18.2,18.2,0,0,0-3.49-.8h0V9.7a17.69,17.69,0,0,1,3.51.81h0a5.54,5.54,0,0,1,2.83,1.78h0a1.74,1.74,0,0,1,.32,1h0c0,.87-.83,1.54-1.79,2h0a12.58,12.58,0,0,1-2.67,1h0a23.83,23.83,0,0,1-5.71.66h0c-.67,0-1.33,0-2-.07Zm5.5-7.08Zm-.95-1c.11,0,.19.06.27.09A1,1,0,0,1,23.8,9c-.07.11-.18,0-.27,0s.13,0,.11.13.12-.06.23,0,.06.08.08.13-.13.17-.2.25.12.14.09.31-.21.05-.24.15a.53.53,0,0,0,.18.23c0,.31.21.36.24.62-.14.06-.27-.06-.42-.09s-.1.07-.2.05a1.61,1.61,0,0,0-.28-.17s-.05,0-.07-.06-.07-.07-.11-.07-.13-.1-.21-.16-.17,0-.18-.16-.23-.06-.25-.2-.11,0-.14-.06V9.69c0-.08,0-.07.1-.08s-.06-.16-.15-.16,0,.06-.06.07-.24,0-.22-.16.14,0,.24,0a.34.34,0,0,0-.41-.09.86.86,0,0,1-.07-.1l-.07,0s0-.06,0-.07-.06,0-.07,0A.45.45,0,0,0,21.34,9c-.05,0-.09,0-.14,0s-.05-.06-.07-.06a1.16,1.16,0,0,0-.62,0c0-.07-.15,0-.14-.17s-.09,0-.14,0a.4.4,0,0,1,.3-.12c0-.12-.11,0-.07-.14s.15-.14.34-.12c0,0,.07,0,.1,0a.69.69,0,0,1,0-.08s.1,0,.1,0a2,2,0,0,1,.55,0s.09,0,.1,0,.07-.08.13-.08a3.89,3.89,0,0,1,.42.19l.07,0,.11,0s0,0,0,0,.31,0,.21.1a.63.63,0,0,1,.35.09s0,0,0,0h.07s0,.05.07.06a.13.13,0,0,0,.11,0C23.29,8.76,23.25,8.76,23.25,8.81Zm-4.46-.15c.08,0,.15.07.17,0s-.05-.09-.14-.06A.12.12,0,0,1,18.79,8.66Zm-.68,0c-.14,0-.17.06-.31.05s-.09,0-.1.07C17.9,8.78,18,8.84,18.11,8.69Zm.31,0h-.07C18.16,8.68,18.43,8.78,18.42,8.68Zm.62,0a.09.09,0,0,0,.09-.07C19.08,8.65,19,8.65,19,8.72Zm-1.26.16c-.05.13.11,0,.1.1s-.06,0-.06,0c.2,0,.49,0,.54-.13-.07,0-.08,0,0-.07-.14,0-.1.13-.23.12s0-.15-.11-.14A.31.31,0,0,1,17.78,8.88Zm1.64.1c0-.05-.08,0-.14,0s0,0,0-.1c-.15.05-.26-.15-.31,0s.16,0,.17.06-.07.1,0,.14.3,0,.42,0,.05,0,.13,0a.2.2,0,0,0,.17,0C19.82,8.86,19.49,8.94,19.42,9Zm-.78,0c.1,0,.19-.06.19-.18s-.21.1-.3,0C18.5,9,18.66,8.9,18.64,9Zm.17,0A.1.1,0,0,0,19,9C18.89,9,18.81,9,18.81,9Zm-.37.12s-.06,0-.07,0,0,.05,0,.07-.13,0-.14,0,.08.09.11.13a.4.4,0,0,0,.27-.08c-.06-.12,0-.09,0-.21A.19.19,0,0,0,18.44,9.16Zm6.38.37c-.07,0-.1-.08-.21-.06s.11.1.21.1.16.09.25.13,0,.06,0,.06.17,0,.24,0c.12-.3-.17-.43-.43-.43C24.91,9.44,24.86,9.48,24.82,9.53ZM20,9.89V10c.1,0,.19,0,.17-.14A.21.21,0,0,0,20,9.89Zm-1.1.67c.12,0,.1.08.2.06s.1-.11.2-.11.13.1.28.06,0-.08-.1-.07-.1-.13-.11-.13,0,0,0,0-.07,0-.1,0-.08-.12-.14-.1A2.89,2.89,0,0,1,18.88,10.56Zm-6-.06a.17.17,0,0,0,.16-.11C13,10.43,12.85,10.4,12.87,10.5Zm6.32.29c.09,0,.18,0,.17-.11S19.17,10.68,19.19,10.79Zm.42.09h.07V10.8h-.06Zm-6.53,1c.08,0,.08-.08.1-.11s.1,0,.1-.11C13.12,11.66,13.14,11.82,13.08,11.9Zm6.29.65s-.13-.08-.13,0S19.36,12.65,19.37,12.55Zm3.78.38c0,.1,0,.23,0,.32s-.08.08-.06.14a2.75,2.75,0,0,0,.48,0c.08,0,.2,0,.24,0s-.05.06-.06.11.1,0,.09-.11a.19.19,0,0,0,.17-.18.13.13,0,0,1,0-.11c-.16,0-.11-.1-.15-.16s-.06,0-.07,0-.09.07-.2,0-.13,0-.11-.1-.17.05-.17,0a.35.35,0,0,0,.06-.28h-.14A1.51,1.51,0,0,0,23.15,12.93Zm-.6.2c-.1,0-.27-.15-.38-.05C22.26,13.12,22.43,13.25,22.55,13.13Zm1.45.25a.14.14,0,0,0,.21.09c0-.15-.07-.18-.18-.2S24,13.32,24,13.38Zm-3.49,7c0-.14-.14-.1-.25-.13s0,0,0,0-.05,0-.07,0-.05-.06-.07-.07h0s0,0,0,0-.08,0-.11,0,0-.06,0-.07-.14,0-.14-.06-.15-.06-.28,0-.1-.08-.14-.14l-.41-.05c-.11,0-.13,0-.17,0s-.17,0-.21,0a0,0,0,0,1,0,0c-.08,0-.08,0-.17,0s-.15.1-.06.17.16,0,.24,0,0-.06.06-.07.18,0,.31-.05,0,0,0,.14a.93.93,0,0,1,.55.18h.21c0,.11.1.15.14.24s.23-.09.28.05-.13.06-.13.15a1.35,1.35,0,0,0,.41-.06c.06,0,.17.07.2,0s.21,0,.24-.11A.31.31,0,0,0,20.51,20.4Zm-1.79-.27s-.1,0-.11,0S18.75,20.2,18.72,20.13Zm2.52.54s0,.08,0,.11.08.08.11.13-.47-.07-.54.1c.16.1.38,0,.65,0,.1,0,.06.15.17.13s.06-.15.13-.18.11,0,.14,0,.11,0,.13,0,.26,0,.35,0-.15-.15-.29-.16a.5.5,0,0,0-.38-.19,1.67,1.67,0,0,0-.31.05c-.1,0-.2-.06-.3,0S21.21,20.63,21.24,20.67Zm1.48.32c.13,0,.37.05.34-.12a1,1,0,0,0-.34,0Zm-2.52.18c.05,0,.13,0,.13,0a.7.7,0,0,0-.48-.08C19.87,21.25,20.1,21.2,20.2,21.17Zm4.16,2.1c0-.07.11,0,.1-.11s0-.05,0-.1h-.1C24.35,23.18,24.24,23.25,24.36,23.27Zm1.57-14.2s.05,0,.07,0,0,0,0,0h.07a.38.38,0,0,1,.1.13h.07c.06,0,.1.13.15.16a.54.54,0,0,0,.1,0l.18.1.07,0s.11,0,.14.06a.05.05,0,0,0,0,0,.77.77,0,0,0,.28.12c0-.1-.21-.1-.11-.17s.17.13.17.07l-.35-.2a1.1,1.1,0,0,1-.31-.19h-.07l-.07-.06-.11,0-.17-.1-.11,0S26,9,26,9s-.21-.07-.2,0A.23.23,0,0,1,25.93,9.07Zm1.85,1s-.11-.06-.17-.1-.1-.14-.14-.06S27.74,10.13,27.78,10.06ZM17.65,9.89c0-.07-.15-.05-.14-.17H17.4s0,0-.1,0,0,.05,0,.07-.05.06-.1.07-.05-.09-.14-.06-.24,0-.27-.06.17,0,.13-.14-.21-.09-.28-.16a.53.53,0,0,1-.28,0c0-.05.06-.06.07-.11a1.5,1.5,0,0,0-.65.07c.06-.19-.15-.52-.09-.71a1.65,1.65,0,0,0-.94.39.22.22,0,0,0-.17,0c0,.1-.11.06-.17.11s0,.1-.09.15l-.1.07a.71.71,0,0,0-.24.08l-.1,0a.2.2,0,0,0-.13.07.59.59,0,0,1-.17.12s-.05,0-.1,0-.16.19-.26.26,0,.11-.06.17-.17.1-.27.15-.22.07-.3.16c.1,0,.16,0,.24-.08a2.48,2.48,0,0,0,.43-.2s0-.05.07-.07a.25.25,0,0,1,.13,0s0,.07,0,.07a1.49,1.49,0,0,0,.36.07.35.35,0,0,0,0,.24.41.41,0,0,1,0,.11c0,.09-.08.19-.06.31-.14,0-.1.15-.2.18s0,.07,0,.18-.23.16-.13.24.06,0,.07,0a.3.3,0,0,1-.19.25s0,.07,0,.07,0,0,0,0,0,0,0,0a1.49,1.49,0,0,1,0,.21l-.07.07a.61.61,0,0,0,0,.11l0,0c-.05.09,0,.07,0,.11s-.06,0-.11,0-.05.17,0,.31,0,.3.12.27,0-.24.09-.31c.05.11.09.35,0,.38s-.11-.05-.21,0a2.15,2.15,0,0,1-.15.38s0,.05-.07.08,0,.07,0,.1a.58.58,0,0,1-.13.11s0,.06,0,.07-.09.09-.13.15a2,2,0,0,0-.16.25s0,0-.06.07a.54.54,0,0,0,0,.1.21.21,0,0,0,0,.14c-.11,0-.09.19-.2.22s-.08.29-.08.42,0,0,0,0,0,.05,0,.07.05.06,0,.14,0,0-.06.07.06.09,0,.14,0,.06,0,.07h0v.07c0,.14,0,.28,0,.45.16,0,.2.19.25.3h0s0,.06,0,.07,0,0,0,0,0,.21,0,.24c0,.24,0,.52,0,.76a.73.73,0,0,1,.16.45c-.07.06,0,.12-.17.07,0,.11,0,.1,0,.17s0,0,0,0,0,.08,0,.1,0,0,.06,0,0,.07,0,.1,0,0,0,0,0,.17.08.21-.06.16-.06.17,0,.07,0,.1.09.12.11.14,0,.06,0,.07h0s0,.05,0,.07h0s0,.06,0,.07,0,0,0,0,0,.06,0,.07h0s-.05.21.07.13,0-.21,0-.27-.13,0-.11-.14a.83.83,0,0,0,0-.27c0-.14,0-.11,0-.18s-.06-.2-.08-.27a1.5,1.5,0,0,1,0-.24c0-.15,0-.33-.06-.45s0,0,0,0,0,0,0,0,0,0,0,0,0-.2,0-.31,0-.19.06-.21a.29.29,0,0,1,.21.23s0,0,0,0a1.38,1.38,0,0,0,0,.41.81.81,0,0,1,0,.11l.07.06c.07.13,0,.24.15.31a.17.17,0,0,0,.08.2s0,.06,0,.07.09.07.08.14-.09.07-.06.17.22.14.22.34a.67.67,0,0,1,.18.27,2.05,2.05,0,0,1,.08.2s0,0,0,0a2.94,2.94,0,0,1,.09.48c-.05,0,0,.12,0,.17s-.11,0-.07.07c0,.32.32.35.4.61.11,0,.19.11.32.12s.1.13.14.2.15.1.18.1,0,0,0,0a.66.66,0,0,0,.18.1.84.84,0,0,1,.21.13l.14.1a.91.91,0,0,0,.31.12c.13,0,.28-.11.41-.09s.2.12.28.2a1.54,1.54,0,0,1,.18.16,1.33,1.33,0,0,0,.22.24c.09,0,.21.13.34.08.1.13.31.12.42.23l.31,0c0,.07,0,.08,0,.14s.16.12.25.17.15.17.22.26a.65.65,0,0,1,0,.31c.07,0,.18.15.28.06,0,.15.25.13.31.26v.14c.11-.07.12,0,.21.06s0,0,0,0v0s.06,0,.07,0,.11.05.17,0,.07.14.11.14.11.05.14.06,0,.06.07.07.05,0,.1,0-.08-.12-.07-.24.18-.19.33-.19a.31.31,0,0,1,.21.13.66.66,0,0,0,0,.14l.14.16c0,.05.12.1.14.17s0,.07,0,.11,0,0,0,.1,0,.06,0,.14,0,.06,0,.13a1.13,1.13,0,0,1,0,.18c0,.07.1,0,.08.13s-.13.19-.23.26-.12,0-.14,0,0,.1,0,.14-.09,0-.1,0,0,.14,0,.14-.2.06-.27.12c.06.23-.12.33-.15.49s.05.17,0,.28.07.05.1.06.1,0,.14.07-.3.16-.33.36a.56.56,0,0,0,.12.27s0,.05,0,.1.14.09.24.1.1.07.15.13,0,.1,0,.14.13.06.14.13.07.05.07.1,0,0,0,0,0,.09,0,.14l0,0,.08.1s0,0,.07.07,0,.05,0,.07h0s0,.05,0,.06l.1.1a1,1,0,0,0,.11.1s.05.1.08.14.09,0,.1.1,0,.07,0,.14a1.06,1.06,0,0,1,.18.13l.07.06a1.93,1.93,0,0,0,.32.13.7.7,0,0,0,.17.06s0,0,0,0,.19,0,.31.06v0l.1,0c.11,0,.05.06.11.1s.09,0,.14,0,0,0,0,0,.11,0,.1.07a.43.43,0,0,0,.05.24c0,.05,0,.07,0,.14s0,.07,0,.1,0,.06,0,.07,0,.18-.1.21-.07.23,0,.32c-.09,0,0,.14-.06.21h0s0,.05,0,.07l-.07.07c0,.05,0,.13-.09.14s.06.11,0,.17-.08,0-.06.11.06.1,0,.21,0,.1-.06.14a1.71,1.71,0,0,1-.2.18c-.06.07-.09.18-.19.18s.05.09,0,.17-.15.16-.16.29c.17,0,.08-.17.27-.12-.05.16-.12.18-.3.15,0,.15-.15.18-.16.29a4.6,4.6,0,0,0,1.06,0c0-.06.09,0,.1-.07s-.18,0-.17,0a.3.3,0,0,0,.17,0s0,0,0,0,0,0,0,0,.19,0,.24-.08-.2.06-.18-.06.24-.07.38-.09a.09.09,0,0,1,.1-.07c.06,0,0-.19.12-.22h.35s.05,0,.1,0a.34.34,0,0,1,.19-.18,2.79,2.79,0,0,0,.75-.21c.07,0,.12-.12.2-.11s-.1-.09,0-.17.06-.06.1-.08a1.18,1.18,0,0,0,.45-.21l.2-.14a.44.44,0,0,0,.12-.11s.05,0,.06,0,.08-.15.14-.21.15-.12.2-.18a.23.23,0,0,1,.15-.05c.1-.19.29-.3.43-.46a.46.46,0,0,1,.11-.27s0-.06,0-.07.1-.07.14-.11,0-.06.06-.07l.09,0s.08-.12.11-.14l.09,0s.06-.05.12,0a1,1,0,0,1,.53-.33c.07-.08.11-.19.23-.22s0-.12,0-.17.16-.27.29-.35a.66.66,0,0,1,.19-.42.91.91,0,0,1,.11-.34,1,1,0,0,0,.05-.28c0-.08.06-.15.05-.24s.06,0,.05-.1.08-.1.15-.11c.17-.6.72-.82.59-1.73-.12,0-.15.06-.27.05s-.25-.23-.46-.25a.87.87,0,0,1-.56.13.46.46,0,0,1-.18.11c0-.12,0-.14-.06-.2a1.6,1.6,0,0,0-.55,0c-.08,0-.11.14-.17.21s.05-.13,0-.23a.37.37,0,0,0-.23,0c-.1,0-.12,0-.15,0s-.1,0-.09,0a1.63,1.63,0,0,1,.11-.17c0-.07.11-.12.08-.24s-.14-.07-.16-.16-.06-.31-.1-.44h-.12a.47.47,0,0,0-.34-.22.89.89,0,0,0-.3-.06,1.67,1.67,0,0,0-.18,0c-.05,0-.08.06-.12.07s0,0-.09,0-.06,0-.12,0-.05,0-.06,0,0,0,0,0-.1,0-.09-.06a.15.15,0,0,1-.1,0s0,.05-.06,0v-.13c-.14-.12-.28-.34-.57-.3,0-.13-.05-.17-.08-.24s-.39,0-.45-.15.11,0,.09-.11-.29.08-.47.09c0,.13-.14.16-.27.18s-.18-.1-.31-.12-.25.08-.41.09-.1-.18-.18-.24-.17-.05-.31,0c0-.11,0-.14-.11-.17s.1.13,0,.21a.93.93,0,0,1-.2.08c-.09,0-.1.11-.2.11s-.08-.08-.08-.17.23-.06.2-.21-.24,0-.37.15l-.1,0s0,.05-.06.07a.47.47,0,0,1-.24.05c-.05,0,0,.06-.07.07a.35.35,0,0,0-.3.12c0,.11-.05.17,0,.31s-.14.09-.2.15a.93.93,0,0,0-.16.18.92.92,0,0,1-.25-.23,2.59,2.59,0,0,0-.42-.09s0,0-.06,0,0,0,0,0a.78.78,0,0,1-.16.08s0,0,0,0,0,0,0,0a.25.25,0,0,1-.17,0l-.11,0s-.07,0-.1,0-.08-.08-.07-.17c-.22-.06-.29-.29-.4-.47a.37.37,0,0,0,.06-.14s0,0,0-.06h0s0,0,0-.07a1.61,1.61,0,0,0,0-.38c.05,0,.05-.12.07-.14s0-.08,0-.14,0-.07,0-.1l-.11,0c-.1,0-.11-.09-.14-.17a3.26,3.26,0,0,0-.45-.05c-.14,0-.12,0-.2,0s-.44.11-.55,0a2.56,2.56,0,0,1,.16-.22c0-.13,0-.3,0-.35s-.12-.08,0-.17.07.06.14,0a.81.81,0,0,0,0-.32c.06,0,0-.08.06-.14s.06,0,.07,0a.35.35,0,0,0,.09-.24s-.07,0-.14,0,0,0,0,0a1.89,1.89,0,0,0-.62.09l-.06,0a.59.59,0,0,0-.06.32c-.12,0,0,.1-.06.14s-.08,0-.13.07,0,.13-.06.14-.11-.1-.25-.06-.32.08-.47.13-.07-.09-.11-.13-.2-.05-.24-.13a.34.34,0,0,1-.08-.27s0-.07-.08-.11a.86.86,0,0,1-.07-.1c0-.09-.06-.24-.08-.27l0-.07s0,0,0,0,0,0,0,0a.84.84,0,0,1,0-.21s0,0,0,0,0-.19,0-.28,0-.23,0-.35.17-.06.16-.18c-.09-.35.05-.74.48-.71,0-.05.06-.06.07-.11s0-.1.09-.11.4-.11.49,0,.06-.1.16-.08.08,0,.11.07,0,.13.11.1.16,0,.2,0,0-.11.1-.14S17,18.13,17,18s.17,0,.21,0,.33,0,.34,0,.06,0,.13,0,.21.05.31,0,0,0,.07,0,.07.14.15.16.08,0,.13,0,0-.09.1-.07.14.06.14.17.14.06.15.16a.8.8,0,0,1,0,.28c.1,0,0,.09,0,.14l.07.06s0,.05,0,.07a.47.47,0,0,0,.08.14s.05,0,.07.06,0,.08,0,.11l.07.06c.05.06.08.13.17.1a.54.54,0,0,0,0-.63.77.77,0,0,1-.08-.37.7.7,0,0,1-.15-.38.55.55,0,0,1,.05-.31.26.26,0,0,1,.06-.14.4.4,0,0,1,.17-.15c.11,0,.11-.11.2-.11a.78.78,0,0,1,.12-.22,1.31,1.31,0,0,1,.21-.08c0-.14.15-.19.29-.22,0-.1,0-.09,0-.17.13,0,.2,0,.2-.15s-.12,0-.14,0,.16,0,.1-.11-.12-.09-.11-.2-.1-.25,0-.28.08.13.18.13.1-.09.06-.21-.13-.15,0-.17.07,0,.13,0a1,1,0,0,0,.1-.17c0-.11,0-.14,0-.21s.15-.07.28-.05a.86.86,0,0,0,.13-.14.18.18,0,0,0,.1,0c.08,0,.29,0,.27-.08s-.15,0-.14-.1,0,0,0-.07.06-.21.09-.31a.43.43,0,0,0,.26-.16c.11,0,.1-.06.21,0s0,0,.07,0a.17.17,0,0,1,.06-.1c.05,0,.14,0,.2-.05s0-.06.07-.07.1,0,.1,0-.1.08-.13.11a.29.29,0,0,0-.1.18c0,.07.08.13.18.13s.14-.2.26-.26a.74.74,0,0,0,.27-.15s.07,0,.1,0,0-.11.06-.14H23s0-.08.06-.07,0-.11-.11-.1,0-.12-.07-.14l-.06.14c0,.06,0,.14-.06.18s-.24,0-.34,0-.05,0-.08-.06-.05,0-.06,0-.1,0-.11-.1-.06-.11-.05-.24-.2,0-.24-.06c.16,0,.3,0,.27-.18s-.1-.06-.18-.06,0,0,0,0-.07,0-.1,0-.13,0-.17,0-.2.08-.24.11l-.06,0s-.08.1-.1,0,.12-.26.33-.26c0-.08,0-.19.12-.21a7.87,7.87,0,0,0,1-.12,1.2,1.2,0,0,1,.26-.29.45.45,0,0,0,.26-.15c0-.14-.11-.16-.11-.31-.17,0-.33-.06-.39-.22h-.13s0,0,0,0a1.36,1.36,0,0,1-.21,0s-.06-.07-.1-.1a.53.53,0,0,0-.14-.06c0-.1-.06-.09,0-.18s-.09,0-.08-.06a1,1,0,0,0-.17-.1c-.08-.15-.24-.22-.36-.33-.06,0,0,.16-.09.21a.22.22,0,0,1-.34.09c0-.07-.15,0-.14-.1a.77.77,0,0,1-.08-.27.27.27,0,0,0-.21,0c-.06-.12-.19-.15-.28-.23a1,1,0,0,1-.51,0,1,1,0,0,0,0,.44c0,.13-.15.13-.13.29a.31.31,0,0,1,.26.4c0,.15-.33.3-.43.33a2.49,2.49,0,0,0,.12.52.52.52,0,0,1-.26.22c0-.07-.1,0-.08-.14s-.13-.07-.14-.13,0,0,0,0a.91.91,0,0,1,0-.52.92.92,0,0,0-.34,0,.94.94,0,0,0-.35-.16,1.77,1.77,0,0,0-.14-.17c-.05,0-.11,0-.17,0v0l-.13,0c-.07,0-.13.07-.21.05s0-.21,0-.31-.13,0-.14,0,0-.05,0-.07,0,0,0,0,0-.09,0-.14a2.09,2.09,0,0,1,.23-.21c.06,0,.07-.08.1-.11h.06s0-.05.07-.07a.47.47,0,0,1,.17,0c0-.11.12-.13.2-.18s.15-.08.27-.08.05-.13.09-.18.08,0,.1,0,0-.11,0-.11.11.08.21.06.09,0,.13,0,.05-.06.07-.07.1,0,.1-.07-.07-.07-.08-.14c.19,0,0-.2.06-.21s.18-.05.18,0,.06-.1.16-.08c.14.18.46.15.53.39,0,.07-.08.08-.13.11s.07.15-.06.18-.38,0-.37.15.3,0,.41-.05.09,0,.14.06.06.12.14.07.05.08.07.13.07,0,.07,0a2.9,2.9,0,0,1,.56.12.23.23,0,0,0-.11-.17c-.05,0-.23,0-.14-.1s.19.13.38.09c0-.18-.11-.17-.15-.27s-.13,0-.18-.06-.14,0-.11-.17.24.16.42.15,0,0,0,0,.12-.11.09-.25-.12,0-.2,0-.38-.09-.49-.22,0-.11,0-.17-.12-.1-.27-.06-.12,0-.11-.09a.58.58,0,0,1-.24,0s-.07-.07-.11-.1l-.11-.1a3.48,3.48,0,0,1-.47,0s-.08,0-.1.07,0,.13-.07.14c-.08-.15.2-.23,0-.24a.3.3,0,0,0-.2.08c-.15.1-.1.18-.13.31a1,1,0,0,1,.28.09.34.34,0,0,1-.13.22c0,.05-.13.16-.2.11s.07-.08,0-.21-.15.12-.21,0c.11-.12-.11,0,0-.14s-.07-.24,0-.27.08-.06.13-.08.2,0,.23-.15a.51.51,0,0,0-.3,0,.5.5,0,0,0-.13.25c-.1.06-.23.09-.23.25s.12,0,.11.1-.06.1-.13.14H18.3c-.05,0-.08.12-.1,0s-.08-.11,0-.1.11-.05.09-.14-.17,0-.23,0-.06.14-.13.18A.77.77,0,0,0,17.65,9.89Zm2.09-.65s0,0,0,0,.09,0,.1,0S19.73,9.39,19.74,9.24ZM17.25,13.3c.09,0,.11,0,.18.06,0,.22.12.4-.09.46C17.37,13.58,17.09,13.47,17.25,13.3Zm1.19.61a.3.3,0,0,1-.2,0C18.21,13.82,18.45,13.73,18.44,13.91Zm-.89,0c.08,0,.08.05,0,.1h-.07C17.51,14,17.55,14,17.55,14Zm1.36.46c.18,0,.28,0,.44,0s.14.12.15.24-.08,0-.17,0a.58.58,0,0,1-.12.36c-.07,0,0-.13,0-.18s-.1.07-.21.05.1-.12,0-.25a.24.24,0,0,0-.11-.06c-.12,0-.17.13-.26.19a.83.83,0,0,0,.05.37c-.09,0-.07.14-.2.12,0-.09-.07-.14-.08-.21s0-.09,0-.14,0-.13,0-.14,0-.06-.08-.06a1.62,1.62,0,0,0,.1-.18s.15,0,.17,0v0c.05,0,.15,0,.17-.05s-.49.11-.49-.11a.7.7,0,0,1-.47.09c0-.08.1-.09.13-.11s0,0,0,0,.06,0,.1,0a.67.67,0,0,0,.2-.21c.09.05.19,0,.27,0s.05.08.08.1.09,0,.14,0S18.87,14.33,18.91,14.41Zm1.24.15c0,.19-.15.17-.27.22s-.1.08-.16.07a.25.25,0,0,1,0,.18c-.07,0-.1.09-.2.08l-.2.14c-.1,0-.18,0-.21-.06s.08,0,.13-.07a.38.38,0,0,0,.14-.11.52.52,0,0,0,.23,0c.08-.08,0-.06,0-.17s.1-.09.2-.08A.8.8,0,0,1,20.15,14.56Zm.81.55a.14.14,0,0,1-.2.08C20.78,15.13,20.86,15.11,21,15.11Zm-.83.56c.12,0,0,.08,0,.2C20.05,15.85,20.16,15.79,20.13,15.67Zm1.54,7.76a.05.05,0,0,1,.07,0c0,.07.12.1.11.23s-.05.07-.1.08-.13-.1-.18-.17S21.66,23.51,21.67,23.43Zm1-9.64c-.1,0-.29,0-.3,0S22.64,13.94,22.64,13.79Zm10.26,8.3c0-.07.07-.26,0-.17S32.8,22.06,32.9,22.09Zm-.7,2.07s-.05.06,0,.07.13-.16.17-.21,0-.07,0-.11l.06-.07a.39.39,0,0,0,.06-.14s0-.05,0-.07.06-.05.07-.07,0-.14,0-.21a1.66,1.66,0,0,0,.06-.21c0-.06,0-.15.06-.21a.29.29,0,0,0,0-.24A9.37,9.37,0,0,1,32.2,24.16ZM19.57,8.38c-.05.13.11,0,.1.1s-.15-.07-.27-.05-.08.07-.17.07.07.08,0,.17.23-.06.24,0-.15.1-.16.22a1.7,1.7,0,0,1,.51,0c0-.05.06,0,.07-.07a.18.18,0,0,1,0-.11c.14,0,.1-.15.2-.18s.1,0,.13-.07.19-.06.2-.15A2.36,2.36,0,0,0,19.57,8.38Zm-2,1.27a.31.31,0,0,0,.24.1c.08,0,0-.11.1-.11H18c0-.12-.12-.08-.11-.2s0,0,0,0l0,0s0-.09,0-.11l.1,0s0-.06.06-.07-.14.07-.27,0-.1.18-.13.11-.18,0-.21-.13,0-.05,0-.14A.66.66,0,0,0,17.27,9c-.05,0-.07.06-.1.08s-.37.1-.37.22.29-.12.38,0-.08,0-.07.11-.12,0-.1.07a.35.35,0,0,1,.28.06c-.19,0-.34-.08-.41.09.14,0,.07.1.11.17A1.11,1.11,0,0,0,17.54,9.65ZM29.92,11.8Zm.89,1.62c0-.06-.07-.1-.08-.14s0,0,0-.06l-.07-.07c0-.05,0-.09,0-.14L30.55,13l-.08-.07c0-.05-.07-.11-.11-.17s-.18-.34-.25-.44-.19-.16-.22-.26.05-.06,0-.11-.1-.14-.15-.2l.11.06s0,0,0,0h0l-.25-.27a12.28,12.28,0,0,0-1.07-.95c-.21-.17-.42-.32-.63-.46-.07.07,0,.1.07.13a3.62,3.62,0,0,0,.29.34c.06.05.15.07.14.16s.11.11,0,.11a1.37,1.37,0,0,1-.25-.23c-.09,0-.09-.05-.17,0-.1-.15-.34-.15-.46-.29h-.13c0-.1-.17-.13-.22-.23S27.08,10,27,10c.09.22.33.27.47.43s.18,0,.21.09-.05,0-.1,0,.1.13.11.14a.16.16,0,0,0,0,.07.32.32,0,0,0,.24.16c.06.11.09.24.25.23,0-.26-.19-.33-.29-.4s-.05-.12-.07-.14-.06,0-.07,0,0-.06,0-.1c.24.08.35.31.53.46s.07,0,.14,0,.13.23.18.16,0-.19-.05-.27c.11.09.31.2.26.37a.17.17,0,0,1,.1.1v.17c.1,0,.13.1.28.06.09.13.24.19.35.29s.1.14.15.2.16.1.14.21,0,0,0,.07-.18.06-.16.18.21.18.22.26,0,0,0,0a3.59,3.59,0,0,1,.25.33c.06.09.14.16.15.27.18,0,.19.23.32.3.05-.2.18.11.24,0S30.82,13.5,30.81,13.42Zm2.56,6.29a5.05,5.05,0,0,0,0-.52,12.71,12.71,0,0,0-2-5.65c-.05-.07-.35-.55-.44-.57a1.67,1.67,0,0,1,.06.38c0,.16.15.27.15.44s0,.05,0,.1-.12,0-.1.08a.32.32,0,0,1,.11.17,3.89,3.89,0,0,1,.13.54.53.53,0,0,0,.08.17c0,.06.05.12.07.17a2.9,2.9,0,0,1,.19.34,2.16,2.16,0,0,1,0,.62,1.27,1.27,0,0,0,0,.14s0,0,0,0c0,.14-.05.17,0,.21s0,.09,0,.11,0,0,0,0a4.44,4.44,0,0,1,.1.62c0,.14.07.42.09.48s0,0,0,.07l.07.06a1,1,0,0,1,.11.17c0,.18.11.28.16.45s.05.85.18,1,0,.2.05.31.07,0,.1.09h0s0,.06,0,.07h0s0,.06,0,.07.08.07.1.1a.81.81,0,0,1,.16.44s0,.05,0,.07.05,0,.07,0,.07.25.05.45-.05.35-.05.45-.11.28,0,.35a2,2,0,0,1,.09-.35c0-.11.07-.23.09-.28l.06-.18a.21.21,0,0,0,0-.07s0,0,0,0,0-.3.05-.34,0-.09,0-.11,0,0,0,0a3.38,3.38,0,0,0,0-.45s0,0,0,0A.48.48,0,0,0,33.37,19.71Z"/></svg>